<?xml version="1.0" encoding="utf-8"?>
<!-- Generator: Adobe Illustrator 27.5.0, SVG Export Plug-In . SVG Version: 6.00 Build 0)  -->
<svg version="1.1" id="Ñëîé_1" xmlns="http://www.w3.org/2000/svg" xmlns:xlink="http://www.w3.org/1999/xlink" x="0px" y="0px"
	 viewBox="0 0 2600 2000" style="enable-background:new 0 0 2600 2000;" xml:space="preserve">
<g>
	<rect id="_x38_" style="fill:#D4E8FF;" width="2600" height="2000"/>
	<g id="_x37_">
		<path style="fill:#E6F1FC;" d="M540.409,2000c0,0-296.629-852.897-93.974-1040.674c135.455-125.51,279.031,151.17,450.398,4.8
			c152.565-130.311-60.138-458.58,194.422-544.455c267.565-90.263,486.769,640.725,711.276,539.655
			c272.424-122.642,524.701,134.336,290.515,1040.674H540.409z"/>
		<g>
			<path style="fill:#FFFFFF;" d="M328.714,1998.577c-0.119-0.342-2.964-8.535-7.77-23.826l11.866-3.729
				c4.741,15.086,7.622,23.385,7.65,23.467L328.714,1998.577z"/>
			<path style="fill:#FFFFFF;" d="M306.696,1927.012c-4.435-15.585-8.841-31.757-13.097-48.065l12.035-3.141
				c4.233,16.221,8.615,32.304,13.025,47.802L306.696,1927.012z M2288.248,1907.561l-12.365-1.338
				c1.784-16.483,3.488-33.078,5.065-49.324l12.379,1.201C2291.746,1874.391,2290.037,1891.032,2288.248,1907.561z
				 M281.521,1830.629c-3.836-16.034-7.573-32.366-11.106-48.542l12.151-2.654c3.516,16.096,7.234,32.347,11.052,48.302
				L281.521,1830.629z M2297.846,1808.582l-12.393-1.059c1.407-16.483,2.727-33.111,3.923-49.422l12.404,0.908
				C2300.581,1775.37,2299.257,1792.049,2297.846,1808.582z M260.268,1733.338c-3.215-16.245-6.303-32.71-9.18-48.939l12.247-2.17
				c2.862,16.147,5.935,32.53,9.134,48.695L260.268,1733.338z M2305.108,1709.389l-12.416-0.754
				c1.007-16.58,1.911-33.234,2.687-49.498l12.424,0.592C2307.024,1676.047,2306.118,1692.755,2305.108,1709.389z M242.899,1635.282
				c-2.565-16.421-4.977-33.001-7.169-49.278l12.327-1.66c2.18,16.191,4.58,32.684,7.131,49.019L242.899,1635.282z
				 M2309.838,1610.035l-12.431-0.424c0.565-16.55,1.016-33.219,1.341-49.547l12.436,0.248
				C2310.857,1576.698,2310.405,1593.428,2309.838,1610.035z M229.621,1536.579c-1.86-16.557-3.543-33.229-5-49.555l12.389-1.105
				c1.449,16.231,3.121,32.809,4.972,49.271L229.621,1536.579z M2311.807,1510.57l-12.438-0.063
				c0.084-16.509,0.039-33.114-0.136-49.555l12.438-0.132C2311.846,1477.326,2311.89,1493.996,2311.807,1510.57z M220.785,1437.357
				c-1.083-16.647-1.96-33.387-2.607-49.753l12.428-0.491c0.643,16.261,1.515,32.894,2.591,49.438L220.785,1437.357z
				 M2298.303,1411.414c-0.449-16.585-1.045-33.242-1.77-49.508l12.426-0.554c0.728,16.338,1.326,33.067,1.777,49.724
				L2298.303,1411.414z M216.872,1337.797c-0.211-16.594-0.19-33.288,0.073-49.822l12.436,0.197
				c-0.261,16.416-0.282,32.992-0.073,49.467L216.872,1337.797z M2293.876,1312.445c-1.044-16.561-2.255-33.179-3.599-49.395
				l12.395-1.027c1.352,16.297,2.568,32.998,3.618,49.639L2293.876,1312.445z M230.911,1238.745l-12.425-0.576
				c0.773-16.694,1.818-33.432,3.105-49.748l12.399,0.979C232.714,1205.582,231.678,1222.185,230.911,1238.745z M2285.674,1213.75
				c-1.724-16.547-3.635-33.093-5.681-49.179l12.338-1.57c2.059,16.18,3.98,32.82,5.714,49.46L2285.674,1213.75z M914.779,1147.333
				c-18.015-1.248-29.739-10.328-46.274-24.627l8.414-9.16c14.136,12.085,23.826,20.232,38.38,21.342l0.364,12.434
				C915.37,1147.329,915.075,1147.333,914.779,1147.333z M238.726,1140.194l-12.358-1.408c1.896-16.634,4.104-33.271,6.561-49.447
				l12.297,1.867C242.791,1107.231,240.605,1123.714,238.726,1140.194z M2273.153,1115.552c-2.506-16.468-5.228-32.891-8.09-48.813
				l12.242-2.2c2.881,16.031,5.622,32.564,8.145,49.142L2273.153,1115.552z M953.255,1111.315l-11.535-4.652
				c4.755-11.792,8.996-27.521,12.605-46.751l12.225,2.295C962.736,1082.523,958.388,1098.587,953.255,1111.315z M834.602,1085.054
				c-9.067-11.543-18.717-24.803-29.502-40.534l10.259-7.033c10.632,15.509,20.126,28.555,29.025,39.886L834.602,1085.054z
				 M253.607,1042.52l-12.213-2.357c3.177-16.457,6.709-32.876,10.498-48.802l12.101,2.879
				C260.245,1009.993,256.75,1026.236,253.607,1042.52z M2255.609,1018.19c-3.437-16.341-7.121-32.562-10.952-48.213l12.082-2.957
				c3.862,15.782,7.577,32.137,11.042,48.609L2255.609,1018.19z M973.818,1012.477l-12.357-1.414
				c1.703-14.87,3.232-31.023,4.676-49.38l12.399,0.976C977.081,981.163,975.538,997.459,973.818,1012.477z M777.563,1002.876
				c-9.236-14.364-18.659-29.331-26.658-42.077l10.535-6.612c7.982,12.718,17.381,27.648,26.585,41.962L777.563,1002.876z
				 M1621.347,996.743c-9.493,0-18.759-3.341-27.538-9.932l7.467-9.947c12.955,9.69,25.327,9.626,39.191,1.578l6.266,10.744
				C1638.136,994.201,1629.595,996.743,1621.347,996.743z M1684.224,953.647l-9.768-7.7c8.517-10.805,17.628-24.009,27.854-40.367
				l10.547,6.594C1702.39,928.919,1693.023,942.485,1684.224,953.647z M276.505,946.487l-11.955-3.432
				c4.625-16.112,9.654-32.149,14.948-47.666l11.772,4.016C286.042,914.731,281.075,930.571,276.505,946.487z M1561.75,946.032
				c-7.157-12.751-14.239-27.653-21.652-45.557l11.492-4.758c7.222,17.443,14.093,31.91,21.006,44.227L1561.75,946.032z
				 M2232.048,922.201c-4.587-16.141-9.455-32.025-14.468-47.212l11.811-3.9c5.068,15.352,9.987,31.404,14.622,47.711
				L2232.048,922.201z M724.472,918.671c-10.33-16.396-18.815-29.703-26.704-41.877l10.438-6.764
				c7.918,12.22,16.431,25.569,26.789,42.011L724.472,918.671z M981.918,912.839l-12.416-0.733
				c0.875-14.824,1.74-31.07,2.644-49.667l12.423,0.603C983.664,881.683,982.797,897.972,981.918,912.839z M1738.34,869.156
				l-10.809-6.154c7.934-13.934,15.899-28.281,24.264-43.349l10.875,6.038C1754.285,840.789,1746.308,855.163,1738.34,869.156z
				 M1522.38,853.612c-5.007-14.314-10.143-29.826-15.703-47.418l11.859-3.748c5.522,17.472,10.62,32.866,15.584,47.061
				L1522.38,853.612z M308.402,853.158l-11.544-4.629c6.182-15.408,12.918-31.022,19.912-45.871l11.252,5.3
				C321.131,822.588,314.494,837.975,308.402,853.158z M670.339,835.486c-10.094-14.771-19.47-27.966-28.663-40.339l9.983-7.418
				c9.292,12.506,18.761,25.832,28.949,40.74L670.339,835.486z M2201.005,828.523c-6.066-15.745-12.458-31.04-19-45.46l11.328-5.139
				c6.64,14.639,13.126,30.159,19.278,46.127L2201.005,828.523z M986.853,813.272l-12.426-0.547
				c0.727-16.508,1.441-33.122,2.172-49.741l12.426,0.546C988.294,780.149,987.58,796.765,986.853,813.272z M1786.933,782.326
				l-10.816-6.142c9.26-16.306,17.501-30.401,25.193-43.089l10.637,6.448C1804.315,752.13,1796.133,766.125,1786.933,782.326z
				 M350.68,764.398l-10.764-6.232c9.104-15.724,18.491-29.858,27.902-42.01l9.834,7.615
				C368.581,735.485,359.507,749.154,350.68,764.398z M1492.085,758.51c-4.106-13.786-8.556-28.974-14.005-47.797l11.947-3.459
				c5.439,18.793,9.882,33.952,13.978,47.706L1492.085,758.51z M611.136,756.401c-11.404-13.521-22.612-25.643-33.31-36.027
				l8.663-8.925c10.994,10.671,22.485,23.098,34.155,36.933L611.136,756.401z M2160.166,738.997
				c-8.114-14.955-16.606-29.105-25.239-42.058l10.35-6.898c8.841,13.264,17.529,27.74,25.821,43.024L2160.166,738.997z
				 M991.29,713.822l-12.424-0.593c0.863-18.095,1.693-34.347,2.538-49.685l12.419,0.684
				C992.98,679.535,992.151,695.757,991.29,713.822z M1838.553,697.919l-10.285-6.994c10.349-15.219,20.133-28.428,29.911-40.382
				l9.627,7.875C1858.263,670.085,1848.693,683.006,1838.553,697.919z M540.485,689.388c-14.584-9.914-28.896-16.861-42.539-20.649
				l3.328-11.984c14.95,4.151,30.495,11.67,46.203,22.348L540.485,689.388z M410.922,689.121l-7.767-9.715
				c14.859-11.879,30.372-19.88,46.108-23.785l2.995,12.072C438.277,671.162,424.37,678.372,410.922,689.121z M1464.3,662.893
				c-4.099-14.239-8.948-31.048-13.835-47.766l11.939-3.489c4.892,16.738,9.745,33.563,13.849,47.814L1464.3,662.893z
				 M2105.55,657.927c-11.199-13.041-22.787-24.513-34.442-34.096l7.9-9.607c12.207,10.038,24.313,22.016,35.978,35.6
				L2105.55,657.927z M1901.178,622.993l-8.291-9.273c14.102-12.608,28.328-22.318,42.285-28.859l5.279,11.262
				C1927.59,602.151,1914.376,611.191,1901.178,622.993z M996.814,614.505l-12.411-0.819c1.142-17.302,2.366-34.036,3.638-49.737
				l12.397,1.005C999.171,580.594,997.952,597.265,996.814,614.505z M2030.801,598.128c-15.178-6.893-30.103-10.782-45.377-11.577
				l0.564-12.425c16.874,0.866,33.348,5.132,49.979,12.688L2030.801,598.128z M1436.33,567.483
				c-5.133-16.998-9.931-32.511-14.666-47.424l11.855-3.764c4.753,14.97,9.567,30.537,14.717,47.592L1436.33,567.483z
				 M1004.919,515.505l-12.375-1.251c1.743-17.243,3.642-33.936,5.642-49.616l12.338,1.574
				C1008.537,481.785,1006.651,498.37,1004.919,515.505z M1406.2,472.908c-5.557-16.358-11.126-32.081-16.553-46.731l11.664-4.32
				c5.466,14.755,11.072,30.585,16.666,47.05L1406.2,472.908z M1017.607,417.166l-12.276-2.001
				c2.816-17.275,5.896-33.833,9.155-49.211l12.168,2.578C1023.435,383.72,1020.392,400.083,1017.607,417.166z M1371.64,380.057
				c-6.604-15.988-13.315-31.2-19.95-45.212l11.242-5.322c6.723,14.201,13.521,29.605,20.204,45.787L1371.64,380.057z
				 M1038.382,320.62l-11.969-3.385c4.88-17.257,10.239-33.315,15.929-47.727l11.569,4.567
				C1048.374,288.103,1043.148,303.762,1038.382,320.62z M1329.128,291.045c-8.564-15.184-17.357-29.136-26.138-41.465l10.132-7.214
				c9.032,12.684,18.062,27.006,26.84,42.569L1329.128,291.045z M1075.049,230.386l-10.667-6.396
				c9.606-16.021,20.273-29.455,31.704-39.928l8.402,9.171C1093.942,202.895,1084.038,215.395,1075.049,230.386z M1271.924,212.279
				c-12.172-12.221-24.794-22.124-37.517-29.435l6.197-10.784c13.679,7.861,27.181,18.439,40.132,31.442L1271.924,212.279z
				 M1144.036,170.339l-3.49-11.938c16.59-4.788,34.923-5.638,51.638-3.331l-1.732,12.317
				C1175.473,165.323,1158.944,166.048,1144.036,170.339z"/>
			<path style="fill:#FFFFFF;" d="M2279.567,1982.03l-12.342-1.539c1.017-8.151,2.028-16.448,3.009-24.66l12.35,1.473
				C2281.603,1965.538,2280.587,1973.857,2279.567,1982.03z"/>
		</g>
		<path style="fill:#D4E8FF;" d="M120.055,1941.284l-12.189-2.473c3.417-16.849,7.248-33.311,11.386-48.93l12.023,3.186
			C127.199,1908.451,123.424,1924.674,120.055,1941.284z M2471.392,1903.4c-4.166-16.765-8.719-32.751-13.533-47.515l11.825-3.855
			c4.906,15.044,9.542,31.318,13.778,48.371L2471.392,1903.4z M2143.012,1859.286c-17.44-1.737-33.392-9.196-47.41-22.17
			l8.448-9.129c12.155,11.249,25.303,17.438,40.194,18.922L2143.012,1859.286z M442.998,1858.165
			c-8.888,0.001-17.658-1.125-26.063-3.347l3.179-12.025c15.181,4.004,30.547,3.738,46.251,0.236l2.713,12.139
			C460.178,1857.157,451.404,1858.165,442.998,1858.165z M2194.419,1850.286l-4.699-11.516
			c13.196-5.576,29.092-13.625,40.903-24.087l8.197,9.355C2226.069,1835.364,2208.789,1844.249,2194.419,1850.286z
			 M145.646,1845.833l-11.742-4.104c5.993-17.146,12.462-32.87,19.229-46.738l11.178,5.455
			C157.758,1813.876,151.479,1829.146,145.646,1845.833z M371.185,1830.145c-14.058-11.696-26.189-25.785-35.187-36.753l9.616-7.889
			c8.648,10.541,20.275,24.056,33.526,35.081L371.185,1830.145z M513.664,1827.498l-9.488-8.043
			c8.844-10.433,17.005-23.823,24.952-40.936l11.281,5.238C531.986,1801.896,523.238,1816.203,513.664,1827.498z M2440.34,1809.952
			c-7.373-16.429-15.281-30.732-23.506-42.515l10.199-7.119c8.668,12.419,16.963,27.404,24.654,44.542L2440.34,1809.952z
			 M2065.171,1795.511c-6.979-13.219-13.481-28.471-19.88-46.627l11.73-4.135c6.193,17.575,12.457,32.28,19.148,44.955
			L2065.171,1795.511z M2271.802,1784.967l-10.209-7.104c9.751-14.02,19.353-28.854,30.548-40.448l8.963,8.625
			C2290.678,1756.824,2281.152,1771.536,2271.802,1784.967z M1660.522,1767.379c-9.574,0-18.427-3.698-26.311-10.991l8.445-9.131
			c11.956,10.98,24.211,9.254,38.065,0.876l6.523,10.59C1677.922,1764.466,1668.931,1767.378,1660.522,1767.379z M189.541,1759.161
			l-9.757-7.713c12.401-15.688,25.861-26.922,40.008-33.392l5.173,11.311C212.627,1735.011,200.709,1745.034,189.541,1759.161z
			 M930.43,1756.097c-11.679-5.484-24.368-16.863-38.792-34.786l9.689-7.799c13.029,16.188,24.599,26.729,34.39,31.327
			L930.43,1756.097z M304.749,1754.859c-14.012-16.063-25.113-24.84-35.994-28.457l3.924-11.803
			c16.798,5.585,30.971,20.08,41.442,32.084L304.749,1754.859z M978.682,1736.857l-10.699-6.344
			c6.058-10.217,11.668-24.872,17.151-44.804l11.992,3.299C991.346,1710.023,985.312,1725.675,978.682,1736.857z M558.694,1736.684
			l-11.804-3.92c4.555-13.719,9.192-29.23,14.175-47.42l11.996,3.286C568.019,1707.034,563.319,1722.753,558.694,1736.684z
			 M2383.784,1734.21c-13.051-8.511-29.039-11.113-43.486-9.209l-1.557-12.34c17.257-2.272,36.14,0.97,51.596,10.977
			L2383.784,1734.21z M1724.922,1723.465l-9.584-7.927c9.072-10.97,18.544-23.963,28.956-39.722l10.377,6.857
			C1744.012,1698.807,1734.281,1712.149,1724.922,1723.465z M1608.444,1710.872c-5.328-15.888-8.332-30.558-12.183-49.066
			l12.197-2.43c3.737,17.941,6.627,32.139,11.755,47.473L1608.444,1710.872z M2030.438,1700.865
			c-4.683-16.93-8.969-33.989-12.544-48.445l12.074-2.986c3.555,14.374,7.815,31.331,12.458,48.115L2030.438,1700.865z
			 M862.625,1680.096c-8.025-12.635-16.643-27.106-25.612-43.012l10.834-6.109c8.863,15.717,17.368,30,25.277,42.453
			L862.625,1680.096z M585.685,1640.303l-12.057-3.057c4.041-15.937,8.201-32.509,12.365-48.31l12.027,3.17
			C593.875,1607.838,589.714,1624.41,585.685,1640.303z M1781.126,1640.059l-10.713-6.32c7.399-12.544,15.453-26.66,24.623-43.155
			l10.871,6.043C1796.686,1613.215,1788.58,1627.421,1781.126,1640.059z M1008.448,1639.998l-12.195-2.445
			c2.718-13.552,5.52-28.632,9.086-48.896l12.25,2.156C1014.005,1611.177,1011.186,1626.347,1008.448,1639.998z M1587.727,1612.504
			c-2.515-16.404-4.845-33.143-7.104-49.354l12.318-1.717c2.254,16.169,4.578,32.867,7.081,49.187L1587.727,1612.504z
			 M2005.955,1604.044c-4.894-19.428-9-34.642-12.923-47.881l11.926-3.533c3.973,13.406,8.122,28.778,13.058,48.376
			L2005.955,1604.044z M813.21,1593.19c-7.226-13.794-14.849-28.741-22.656-44.429l11.135-5.541
			c7.77,15.609,15.353,30.479,22.539,44.198L813.21,1593.19z M1829.924,1552.892l-10.914-5.965
			c8.395-15.363,16.563-30.268,24.203-43.713l10.814,6.145C1846.434,1522.722,1838.293,1537.575,1829.924,1552.892z
			 M611.561,1544.446l-11.868-3.721c5.921-18.886,11.681-34.391,17.607-47.402l11.319,5.155
			C622.908,1511.02,617.328,1526.056,611.561,1544.446z M1026.099,1541.645l-12.256-2.119c2.496-14.437,5.482-31.568,8.706-49.172
			l12.234,2.24C1031.569,1510.145,1028.589,1527.238,1026.099,1541.645z M1573.519,1513.981c-2.994-19.328-5.76-34.786-8.704-48.646
			l12.166-2.584c2.993,14.091,5.799,29.765,8.829,49.326L1573.519,1513.981z M1976.912,1509.742
			c-7.486-17.839-15.237-31.359-23.695-41.336l9.486-8.043c9.293,10.96,17.692,25.538,25.678,44.566L1976.912,1509.742z
			 M765.627,1506.62c-10.653-16.019-20.58-28.296-30.346-37.532l8.546-9.037c10.458,9.891,20.977,22.871,32.157,39.681
			L765.627,1506.62z M1879.792,1467.37l-10.184-7.142c6.178-8.755,10.749-14.229,15.818-18.651
			c10.584-4.179,20.776-6.291,30.673-5.968l-0.406,12.432C1899.514,1447.916,1889.542,1450.882,1879.792,1467.37z M654.409,1459.343
			l-8.354-9.215c13.669-12.859,34.374-17.12,51.264-14.864l-1.725,12.318C681.583,1445.88,665.644,1448.977,654.409,1459.343z
			 M1044.201,1443.751l-12.187-2.489c3.567-17.462,7.075-33.453,10.723-48.889l12.104,2.861
			C1051.223,1410.544,1047.742,1426.414,1044.201,1443.751z M1552.941,1417.29c-4.459-17.264-8.727-32.911-13.046-47.838
			l11.947-3.457c4.354,15.042,8.652,30.804,13.142,48.184L1552.941,1417.29z M1067.202,1347.242l-11.974-3.367
			c4.728-16.808,9.735-32.933,14.884-47.928l11.764,4.039C1076.803,1314.761,1071.866,1330.66,1067.202,1347.242z
			 M1525.196,1322.185c-5.513-16.423-11.239-32.021-17.021-46.359l11.535-4.65c5.873,14.565,11.687,30.396,17.276,47.053
			L1525.196,1322.185z M1099.569,1253.932l-11.424-4.92c6.962-16.165,14.421-31.396,22.17-45.269l10.858,6.066
			C1113.632,1223.312,1106.363,1238.156,1099.569,1253.932z M1487.988,1230.933c-7.733-15.356-15.945-29.649-24.407-42.482
			l10.384-6.848c8.727,13.235,17.183,27.95,25.133,43.735L1487.988,1230.933z M1147.76,1168.861l-9.904-7.523
			c10.685-14.064,22.192-26.675,34.202-37.482l8.32,9.246C1168.947,1143.387,1157.973,1155.418,1147.76,1168.861z
			 M1433.767,1149.973c-11.322-12.309-23.479-23.102-36.131-32.08l7.197-10.145c13.362,9.482,26.177,20.855,38.088,33.803
			L1433.767,1149.973z M1219.446,1105.295l-5.938-10.929c14.896-8.094,30.844-14.303,47.403-18.455l3.025,12.064
			C1248.392,1091.873,1233.423,1097.7,1219.446,1105.295z M1355.396,1094.95c-12.455-4.966-25.975-8.619-39.445-11.159v-0.407
			c-1.869-0.119-3.73-0.218-5.57-0.295l0.521-12.428c5.562,0.211,11.861,0.747,17.486,1.239v1.778
			c10.865,2.459,21.464,5.715,31.57,9.701L1355.396,1094.95z"/>
		<path style="fill:#D4E8FF;" d="M2284.796,1880.952c-22.067-3.355-45.586-0.639-59.36,5.216
			c-290.725,179.654-216.77-151.556-383.825-122.318c-71.25,3.914-147.357,138.657-226.62,130.927
			c-21.109-6.816-29.82-21.238-40.333-46.075c-37.947-156.462-131.255-233.329-254.268-242.111v-0.469
			c-13.794-0.55-26.986-0.55-40.78,0v0.469c-123.011,8.781-216.322,85.649-254.269,242.11c-9.12,23.46-20.15,36.977-32.62,43.189
			c-80.25,29.924-181.16-164.059-280.999-127.889c-79.429,20.044-73.819,172.523-188.859,172.523
			c-111.316,4.012-116.878-63.75-199.698-56.474c-79.397-1.516-127.527,117.503-123.42,119.949h2200.51
			C2400.255,2000,2373.465,1893.932,2284.796,1880.952z"/>
	</g>
	<g id="_x36_">
		<g>
			<path style="fill:#F99370;" d="M1672.732,1151.021l-186.366,157.453c0,0,38.885,78.607,104.24,157.453l160.996-135.964
				C1751.603,1329.964,1740.779,1232.703,1672.732,1151.021z"/>
		</g>
		<g>
			<path style="fill:#F99370;" d="M927.268,1151.021l186.366,157.453c0,0-38.885,78.607-104.241,157.453l-160.996-135.964
				C848.397,1329.964,859.221,1232.703,927.268,1151.021z"/>
		</g>
		<polygon style="fill:#1D3F70;" points="1672.732,1356.977 1300,1453.275 1300,878.2 1672.732,781.901 		"/>
		<polygon style="fill:#1D3F70;" points="1300,1453.275 927.268,1356.977 927.268,781.901 1300,878.2 		"/>
		<polygon style="fill:#FFEEEE;" points="1626.52,1324.198 1300,1408.557 1300,847.001 1626.52,762.642 		"/>
		<polygon style="fill:#FFDCDC;" points="1580.472,1056.828 1423.657,1097.343 1423.657,863.203 1580.472,822.688 		"/>
		<path style="fill:#DD4A43;" d="M1384.29,830.531v276.984l-10.391-7.887l-17.941-13.626l-17.94,22.967l-10.391,13.299V841.114
			c0-3.573,2.417-6.693,5.884-7.588l4.507-1.165l35.881-9.264l0.587-0.154C1379.456,821.662,1384.29,825.408,1384.29,830.531z"/>
		<polygon style="fill:#CE3932;" points="1373.9,823.097 1373.9,1099.628 1355.959,1086.002 1338.019,1108.969 1338.019,832.361 		
			"/>
		<polygon style="fill:#FFDCDC;" points="1626.52,1324.198 1657.651,1347.627 1657.651,785.798 1626.52,762.642 		"/>
		<polygon style="fill:#FFDCDC;" points="1300,1440.029 1657.651,1347.627 1626.52,1324.198 1300,1408.557 		"/>
		<polygon style="fill:#FFEEEE;" points="1300,1408.557 973.48,1324.198 973.48,762.642 1300,847.001 		"/>
		<polygon style="fill:#FFDCDC;" points="973.48,1324.198 942.349,1347.627 942.349,785.798 973.48,762.642 		"/>
		<g>
			<path style="fill:#FCB4B4;" d="M1262.153,888.834c-0.399,0-0.804-0.05-1.208-0.154l-156.714-40.489
				c-2.575-0.665-4.123-3.292-3.457-5.866c0.665-2.575,3.289-4.122,5.866-3.458l156.714,40.489c2.575,0.665,4.123,3.292,3.457,5.866
				C1266.251,887.394,1264.296,888.834,1262.153,888.834z"/>
			<path style="fill:#FCB4B4;" d="M1070.029,839.197c-0.399,0-0.804-0.05-1.208-0.154l-64.667-16.708
				c-2.575-0.665-4.122-3.292-3.457-5.866c0.664-2.574,3.29-4.122,5.866-3.457l64.667,16.708c2.575,0.665,4.123,3.292,3.457,5.866
				C1074.126,837.756,1072.171,839.197,1070.029,839.197z"/>
			<path style="fill:#FCB4B4;" d="M1262.153,935.676c-0.399,0-0.804-0.05-1.208-0.154l-75.487-19.504
				c-2.575-0.665-4.123-3.292-3.458-5.866c0.666-2.575,3.291-4.119,5.867-3.457l75.487,19.503c2.575,0.665,4.123,3.291,3.458,5.866
				C1266.251,934.235,1264.296,935.676,1262.153,935.676z"/>
			<path style="fill:#FCB4B4;" d="M1163.729,910.248c-0.399,0-0.804-0.05-1.208-0.154l-158.367-40.917
				c-2.575-0.665-4.122-3.292-3.457-5.866c0.664-2.575,3.29-4.119,5.866-3.457l158.367,40.917c2.575,0.665,4.123,3.292,3.457,5.866
				C1167.826,908.807,1165.871,910.248,1163.729,910.248z"/>
			<path style="fill:#FCB4B4;" d="M1262.153,982.518c-0.399,0-0.804-0.05-1.208-0.154l-62.875-16.245
				c-2.575-0.665-4.123-3.292-3.457-5.866c0.665-2.574,3.29-4.123,5.866-3.457l62.875,16.245c2.575,0.665,4.123,3.291,3.457,5.866
				C1266.251,981.077,1264.296,982.518,1262.153,982.518z"/>
			<path style="fill:#FCB4B4;" d="M1171.72,959.154c-0.399,0-0.804-0.05-1.208-0.154l-94.858-24.507
				c-2.575-0.666-4.123-3.292-3.458-5.867c0.666-2.575,3.291-4.12,5.867-3.457l94.858,24.508c2.575,0.665,4.123,3.292,3.458,5.866
				C1175.818,957.713,1173.863,959.154,1171.72,959.154z"/>
			<path style="fill:#FCB4B4;" d="M1052.627,928.385c-0.399,0-0.804-0.05-1.208-0.154l-47.266-12.212
				c-2.575-0.665-4.122-3.292-3.457-5.866c0.664-2.575,3.29-4.121,5.866-3.457l47.266,12.212c2.575,0.665,4.123,3.292,3.457,5.866
				C1056.725,926.944,1054.77,928.385,1052.627,928.385z"/>
			<path style="fill:#FCB4B4;" d="M1262.153,1029.36c-0.399,0-0.804-0.05-1.208-0.154l-104.045-26.881
				c-2.575-0.665-4.123-3.292-3.457-5.867c0.665-2.575,3.292-4.119,5.866-3.458l104.045,26.881c2.575,0.665,4.123,3.292,3.458,5.866
				C1266.251,1027.919,1264.296,1029.36,1262.153,1029.36z"/>
			<path style="fill:#FCB4B4;" d="M1113.638,990.989c-0.399,0-0.804-0.05-1.208-0.154l-108.276-27.974
				c-2.575-0.665-4.122-3.292-3.458-5.866c0.666-2.575,3.291-4.122,5.867-3.458l108.276,27.974c2.575,0.666,4.123,3.292,3.458,5.867
				C1117.735,989.548,1115.78,990.989,1113.638,990.989z"/>
			<path style="fill:#FCB4B4;" d="M1262.153,1076.202c-0.399,0-0.804-0.05-1.208-0.154l-256.792-66.345
				c-2.575-0.665-4.122-3.292-3.458-5.866c0.666-2.575,3.291-4.125,5.867-3.458l256.792,66.344c2.575,0.665,4.123,3.292,3.458,5.866
				C1266.251,1074.761,1264.296,1076.202,1262.153,1076.202z"/>
			<path style="fill:#FCB4B4;" d="M1262.153,1123.044c-0.399,0-0.804-0.05-1.208-0.154l-102.869-26.577
				c-2.575-0.665-4.123-3.292-3.457-5.866c0.665-2.575,3.291-4.124,5.866-3.458l102.869,26.577c2.575,0.665,4.123,3.292,3.458,5.866
				C1266.251,1121.603,1264.296,1123.044,1262.153,1123.044z"/>
			<path style="fill:#FCB4B4;" d="M1127.085,1088.147c-0.399,0-0.804-0.05-1.208-0.154l-121.724-31.448
				c-2.575-0.665-4.122-3.292-3.458-5.866c0.666-2.575,3.291-4.124,5.867-3.458l121.724,31.448c2.575,0.665,4.123,3.292,3.458,5.866
				C1131.183,1086.706,1129.228,1088.147,1127.085,1088.147z"/>
			<path style="fill:#FCB4B4;" d="M1262.153,1169.886c-0.399,0-0.804-0.05-1.208-0.154l-256.792-66.345
				c-2.575-0.665-4.122-3.292-3.458-5.866c0.666-2.575,3.291-4.124,5.867-3.458l256.792,66.345c2.575,0.665,4.123,3.292,3.458,5.866
				C1266.251,1168.444,1264.296,1169.886,1262.153,1169.886z"/>
			<path style="fill:#FCB4B4;" d="M1262.153,1216.728c-0.399,0-0.804-0.05-1.208-0.154l-137.103-35.422
				c-2.575-0.665-4.123-3.292-3.457-5.866c0.665-2.575,3.291-4.123,5.866-3.458l137.103,35.422c2.575,0.665,4.123,3.292,3.457,5.866
				C1266.251,1215.286,1264.296,1216.728,1262.153,1216.728z"/>
			<path style="fill:#FCB4B4;" d="M1087.445,1171.59c-0.399,0-0.804-0.05-1.208-0.154l-82.083-21.207
				c-2.575-0.665-4.122-3.292-3.458-5.866c0.666-2.575,3.291-4.124,5.867-3.458l82.083,21.207c2.575,0.665,4.123,3.292,3.457,5.866
				C1091.542,1170.148,1089.587,1171.59,1087.445,1171.59z"/>
			<path style="fill:#FCB4B4;" d="M1262.153,1263.569c-0.399,0-0.804-0.05-1.208-0.154l-71.553-18.486
				c-2.575-0.665-4.123-3.292-3.457-5.866c0.665-2.575,3.292-4.123,5.866-3.458l71.553,18.486c2.575,0.665,4.123,3.292,3.457,5.866
				C1266.251,1262.128,1264.296,1263.569,1262.153,1263.569z"/>
			<path style="fill:#FCB4B4;" d="M1161.26,1237.503c-0.399,0-0.804-0.05-1.208-0.154l-148.962-38.486
				c-2.575-0.665-4.123-3.292-3.458-5.866c0.666-2.575,3.292-4.124,5.867-3.458l148.962,38.486c2.575,0.665,4.123,3.292,3.457,5.866
				C1165.357,1236.062,1163.402,1237.503,1161.26,1237.503z"/>
			<path style="fill:#FCB4B4;" d="M1262.153,1310.411c-0.399,0-0.804-0.05-1.208-0.154l-63.812-16.486
				c-2.575-0.665-4.123-3.292-3.458-5.866c0.666-2.575,3.291-4.122,5.867-3.458l63.812,16.486c2.575,0.665,4.123,3.292,3.457,5.866
				C1266.251,1308.97,1264.296,1310.411,1262.153,1310.411z"/>
			<path style="fill:#FCB4B4;" d="M1176.921,1288.391c-0.399,0-0.804-0.05-1.208-0.154l-84.81-21.911
				c-2.575-0.665-4.123-3.292-3.457-5.866c0.665-2.575,3.291-4.123,5.866-3.458l84.81,21.911c2.575,0.665,4.123,3.292,3.458,5.866
				C1181.019,1286.949,1179.063,1288.391,1176.921,1288.391z"/>
			<path style="fill:#FCB4B4;" d="M1067.622,1260.152c-0.399,0-0.804-0.05-1.208-0.154l-62.261-16.086
				c-2.575-0.665-4.122-3.292-3.457-5.866c0.664-2.575,3.29-4.123,5.866-3.458l62.261,16.086c2.575,0.665,4.123,3.292,3.457,5.866
				C1071.72,1258.711,1069.765,1260.152,1067.622,1260.152z"/>
			<path style="fill:#FCB4B4;" d="M1262.153,1357.253c-0.399,0-0.804-0.05-1.208-0.154l-256.792-66.345
				c-2.575-0.665-4.122-3.292-3.458-5.866c0.666-2.575,3.291-4.123,5.867-3.458l256.792,66.345c2.575,0.665,4.123,3.292,3.458,5.866
				C1266.251,1355.812,1264.296,1357.253,1262.153,1357.253z"/>
		</g>
		<g>
			<path style="fill:#FCB4B4;" d="M1334.861,1169.886c-2.144,0-4.098-1.441-4.659-3.612c-0.665-2.574,0.883-5.201,3.458-5.866
				l58.159-15.026c2.574-0.668,5.2,0.883,5.866,3.458c0.665,2.574-0.883,5.201-3.458,5.866l-58.159,15.026
				C1335.665,1169.836,1335.26,1169.886,1334.861,1169.886z"/>
			<path style="fill:#FCB4B4;" d="M1423.654,1146.945c-2.144,0-4.098-1.441-4.659-3.612c-0.665-2.574,0.883-5.201,3.458-5.866
				l167.999-43.404c2.571-0.666,5.2,0.884,5.866,3.458c0.665,2.574-0.883,5.201-3.458,5.866l-167.999,43.404
				C1424.458,1146.896,1424.053,1146.945,1423.654,1146.945z"/>
			<path style="fill:#FCB4B4;" d="M1334.861,1216.728c-2.144,0-4.098-1.441-4.659-3.612c-0.665-2.574,0.883-5.201,3.458-5.866
				l143.532-37.083c2.572-0.666,5.2,0.884,5.866,3.458c0.665,2.574-0.883,5.201-3.458,5.866l-143.532,37.083
				C1335.665,1216.678,1335.26,1216.728,1334.861,1216.728z"/>
			<path style="fill:#FCB4B4;" d="M1516.166,1169.886c-2.144,0-4.098-1.441-4.659-3.612c-0.665-2.574,0.883-5.201,3.458-5.866
				l75.487-19.503c2.571-0.668,5.2,0.884,5.866,3.458c0.665,2.574-0.883,5.201-3.458,5.866l-75.487,19.503
				C1516.97,1169.836,1516.564,1169.886,1516.166,1169.886z"/>
			<path style="fill:#FCB4B4;" d="M1334.861,1263.569c-2.144,0-4.098-1.441-4.659-3.612c-0.665-2.574,0.883-5.201,3.458-5.866
				l250.864-64.813c2.574-0.665,5.2,0.884,5.866,3.458c0.665,2.574-0.883,5.201-3.458,5.866l-250.864,64.813
				C1335.665,1263.52,1335.26,1263.569,1334.861,1263.569z"/>
			<path style="fill:#FCB4B4;" d="M1334.861,1310.411c-2.144,0-4.098-1.441-4.659-3.612c-0.665-2.574,0.883-5.201,3.458-5.866
				l63.812-16.486c2.572-0.665,5.2,0.884,5.866,3.458c0.665,2.574-0.883,5.201-3.458,5.866l-63.812,16.486
				C1335.665,1310.361,1335.26,1310.411,1334.861,1310.411z"/>
			<path style="fill:#FCB4B4;" d="M1420.094,1288.391c-2.144,0-4.098-1.441-4.659-3.612c-0.665-2.574,0.883-5.201,3.458-5.866
				l84.81-21.911c2.573-0.668,5.2,0.884,5.866,3.458c0.665,2.574-0.883,5.201-3.458,5.866l-84.81,21.911
				C1420.897,1288.341,1420.492,1288.391,1420.094,1288.391z"/>
			<path style="fill:#FCB4B4;" d="M1529.393,1260.152c-2.144,0-4.098-1.441-4.659-3.612c-0.665-2.574,0.883-5.201,3.458-5.866
				l62.261-16.086c2.571-0.665,5.2,0.884,5.866,3.458c0.665,2.574-0.883,5.201-3.458,5.866l-62.261,16.086
				C1530.196,1260.103,1529.791,1260.152,1529.393,1260.152z"/>
			<path style="fill:#FCB4B4;" d="M1334.861,1357.253c-2.144,0-4.098-1.441-4.659-3.612c-0.665-2.574,0.883-5.201,3.458-5.866
				l117.827-30.441c2.574-0.668,5.2,0.883,5.866,3.458c0.665,2.574-0.883,5.201-3.458,5.866l-117.827,30.441
				C1335.665,1357.203,1335.26,1357.253,1334.861,1357.253z"/>
			<path style="fill:#FCB4B4;" d="M1488.538,1317.549c-2.144,0-4.098-1.441-4.659-3.612c-0.665-2.574,0.883-5.201,3.458-5.866
				l103.115-26.641c2.571-0.667,5.2,0.884,5.866,3.458c0.665,2.574-0.883,5.201-3.458,5.866l-103.115,26.641
				C1489.342,1317.499,1488.937,1317.549,1488.538,1317.549z"/>
		</g>
		<polygon style="fill:#FFDCDC;" points="1300,1440.029 942.349,1347.627 973.48,1324.198 1300,1408.557 		"/>
		<g>
			<g>
				<path style="fill:#F99370;" d="M1055.86,1205.46c-4.14,8.31-10.32,16.57-18.18,22.94c-3.14,2.55-6.75,4.98-10.34,7.17
					c-4.1,2.51-8.16,4.71-11.47,6.4c-4.42,2.25-7.49,3.61-7.49,3.61s-0.92,1.33-2.46,3.68c-7.16,10.91-27.77,43.98-32.44,69.82
					c-0.35,1.95-0.61,3.85-0.77,5.7c-0.26,3-0.25,5.86,0.09,8.52c1,7.9,2.2,15.62,3.54,23.11c0.86,4.75,1.77,9.4,2.73,13.95
					c2.9,13.79,6.23,26.61,9.59,38.09c0.01,0.04,0.02,0.08,0.03,0.11c10.07,34.43,20.44,56.8,20.69,57.36
					c0.01,0.01,0.01,0.01,0.01,0.01c-2.55,1.52-2.46,80.28-1.05,191.09c0.46,36.12,1.06,75.66,1.75,117.03
					c1.21,72.48,2.72,150.6,4.26,225.95H764.46c5.02-76.6,11.24-158.51,18.86-239.59c3.73-39.75,7.81-79.3,12.24-117.93
					c13.84-120.49,31.2-231.99,52.84-312.52c8.31-30.91,24.62-54.48,46.08-74.01c9.92-9.04,20.95-17.21,32.79-24.84
					c4.89-3.15,9.93-6.22,15.08-9.2c9.98-5.8,20.4-11.34,31.13-16.78c3.69-1.88,7.42-3.75,11.19-5.61
					c8.52-4.22,17.2-8.42,25.97-12.68c0,0,0.03-0.02,0.08-0.04c9.05-4.39,18.19-8.85,27.35-13.46c1.78-0.9,3.45-1.62,5.02-2.18
					c0.23-0.08,0.46-0.15,0.69-0.23c1.59-0.53,3.07-0.89,4.43-1.08c0.19-0.03,0.38-0.06,0.56-0.08
					C1064.14,1167.99,1065.14,1186.83,1055.86,1205.46z"/>
			</g>
			<path style="fill:#FCB5A7;" d="M1048.775,1169.772c0,0,3.756,9.854-8.353,21.801c-12.109,11.948-20.527,13.244-20.527,13.244
				s-3.699-10.546-9.251-17.975C1010.644,1186.843,1037.109,1171.27,1048.775,1169.772z"/>
		</g>
		<path style="fill:#E57D61;" d="M1063.98,1392.297c0,0-46.067,0.88-75.291,16.26c0,0-4.692-16.506-9.619-38.197L1063.98,1392.297z"
			/>
		<path style="fill:#E57D61;" d="M927.268,1151.021c0,0-21.603,58.649-33.059,106.036c0,0,14.814-14.24,33.059-25.417V1151.021z"/>
		<path style="fill:#EB5648;" d="M1056.7,2000H693.92c10.04-88.08,22.17-175.59,36.16-243.16c1.24-5.97,2.52-11.68,3.85-17.14
			c15.68-64.73,37.27-93.67,61.63-97.22c0,0,88.81,40.6,212.78,14.54c0,0,34.7,11.31,40.98,105.72
			C1051.67,1798.06,1054.32,1893.89,1056.7,2000z"/>
		<g>
			<g>
				<path style="fill:#F99370;" d="M1591.66,1657.02c1.41-110.81,1.5-189.57-1.05-191.09c0,0,0,0,0.01-0.01
					c0.25-0.56,10.62-22.93,20.69-57.36c0.01-0.03,0.02-0.07,0.03-0.11c3.36-11.48,6.69-24.3,9.59-38.09
					c0.96-4.55,1.87-9.2,2.73-13.95c1.34-7.49,2.54-15.21,3.54-23.11c0.34-2.66,0.35-5.52,0.09-8.52c-0.16-1.85-0.42-3.75-0.77-5.7
					c-4.67-25.84-25.28-58.91-32.44-69.82c-1.54-2.35-2.46-3.68-2.46-3.68s-3.54-1.57-8.48-4.13c-3.11-1.61-6.79-3.61-10.48-5.88
					c-3.59-2.19-7.2-4.62-10.34-7.17c-8.08-6.55-14.39-15.1-18.52-23.63c-8.91-18.4-7.75-36.76,7.43-35
					c1.5,0.17,3.14,0.55,4.93,1.14c0.14,0.04,0.29,0.09,0.43,0.14c1.66,0.58,3.44,1.33,5.34,2.29c8.77,4.42,17.53,8.69,26.2,12.9
					c0.01,0.01,0.02,0.01,0.02,0.01c9.18,4.47,18.27,8.86,27.18,13.27c3.77,1.86,7.5,3.73,11.19,5.61
					c10.73,5.44,21.15,10.98,31.13,16.78c5.15,2.98,10.19,6.05,15.08,9.2c11.84,7.63,22.87,15.8,32.79,24.84
					c21.46,19.53,37.77,43.1,46.08,74.01c21.64,80.53,39,192.03,52.84,312.52c4.45,38.79,8.54,78.52,12.29,118.44
					c7.6,80.91,13.8,162.64,18.81,239.08h-249.89c1.55-75.77,3.06-154.36,4.28-227.18
					C1590.61,1731.9,1591.2,1692.79,1591.66,1657.02z"/>
			</g>
			<path style="fill:#FCB5A7;" d="M1551.225,1169.772c0,0-3.756,9.854,8.353,21.801c12.109,11.948,20.527,13.244,20.527,13.244
				s2.489-11.134,8.042-18.563C1588.146,1186.255,1562.891,1171.27,1551.225,1169.772z"/>
		</g>
		<path style="fill:#E57D61;" d="M1536.02,1392.297c0,0,46.067,0.88,75.291,16.26c0,0,4.692-16.506,9.619-38.197L1536.02,1392.297z"
			/>
		<path style="fill:#E57D61;" d="M1672.732,1151.021c0,0,21.603,58.649,33.059,106.036c0,0-14.814-14.24-33.059-25.417V1151.021z"/>
		<path style="fill:#EB5648;" d="M1906.08,2000H1543.3c2.38-106.11,5.03-201.94,7.38-237.26c6.28-94.41,40.98-105.72,40.98-105.72
			c123.97,26.06,212.78-14.54,212.78-14.54c24.36,3.55,45.95,32.49,61.63,97.22c1.33,5.46,2.61,11.17,3.85,17.14
			C1883.91,1824.41,1896.04,1911.92,1906.08,2000z"/>
		<path style="fill:#FCB4B4;" d="M1300,1413.371c-2.659,0-4.815-2.155-4.815-4.814V847.002c0-2.659,2.156-4.815,4.815-4.815
			s4.814,2.156,4.814,4.815v561.555C1304.814,1411.216,1302.659,1413.371,1300,1413.371z"/>
		<path style="fill:#CE3932;" d="M1049.325,1762.741c-168.205,58.521-315.398-23.044-315.398-23.044
			c15.687-64.723,37.277-93.67,61.631-97.214c0,0,88.807,40.6,212.782,14.541C1008.34,1657.025,1043.036,1668.33,1049.325,1762.741z
			"/>
		<path style="fill:#CE3932;" d="M1866.073,1739.697c-152.499,79.726-315.398,23.044-315.398,23.044
			c6.288-94.411,40.985-105.717,40.985-105.717c123.975,26.058,212.782-14.541,212.782-14.541
			C1828.796,1646.027,1850.386,1674.974,1866.073,1739.697z"/>
	</g>
	<g id="_x35_">
		
			<rect x="1617.864" y="363.802" transform="matrix(0.3402 -0.9403 0.9403 0.3402 718.7008 1957.3511)" style="fill:#EB5648;" width="272.693" height="205.417"/>
		<polygon style="fill:#CE3932;" points="1891.529,353.618 1897.181,373.242 1804.403,629.667 1798.751,610.044 		"/>
		<polygon style="fill:#FFDCDC;" points="1798.751,610.044 1610.107,541.79 1613.479,553.591 1802.573,623.313 		"/>
		
			<rect x="1612.212" y="344.178" transform="matrix(0.3402 -0.9403 0.9403 0.3402 733.4249 1939.0892)" style="fill:#EB5648;" width="272.693" height="205.417"/>
		<path style="fill:#CE3932;" d="M1860.859,399.565c-0.258,0-0.521-0.044-0.776-0.137c-1.187-0.429-1.8-1.738-1.371-2.924
			l12.184-33.673l-39.342-14.234c-1.187-0.429-1.8-1.738-1.371-2.924c0.43-1.186,1.741-1.8,2.924-1.37l41.489,15.011
			c1.187,0.429,1.8,1.738,1.371,2.924l-12.96,35.82C1862.67,398.987,1861.793,399.565,1860.859,399.565z"/>
		<path style="fill:#CE3932;" d="M1790.163,594.96c-0.263,0-0.525-0.045-0.776-0.136l-32.674-11.822
			c-1.187-0.429-1.8-1.738-1.37-2.924c0.429-1.186,1.739-1.801,2.923-1.37l30.527,11.045l11.878-32.832
			c0.43-1.186,1.741-1.799,2.924-1.37c1.187,0.429,1.8,1.738,1.371,2.924l-12.655,34.979c-0.206,0.569-0.63,1.034-1.179,1.29
			C1790.826,594.888,1790.495,594.96,1790.163,594.96z"/>
		<path style="fill:#CE3932;" d="M1656.689,546.669c-0.258,0-0.521-0.044-0.776-0.137l-33.39-12.081
			c-0.57-0.206-1.034-0.63-1.291-1.178c-0.257-0.548-0.285-1.177-0.079-1.746l12.386-34.21c0.429-1.186,1.735-1.799,2.924-1.37
			c1.186,0.429,1.799,1.739,1.369,2.924l-11.608,32.063l31.242,11.304c1.187,0.429,1.8,1.738,1.37,2.924
			C1658.5,546.091,1657.623,546.669,1656.689,546.669z"/>
		<path style="fill:#CE3932;" d="M1695.133,336.183c-0.258,0-0.521-0.044-0.777-0.137c-1.186-0.43-1.799-1.739-1.369-2.924
			l11.873-32.793c0.428-1.185,1.739-1.8,2.923-1.37l37.17,13.448c1.187,0.429,1.8,1.738,1.371,2.924
			c-0.431,1.186-1.742,1.798-2.924,1.37l-35.023-12.671l-11.097,30.647C1696.943,335.605,1696.066,336.183,1695.133,336.183z"/>
		<path style="fill:#F49F9F;" d="M1710.631,551.761l-0.014-0.005c-40.147-14.526-60.912-58.85-46.378-98.993l23.309-64.38
			c14.53-40.131,58.837-60.889,98.972-46.368h0c40.141,14.523,60.907,58.837,46.384,98.977l-23.295,64.385
			C1795.085,545.518,1750.772,566.284,1710.631,551.761z"/>
		<path style="fill:#DD4A43;" d="M1806.633,447.643c-0.258,0-0.521-0.044-0.776-0.137l-103.144-37.318
			c-1.187-0.429-1.8-1.738-1.37-2.924c0.429-1.186,1.74-1.801,2.923-1.37l103.144,37.318c1.187,0.429,1.8,1.738,1.37,2.924
			C1808.443,447.065,1807.566,447.643,1806.633,447.643z"/>
		<path style="fill:#DD4A43;" d="M1799.362,467.736c-0.258,0-0.521-0.044-0.776-0.137l-103.144-37.318
			c-1.187-0.429-1.8-1.738-1.37-2.924c0.429-1.186,1.74-1.801,2.923-1.37l103.144,37.318c1.187,0.429,1.8,1.738,1.37,2.924
			C1801.173,467.159,1800.296,467.736,1799.362,467.736z"/>
		<path style="fill:#DD4A43;" d="M1792.126,487.738c-0.258,0-0.521-0.044-0.776-0.137l-103.144-37.318
			c-1.187-0.429-1.8-1.738-1.37-2.924c0.429-1.186,1.74-1.799,2.923-1.37l103.144,37.318c1.187,0.429,1.8,1.738,1.37,2.924
			C1793.937,487.161,1793.06,487.738,1792.126,487.738z"/>
	</g>
	<g id="_x34_">
		
			<rect x="1228.269" y="1642.06" transform="matrix(0.933 -0.36 0.36 0.933 -540.7589 587.189)" style="fill:#092444;" width="155.843" height="206.882"/>
		<polygon style="fill:#092444;" points="1200.23,1662.068 1196.257,1677.043 1270.727,1870.057 1274.7,1855.083 		"/>
		<polygon style="fill:#FFDCDC;" points="1274.7,1855.083 1416.695,1800.297 1414.326,1809.302 1272.014,1865.209 		"/>
		
			<rect x="1232.242" y="1627.085" transform="matrix(0.933 -0.36 0.36 0.933 -535.1021 587.6154)" style="fill:#1D3F70;" width="155.843" height="206.883"/>
		<path style="fill:#3A72AA;" d="M1224.191,1696.429c-0.695,0-1.351-0.421-1.617-1.109l-10.403-26.963
			c-0.344-0.892,0.1-1.895,0.993-2.239l31.229-12.049c0.893-0.344,1.895,0.1,2.24,0.993c0.344,0.892-0.1,1.895-0.993,2.239
			l-29.613,11.425l9.779,25.348c0.344,0.892-0.1,1.895-0.993,2.239C1224.609,1696.392,1224.398,1696.429,1224.191,1696.429z"/>
		<path style="fill:#3A72AA;" d="M1280.938,1843.505c-0.695,0-1.351-0.421-1.617-1.108l-10.159-26.328
			c-0.344-0.893,0.1-1.896,0.993-2.24c0.894-0.344,1.895,0.1,2.24,0.992l9.535,24.713l22.978-8.865
			c0.887-0.344,1.894,0.101,2.239,0.993c0.344,0.892-0.101,1.895-0.993,2.239l-24.593,9.488
			C1281.355,1843.468,1281.145,1843.505,1280.938,1843.505z"/>
		<path style="fill:#3A72AA;" d="M1381.404,1804.742c-0.695,0-1.351-0.421-1.616-1.108c-0.344-0.893,0.101-1.896,0.993-2.24
			l23.516-9.073l-9.317-24.134c-0.345-0.893,0.1-1.896,0.992-2.24c0.888-0.344,1.896,0.099,2.24,0.992l9.941,25.75
			c0.165,0.429,0.153,0.905-0.032,1.325c-0.187,0.421-0.532,0.749-0.961,0.915l-25.132,9.697
			C1381.823,1804.705,1381.612,1804.742,1381.404,1804.742z"/>
		<path style="fill:#3A72AA;" d="M1348.88,1645.704c-0.694,0-1.351-0.421-1.616-1.108l-8.905-23.067l-26.363,10.171
			c-0.887,0.345-1.894-0.099-2.239-0.993c-0.344-0.893,0.101-1.895,0.993-2.239l27.979-10.794c0.884-0.343,1.894,0.099,2.239,0.992
			l9.529,24.683c0.345,0.893-0.1,1.896-0.992,2.24C1349.299,1645.667,1349.088,1645.704,1348.88,1645.704z"/>
		<path style="fill:#F49F9F;" d="M1340.607,1809.467l0.011-0.004c30.219-11.659,45.261-45.611,33.595-75.827l-18.709-48.459
			c-11.662-30.207-45.601-45.244-75.811-33.588l0,0c-30.214,11.657-45.257,45.601-33.6,75.815l18.698,48.463
			C1276.449,1806.082,1310.393,1821.125,1340.607,1809.467z"/>
		<path style="fill:#1D3F70;" d="M1266.09,1732.028c-0.695,0-1.351-0.421-1.617-1.109c-0.344-0.892,0.1-1.895,0.993-2.239
			l77.638-29.954c0.886-0.343,1.895,0.101,2.239,0.993c0.344,0.892-0.101,1.895-0.993,2.239l-77.637,29.954
			C1266.508,1731.991,1266.297,1732.028,1266.09,1732.028z"/>
		<path style="fill:#1D3F70;" d="M1271.926,1747.153c-0.695,0-1.351-0.421-1.617-1.109c-0.344-0.892,0.1-1.895,0.993-2.239
			l77.638-29.955c0.887-0.344,1.895,0.099,2.239,0.993c0.344,0.892-0.101,1.895-0.993,2.239l-77.637,29.955
			C1272.344,1747.116,1272.133,1747.153,1271.926,1747.153z"/>
		<path style="fill:#1D3F70;" d="M1277.735,1762.209c-0.695,0-1.351-0.422-1.617-1.109c-0.344-0.892,0.1-1.895,0.993-2.239
			l77.638-29.954c0.887-0.343,1.894,0.099,2.239,0.993c0.344,0.892-0.101,1.895-0.993,2.239l-77.637,29.954
			C1278.153,1762.172,1277.942,1762.209,1277.735,1762.209z"/>
	</g>
	<g id="_x33_">
		
			<rect x="935.783" y="255.22" transform="matrix(0.9139 -0.406 0.406 0.9139 -80.8944 468.3847)" style="fill:#1D3F70;" width="255.588" height="339.296"/>
		<polygon style="fill:#23659B;" points="883.199,296.859 877.915,321.712 1015.663,631.788 1020.948,606.934 		"/>
		<polygon style="fill:#FFDCDC;" points="1020.948,606.934 1250.373,505.014 1245.916,520.541 1017.375,623.74 		"/>
		<g>
			
				<rect x="941.068" y="230.366" transform="matrix(0.9139 -0.406 0.406 0.9139 -70.3492 468.3902)" style="fill:#3A72AA;" width="255.588" height="339.296"/>
			<path style="fill:#1D3F70;" d="M1113.135,202.557l131.927,296.971l-220.473,97.943L892.662,300.5L1113.135,202.557
				L1113.135,202.557z M1116.776,193.094L883.199,296.859l137.749,310.076l233.577-103.765L1116.776,193.094L1116.776,193.094z"/>
		</g>
		<polygon style="fill:#CE3932;" points="1179.722,589.417 1198.74,580.857 1181.329,540.382 1162.526,548.63 		"/>
		<path style="fill:#1D3F70;" d="M939.516,348.617c-1.088,0-2.127-0.629-2.598-1.688c-4.287-9.65-4.559-20.391-0.767-30.246
			c3.792-9.854,11.195-17.642,20.844-21.929c1.434-0.637,3.113,0.009,3.749,1.443c0.637,1.434-0.009,3.113-1.443,3.75
			c-17.057,7.577-24.769,27.618-17.192,44.675c0.637,1.434-0.009,3.113-1.443,3.75C940.292,348.538,939.901,348.617,939.516,348.617
			z"/>
		<path style="fill:#1D3F70;" d="M1115.275,270.528c-1.088,0-2.127-0.628-2.597-1.688c-7.581-17.051-27.62-24.759-44.673-17.184
			c-1.435,0.637-3.112-0.009-3.75-1.443c-0.637-1.434,0.009-3.112,1.443-3.749c19.916-8.846,43.319,0.155,52.171,20.069
			c0.638,1.434-0.008,3.112-1.442,3.75C1116.053,270.45,1115.661,270.528,1115.275,270.528z"/>
		<path style="fill:#1D3F70;" d="M1179.567,505.513c-1.088,0-2.127-0.629-2.598-1.688c-0.637-1.434,0.009-3.112,1.443-3.749
			c8.264-3.671,14.603-10.341,17.85-18.781c3.247-8.44,3.012-17.639-0.661-25.902c-0.638-1.434,0.008-3.112,1.442-3.75
			c1.434-0.637,3.113,0.009,3.75,1.442c4.29,9.65,4.564,20.393,0.772,30.249c-3.792,9.856-11.194,17.646-20.846,21.934
			C1180.344,505.435,1179.953,505.513,1179.567,505.513z"/>
		<path style="fill:#1D3F70;" d="M1055.94,557.002c-4.796,0-9.6-0.884-14.21-2.659c-9.854-3.792-17.643-11.195-21.929-20.844
			c-0.637-1.434,0.009-3.112,1.443-3.75c1.434-0.638,3.112,0.009,3.749,1.443c3.67,8.263,10.339,14.601,18.777,17.848
			c8.439,3.247,17.635,3.014,25.898-0.657c1.434-0.638,3.112,0.009,3.75,1.443c0.637,1.434-0.009,3.112-1.443,3.75
			C1066.841,555.857,1061.396,557.002,1055.94,557.002z"/>
		<g>
			<path style="fill:#1D3F70;" d="M1003.369,418.457c-1.088,0-2.127-0.629-2.598-1.688c-0.637-1.434,0.009-3.112,1.443-3.75
				l124.724-55.408c1.435-0.638,3.112,0.009,3.75,1.443c0.637,1.434-0.009,3.112-1.443,3.75l-124.724,55.408
				C1004.146,418.378,1003.754,418.457,1003.369,418.457z"/>
			<path style="fill:#1D3F70;" d="M1014.163,442.754c-1.088,0-2.127-0.629-2.598-1.688c-0.637-1.434,0.009-3.112,1.443-3.75
				l124.724-55.408c1.434-0.636,3.112,0.009,3.75,1.443c0.637,1.434-0.009,3.112-1.443,3.749l-124.724,55.408
				C1014.94,442.676,1014.548,442.754,1014.163,442.754z"/>
		</g>
	</g>
	<g id="_x32_">
		<g>
			<path style="fill:#F99370;" d="M2365.183,1181.486l-249.856,193.148c0,0,11.917,69.169,65.63,151.892l183.244,1.819
				C2364.201,1528.344,2406.012,1330.417,2365.183,1181.486z"/>
		</g>
		
			<rect x="1884.865" y="882.954" transform="matrix(0.3318 -0.9434 0.9434 0.3318 414.3837 2784.106)" style="fill:#CE4ABF;" width="575.075" height="433.198"/>
		<polygon style="fill:#A523A2;" points="2459.841,858.888 2472.131,900.164 2281.336,1442.666 2269.046,1401.391 		"/>
		<path style="fill:#E57D61;" d="M2117.619,1385.088c0,0,58.397,31.96,91.055,63.553l35.073-19.194L2117.619,1385.088z"/>
		<polygon style="fill:#FFDCDC;" points="2269.046,1401.391 1874.324,1262.569 1877.279,1285.851 2269.038,1426.318 		"/>
		<g>
			
				<rect x="1872.575" y="841.678" transform="matrix(0.3318 -0.9434 0.9434 0.3318 445.1083 2744.9307)" style="fill:#CE4ABF;" width="575.075" height="433.198"/>
			<path style="fill:#F49F9F;" d="M2058.612,730.659l385.734,135.661l-182.732,519.575l-385.734-135.661L2058.612,730.659
				L2058.612,730.659z M2051.18,715.165l-190.795,542.502l408.661,143.724l190.795-542.502L2051.18,715.165L2051.18,715.165z"/>
		</g>
		<polygon style="fill:#6B0964;" points="1998.428,1393.267 1965.14,1381.375 1989.083,1310.638 2021.965,1322.031 		"/>
		<path style="fill:#A523A2;" d="M2197.899,1321.973c-7.49,0.001-15.004-1.271-22.279-3.83l-190.257-66.912
			c-16.885-5.938-30.446-18.097-38.185-34.236c-7.739-16.14-8.729-34.326-2.787-51.211l114.872-326.396
			c12.262-34.842,50.589-53.217,85.429-40.962l190.186,66.887c34.852,12.257,53.232,50.583,40.976,85.434l-114.8,326.42
			c-5.938,16.883-18.094,30.442-34.23,38.182C2217.641,1319.753,2207.791,1321.973,2197.899,1321.973z M2122.518,804.256
			c-23.67,0-45.878,14.766-54.17,38.329l-114.872,326.395c-5.088,14.457-4.24,30.03,2.386,43.85
			c6.627,13.82,18.239,24.231,32.697,29.316l190.257,66.912c14.459,5.085,30.027,4.233,43.844-2.393
			c13.816-6.627,24.227-18.238,29.311-32.694l114.8-326.42c10.495-29.842-5.244-62.659-35.087-73.155l-190.186-66.887
			C2135.226,805.304,2128.817,804.256,2122.518,804.256z"/>
		<g>
			<path style="fill:#F99370;" d="M2403.18,2000h-281.81c5.876-46.693,51.822-411.734,56.33-447.61c0,0,0,0,0.01,0
				c7.959-34.643-6.743-42.63,30.956-103.751c9.672-13.853,17.552-18.028,30.734-32.948c25.597-33.733,40.751-65.806,41.34-127.601
				c-13.079-15.732-17.886-46.698-4.06-69.86c25.481-41.07,34.867,2.757,42.279,25.01c11.255,34.249,20.314,67.047,26.871,102.33
				C2373.044,1558.623,2380.024,1767.298,2403.18,2000z"/>
		</g>
		<path style="fill:#FCB5A7;" d="M2304.261,1205.469c0,0-9.542,4.489-9.114,21.494c0.428,17.005,5.591,23.78,5.591,23.78
			s9.122-5.828,18.274-7.325C2319.013,1243.419,2311.622,1214.642,2304.261,1205.469z"/>
		<path style="fill:#E57D61;" d="M2333.927,1293.131c0,0,6.952,22.544,11.901,52.44c0,0,21.113-70.09,22.726-150.897
			L2333.927,1293.131z"/>
		<path style="fill:#A523A2;" d="M2308.108,984.822c-0.53,0-1.069-0.088-1.598-0.274l-218.215-76.745
			c-2.509-0.882-3.827-3.631-2.944-6.14c0.882-2.509,3.632-3.827,6.14-2.945l218.215,76.745c2.509,0.882,3.827,3.631,2.944,6.14
			C2311.954,983.583,2310.095,984.822,2308.108,984.822z"/>
		<path style="fill:#A523A2;" d="M2293.157,1027.334c-0.53,0-1.069-0.088-1.598-0.274l-218.214-76.745
			c-2.509-0.882-3.827-3.631-2.944-6.14c0.882-2.509,3.633-3.829,6.14-2.944l218.214,76.745c2.509,0.882,3.827,3.631,2.944,6.14
			C2297.003,1026.095,2295.144,1027.334,2293.157,1027.334z"/>
		<path style="fill:#A523A2;" d="M2278.274,1069.65c-0.53,0-1.069-0.088-1.598-0.274l-218.214-76.744
			c-2.509-0.882-3.827-3.631-2.944-6.14c0.882-2.509,3.632-3.827,6.14-2.944l218.214,76.744c2.509,0.882,3.827,3.631,2.944,6.14
			C2282.12,1068.411,2280.261,1069.65,2278.274,1069.65z"/>
		<path style="fill:#F4D4BE;" d="M2169.337,1618.852l8.365-66.465c0,0,89.822,30.401,188.284-0.989l5.82,72.836
			C2371.806,1624.235,2283.492,1678.897,2169.337,1618.852z"/>
		<path style="fill:#1D3F70;" d="M2429.87,2000h-354.66c26.67-140.68,61.2-299.4,94.13-381.15c0,0,0.01,0,0.03,0.01
			c1.9,0.89,89.86,41.17,202.44,5.38C2371.81,1624.24,2404.17,1690.46,2429.87,2000z"/>
		<circle style="fill:#1D3F70;" cx="2194.787" cy="1593" r="10.213"/>
	</g>
	<g id="_x31_">
		<g>
			<path style="fill:#F99370;" d="M260.84,940.205l256.326,184.476c0,0-9.541,69.537-60.389,154.051l-183.074,8.095
				C273.702,1286.827,225.136,1090.448,260.84,940.205z"/>
		</g>
		
			<rect x="234.101" y="564.179" transform="matrix(0.9314 -0.3639 0.3639 0.9314 -279.0336 222.399)" style="fill:#9358E0;" width="433.198" height="575.075"/>
		<polygon style="fill:#7640CC;" points="155.187,621.039 144.318,662.711 353.583,1198.36 364.452,1156.688 		"/>
		<path style="fill:#E57D61;" d="M515.232,1135.208c0,0-57.267,33.941-88.825,66.634l-35.71-17.982L515.232,1135.208z"/>
		<polygon style="fill:#FFDCDC;" points="364.452,1156.688 754.188,1004.428 752.032,1027.797 365.314,1181.601 		"/>
		
			<rect x="244.97" y="522.507" transform="matrix(0.9314 -0.3639 0.3639 0.9314 -263.1244 223.4971)" style="fill:#9358E0;" width="433.198" height="575.075"/>
		<path style="fill:#1D3F70;" d="M381.633,1124.434c-1.925,0-3.743-1.163-4.486-3.064L188.455,638.381
			c-0.465-1.19-0.438-2.515,0.075-3.684c0.512-1.17,1.469-2.088,2.658-2.553l348.457-136.133c2.475-0.967,5.268,0.255,6.236,2.732
			L734.679,981.69c0.465,1.189,0.438,2.515-0.074,3.685c-0.513,1.17-1.469,2.088-2.659,2.553l-348.563,136.174
			C382.809,1124.327,382.216,1124.434,381.633,1124.434z M199.177,639.362l185.188,474.018l339.592-132.67L538.665,506.732
			L199.177,639.362z"/>
		<polygon style="fill:#1D3F70;" points="395.296,1088.433 699.005,969.781 527.738,531.678 224.124,650.293 		"/>
		<g>
			<path style="fill:#F99370;" d="M572.77,2000H238.66c5.956-116.093,13.437-262.927,20.9-413.9
				c5.662-115.096,9.851-200.05,14.15-299.27c2.593-87.865,5.714-170.911,22.19-236.12c3.789-16.475,8.45-33.87,13.38-50.79
				c4.27-11.983,6.188-27.087,13.439-37.75c14.374-15.927,33.49,16.575,35.95,32.49c5.012,15.878-1.717,38.405-9.789,49.19
				c2.708,61.754,18.941,93.273,45.688,126.111c13.664,14.472,21.712,18.371,31.832,31.879h0.01
				c40.226,60.808,25.195,68.194,34.754,104.129C490.32,1487.294,543.292,1816.624,572.77,2000z"/>
		</g>
		<path style="fill:#FCB5A7;" d="M322.547,962.087c0,0,9.69,4.16,9.845,21.17c0.154,17.01-4.773,23.958-4.773,23.958
			s-9.164-6.033-18.363-7.215C309.256,1000,315.504,971.507,322.547,962.087z"/>
		<path style="fill:#E57D61;" d="M295.902,1050.714c0,0-6.176,22.769-10.097,52.817c0,0-23.501-69.326-27.882-150.03
			L295.902,1050.714z"/>
		<path style="fill:#3A72AA;" d="M629.71,2000H217.32c0.32-8.37,0.68-16.73,1.08-25.08c1.62-33.57,3.87-66.91,6.49-99.14
			c0,0,0,0,0-0.01c3.14-38.68,6.82-75.76,10.58-109.7c4.09-36.85,8.28-70.01,11.99-97.53c6.75-50.06,11.95-81.46,12.1-82.43
			c0-0.01,0-0.01,0-0.01c0.01-0.01,0.01-0.01,0.01-0.01c106.94,40.46,244.58-12.81,244.58-12.81c8.71,26.32,17.39,53.48,25.91,80.79
			c9.55,30.61,18.89,61.41,27.83,91.46c10.87,36.59,21.13,72.06,30.41,104.67c0,0.01,0,0.01,0,0.02
			c10.21,35.88,19.22,68.31,26.54,94.99C621.17,1968.27,626.23,1987.03,629.71,2000z"/>
		<path style="fill:#7640CC;" d="M308.114,742.312c-1.925,0-3.744-1.163-4.486-3.064c-0.968-2.477,0.256-5.269,2.733-6.237
			l215.457-84.174c2.476-0.965,5.269,0.256,6.237,2.733c0.968,2.477-0.256,5.269-2.733,6.237l-215.457,84.174
			C309.289,742.205,308.696,742.312,308.114,742.312z"/>
		<path style="fill:#7640CC;" d="M324.512,784.286c-1.925,0-3.743-1.163-4.486-3.064c-0.968-2.477,0.256-5.269,2.733-6.237
			l215.457-84.174c2.475-0.967,5.27,0.256,6.237,2.733c0.968,2.477-0.256,5.269-2.733,6.237l-215.457,84.174
			C325.688,784.179,325.095,784.286,324.512,784.286z"/>
		<path style="fill:#7640CC;" d="M340.835,826.068c-1.925,0-3.743-1.163-4.486-3.065c-0.968-2.477,0.256-5.269,2.733-6.237
			l215.457-84.174c2.477-0.968,5.269,0.256,6.237,2.733c0.968,2.477-0.256,5.269-2.733,6.237l-215.457,84.174
			C342.011,825.961,341.418,826.068,340.835,826.068z"/>
		<path style="fill:#1D3F70;" d="M272.449,1315.809c0,0,67.165,33.955,188.706-9.85c0,0,20.362,20.817,6.921,43.035
			c0,0-113.602,47.131-197.654,11.62C270.421,1360.614,251.749,1340.71,272.449,1315.809z"/>
		<path style="fill:#092444;" d="M406.048,1344.817c0.618,2.923-1.25,5.793-4.172,6.412c-2.923,0.618-5.793-1.25-6.412-4.172
			c-0.618-2.923,1.25-5.793,4.172-6.412S405.429,1341.894,406.048,1344.817z"/>
		<path style="fill:#092444;" d="M424.036,1340.446c0.618,2.923-1.25,5.793-4.172,6.412c-2.923,0.618-5.793-1.25-6.412-4.172
			c-0.618-2.923,1.25-5.793,4.172-6.412C420.547,1335.655,423.417,1337.523,424.036,1340.446z"/>
		<path style="fill:#092444;" d="M441.969,1335.813c0.618,2.923-1.25,5.793-4.172,6.412s-5.793-1.25-6.412-4.172
			c-0.618-2.923,1.25-5.793,4.172-6.412C438.48,1331.023,441.351,1332.891,441.969,1335.813z"/>
		<path style="fill:#23659B;" d="M530.07,1654.13c-149.65,58.83-282.34,15.47-282.34,15.47c-0.09-0.35-0.18-0.71-0.27-1.06
			c6.75-50.06,11.95-81.46,12.1-82.43c0.01-0.01,0.01-0.02,0.01-0.02c106.94,40.46,244.58-12.81,244.58-12.81
			c8.71,26.32,17.39,53.48,25.91,80.79C530.07,1654.11,530.07,1654.13,530.07,1654.13z"/>
		<path style="fill:#23659B;" d="M588.3,1850.2c0,0.01,0,0.01,0,0.02c0,0-180.98,68.34-363.41,25.56c0,0,0,0,0-0.01
			c3.14-38.68,6.82-75.76,10.58-109.7c0.01,0,0.01-0.01,0.01-0.01s156.63,53.3,322.39-20.56c0,0,0.01,0.01,0.02,0.03
			C568.76,1782.12,579.02,1817.59,588.3,1850.2z"/>
		<path style="fill:#23659B;" d="M629.71,2000H217.32c0.32-8.37,0.68-16.73,1.08-25.08c0,0,7.6,1.52,21.37,3.43
			c50.05,6.91,181.61,18.88,326.51-18.74c16.05-4.17,32.27-8.94,48.56-14.4C621.17,1968.27,626.23,1987.03,629.71,2000z"/>
	</g>
</g>
</svg>
