<?xml version="1.0" encoding="utf-8"?>
<!-- Generator: Adobe Illustrator 27.5.0, SVG Export Plug-In . SVG Version: 6.00 Build 0)  -->
<svg version="1.1" id="Capa_1" xmlns="http://www.w3.org/2000/svg" xmlns:xlink="http://www.w3.org/1999/xlink" x="0px" y="0px"
	 viewBox="0 0 2122 2122" style="enable-background:new 0 0 2122 2122;" xml:space="preserve">
<g>
	<g>
		<linearGradient id="SVGID_1_" gradientUnits="userSpaceOnUse" x1="1060.6641" y1="18.1405" x2="1060.6641" y2="831.5256">
			<stop  offset="0" style="stop-color:#6BCDE6"/>
			<stop  offset="1" style="stop-color:#EFF3C3"/>
		</linearGradient>
		<rect x="0.004" y="0.012" style="fill:url(#SVGID_1_);" width="2121.32" height="2039.469"/>
		<polygon style="opacity:0.2;fill:#FFFFFF;" points="2121.324,46.363 0.004,79.832 0.004,208.605 2121.324,104.184 		"/>
		<polygon style="opacity:0.2;fill:#FFFFFF;" points="2121.324,130.719 0.004,270.152 0.004,341.641 2121.324,143.852 		"/>
	</g>
	<g>
		<g>
			
				<linearGradient id="SVGID_00000129175230955591342000000004097925699480881552_" gradientUnits="userSpaceOnUse" x1="1060.6641" y1="18.1405" x2="1060.6641" y2="831.5256">
				<stop  offset="0" style="stop-color:#6BCDE6"/>
				<stop  offset="1" style="stop-color:#EFF3C3"/>
			</linearGradient>
			
				<rect x="0.004" y="0.012" style="fill:url(#SVGID_00000129175230955591342000000004097925699480881552_);" width="2121.32" height="2039.469"/>
			<polygon style="opacity:0.2;fill:#FFFFFF;" points="2121.324,46.359 0.004,79.828 0.004,208.602 2121.324,104.18 			"/>
			<polygon style="opacity:0.2;fill:#FFFFFF;" points="2121.324,130.715 0.004,270.152 0.004,341.641 2121.324,143.852 			"/>
		</g>
		<g>
			<polygon style="fill:#97C1C6;" points="1824.77,1715.219 1824.77,1245.777 1726.777,1245.777 1726.777,1037.5 1448.723,1037.5 
				1448.723,819.344 1281.367,819.344 1281.367,506.418 1125.223,506.418 1125.223,881.223 924.195,881.223 924.195,698.59 
				719.656,698.59 719.656,991.254 561.059,991.254 561.059,859.269 345.777,859.269 345.777,599.031 82.871,599.031 
				82.871,852.793 0.004,852.793 0.004,1715.219 150.504,1749.098 150.504,1700.523 323.238,1700.523 323.238,1749.098 			"/>
			<polygon style="fill:#97C1C6;" points="2121.324,855.981 1957.414,855.981 1957.414,1074.133 1679.363,1074.133 
				1679.363,1282.406 1581.379,1282.406 1581.379,1751.852 2121.324,1751.852 			"/>
		</g>
		<path style="fill:#7E7F2F;" d="M2121.324,1524.703c-24.441-62.703-113.918,31-113.918,31c-103.781-149.012-188,32.113-188,32.113
			c-98.371-86.391-169.859,47.746-169.859,47.746c24.555-59.801-14.184-92.121-14.184-92.121
			c-54.891-41.992-111.391,98.172-111.391,98.172c-15.941-105.191-118.348-93.289-118.348-93.289
			c-35.031-1.215-98.504,6.637-127.594,73.641c0,0-68.887-97.941-96.266,0c0,0-111.215-64.492-142.188,69.105
			c0,0-28.359-102.598-102.402-63.688c0,0-74.75-169.07-162.375-15.586c0,0-102.992-26.934-129.406,79.336
			c0,0-12.793-177.348-133.055-103.047c0,0-67.516-181.844-176.539-17.605c0,0-139.586-275.688-237.691-33.234
			c0,0-65.477-40.625-98.105,1.32v243.199c96.953,15.613,1302.117,59.102,1405.621,57.203l715.699,48.043V1524.703z"/>
		<path style="fill:#666829;" d="M2121.324,1612.695c-10.863-16.828-63.676-95.301-95.551-82.242
			c-35.648,14.609-23.23,125.398-23.23,125.398c-94.719-109.629-168.645,29.902-168.645,29.902
			c39.16-168.582-97.98-75.527-97.98-75.527c-78.492-69.578-128.953,35.168-128.953,35.168
			c-22.582-149.102-131.48-41.543-131.48-41.543c-86.207-71.387-69.859,82.711-69.859,82.711c-22.277-6.438-47.66,8.418-47.66,8.418
			c3.898-129.137-60.938-57.27-60.938-57.27c-57.051-135.551-142.629,9.289-142.629,9.289c-55.754-34.375-94.66,65.855-94.66,65.855
			c-9.078-48.5-63.047-27.324-63.047-27.324c-21.559-145.418-134.043-56.922-134.043-56.922
			c-75.211-78.191-118.621,75.516-118.621,75.516c-61.566-47.652-97.84,30.547-97.84,30.547
			c-38.828-134.402-105.102-49.141-105.102-49.141c-133.555-283.262-293.172,0-293.172,0s0.047-57.621-56.313-155.918
			c-56.387-98.289-131.578,149.137-131.578,149.137c-8.418-51.086-35.25-78.637-60.019-93.43v200.43
			c212.539,8.613,1211.605,45.516,1405.621-12.93c0,0,382.152,13.895,715.699,23.965V1612.695z"/>
		<g>
			<path style="fill:#304921;" d="M318.152,1304.008l-41.973-66.223l-238.547-32.313c0,0-18.578,11.023-37.629,24.902V1291
				c23.074,2.172,40.051-2.258,40.051-2.258s-29.953,36.488,0,35.637c0,0-10.113,100.938,64.629,29.086
				c0,0,3.055,61.469,44.711,18.82c0,0,35.434,53.031,59.336-8.555c0,0,26.973,81.027,43.148-5.254c0,0,63.191,119.867,50.09-35.805
				L318.152,1304.008z"/>
			<g>
				<path style="fill:#964336;" d="M110.336,1295.008c0,0,40.594,184.199,43.676,199.02l-8.73,183.063c0,0,29.797,11.402,36.977,0
					l-12.844-217.844l59.078-164.238h-6.16c0,0-54.637,148.082-64.203,151.125c-7.199,2.277-41.113-154.539-41.113-154.539
					L110.336,1295.008z"/>
				<polygon style="fill:#5F1A0F;" points="172.609,1513.352 152.34,1528.941 150.402,1569.516 174.359,1543.125 				"/>
				<polygon style="fill:#5F1A0F;" points="177.777,1600.926 176.957,1587.09 148.965,1599.84 147.66,1626.887 				"/>
				<path style="fill:#5F1A0F;" d="M139.539,1427.723l7.844-9.25c-1.258-4.43-2.555-9.227-3.879-14.305l-8.789,1.609
					C136.367,1413.23,137.973,1420.602,139.539,1427.723z"/>
				<path style="fill:#5F1A0F;" d="M120.77,1342.34c0.965,4.469,2.004,9.121,3.051,13.914l6.621-5.195
					c-0.688-2.949-1.375-5.859-2.043-8.719H120.77z"/>
				<path style="fill:#5F1A0F;" d="M188.195,1383.477c-2.738,6.746-5.453,13.348-8.098,19.594l10.645-3.133l5.664-15.703
					L188.195,1383.477z"/>
				<polygon style="fill:#5F1A0F;" points="179.914,1637.035 146.418,1653.27 145.789,1666.461 180.449,1646.34 				"/>
			</g>
			<path style="fill:#59833A;" d="M364.801,1196.922c50.484-61.59-20.105-66.723-20.105-66.723s26.621-15.398,24.105-42.766
				c-2.516-27.379-55.695,0-55.695,0c-2.758-87.258-75.813-37.637-75.813-37.637s19.984-87.262-6.941-95.816
				c-26.898-8.551-51.836,61.871-51.836,61.871s-7.555-94.375-53.805-105.563c-46.246-11.184-40.785,146.344-40.785,146.344
				c-58.82-35.93-42.492,47.902-42.492,47.902c-47.863-6.84-11.641,42.77-11.641,42.77s-14.047-2.238-29.789,1.746v62.164
				c20.746,9.211,42.914,14.797,42.914,14.797s-46.113,49.609-7.039,82.113c39.109,32.5,101.023-15.395,101.023-15.395
				c-12.473,61.586,38.48,17.098,38.48,17.098c47.586,75.281,79.094-11.969,79.094-11.969s75.238,68.434,98.078,59.879
				c22.848-8.559-20.609-97.508-20.609-97.508C431.324,1289.309,364.801,1196.922,364.801,1196.922z"/>
			<g>
				<path style="fill:#476B32;" d="M289.664,1190.828c0,0-8.578,113.355-87.672,44.988c0,0-44.758,71.523-49.98-4.637
					c0,0-56.336,79.793-111.957,57.563c-8.773-3.492-15.211-8.324-19.855-13.977c-0.406,11.434,3.508,23.23,15.68,33.359
					c39.109,32.5,101.023-15.395,101.023-15.395c-12.473,61.586,38.48,17.098,38.48,17.098
					c47.586,75.281,79.094-11.969,79.094-11.969s75.238,68.434,98.078,59.879c22.848-8.559-20.609-97.508-20.609-97.508
					c63.953,18.711,59.176-12.891,47.676-37.781C339.961,1213.703,289.664,1190.828,289.664,1190.828z"/>
			</g>
		</g>
		<g>
			<path style="fill:#BB4D2C;" d="M426.762,1134.492c0,0,8.793,186.637,51.742,118.371c0,0,44.906,24.914,50.766-43.344
				c0,0,13.664,70.418,68.313,12.996c0,0,21.492,72.602,53.691,4.336c0,0,41.008,41.172,29.289-40.086
				c-11.699-81.266-92.731-102.938-92.731-102.938L426.762,1134.492z"/>
			<path style="fill:#582B43;" d="M664.953,1193.27c0,0,6.832,63.922-18.551,80.18c-25.371,16.254-62.465,42.258-70.277,63.926
				s12.691,369.48,10.723,384.648h-57.578c0,0,32.356-365.145,25.465-380.32c-6.926-15.164-103.516-49.965-105.508-68.254
				c-1.988-18.301-27.32-114.855-26.359-118.113c0.977-3.246,6.832-6.488,6.832-6.488s13.652,98.328,21.469,96.297
				c7.809-2.043,12.691-125.566,12.691-125.566l13.68-11.918c0,0-25.395,161.453-16.594,164.707
				c8.766,3.246,38.059,28.168,43.918,24.918c5.859-3.254-20.504-48.762-15.617-82.344c4.871-33.605,12.68-88.859,12.68-88.859
				l11.512-1.086c0,0-19.32,89.945-13.461,105.102c5.855,15.18,19.535,69.355,19.535,69.355s32.356,18.41,35.223,9.754
				c2.836-8.672-19.602-92.098-17.664-106.199c1.949-14.074,7.246-51.992,7.246-51.992l10.418-9.766c0,0-9.84,56.359-5.949,66.102
				c3.906,9.758,13.668,110.523,19.527,106.188c5.859-4.332,31.242-26,34.168-35.754c2.926-9.754,1.949-101.934,1.949-101.934
				l10.738-8.586c0,0-8.793,117.016-0.981,110.52c7.809-6.5,41-14.356,39.055-32.641c-1.969-18.293,2.914-64.879,2.914-64.879
				L664.953,1193.27z"/>
			<path style="fill:#582B43;" d="M664.953,1193.27c0,0,6.832,63.922-18.551,80.18c-25.371,16.254-62.465,42.258-70.277,63.926
				s12.691,369.48,10.723,384.648h-57.578c0,0,32.356-365.145,25.465-380.32c-6.926-15.164-103.516-49.965-105.508-68.254
				c-1.988-18.301-27.32-114.855-26.359-118.113c0.977-3.246,6.832-6.488,6.832-6.488s13.652,98.328,21.469,96.297
				c7.809-2.043,12.691-125.566,12.691-125.566l13.68-11.918c0,0-25.395,161.453-16.594,164.707
				c8.766,3.246,38.059,28.168,43.918,24.918c5.859-3.254-20.504-48.762-15.617-82.344c4.871-33.605,12.68-88.859,12.68-88.859
				l11.512-1.086c0,0-19.32,89.945-13.461,105.102c5.855,15.18,19.535,69.355,19.535,69.355s32.356,18.41,35.223,9.754
				c2.836-8.672-19.602-92.098-17.664-106.199c1.949-14.074,7.246-51.992,7.246-51.992l10.418-9.766c0,0-9.84,56.359-5.949,66.102
				c3.906,9.758,13.668,110.523,19.527,106.188c5.859-4.332,31.242-26,34.168-35.754c2.926-9.754,1.949-101.934,1.949-101.934
				l10.738-8.586c0,0-8.793,117.016-0.981,110.52c7.809-6.5,41-14.356,39.055-32.641c-1.969-18.293,2.914-64.879,2.914-64.879
				L664.953,1193.27z"/>
			<path style="fill:#F7954A;" d="M513.438,750.113c0.469,3.383,13.891-93.188,54.902-88.633
				c30.129,3.351,42.918,90.797,41.965,108.133c0,0,35.133-42.262,48.801-30.34c13.652,11.918,5.848,67.18,0,76.926
				c0,0,15.613-5.414,33.176,0c17.563,5.422,19.539,35.762,13.672,50.934c0,0,53.672-19.504,67.336,9.746
				c13.672,29.254-25.371,52.012-25.371,52.012s54.668-17.344,42.949,34.676c0,0,46.855-20.59,55.644-4.344
				c8.777,16.258-1.961,54.18-33.184,71.516c0,0,39.035,21.668,28.305,45.508c-10.73,23.836-40.031,23.836-48.797,24.918
				c0,0,47.82,32.504,38.066,60.691c-9.773,28.164-85.918,21.672-104.449,7.57c0,0,8.781,46.586-20.5,53.09
				c-29.285,6.512-77.121-23.844-82.004-31.418c0,0-65.402,36.848-73.199-35.762c0,0-61.504,53.102-68.328-39
				c0,0-3.918,34.68-30.277,36.84c0,0,0.984,60.672-36.098,45.496c0,0-42.965,60.691-72.258,43.352
				c-29.273-17.344,0-72.598,0-72.598s-83.945,20.594-79.055-21.672c0,0,3.91-31.418,17.578-61.758c0,0-85.918,21.664-35.137-30.34
				c0,0-87.867-17.34-66.375-53.09c0,0,24.383-47.816,95.648-52.621c0,0-39.047-30.809-21.469-61.152
				c17.57-30.332,60.52-25.996,60.52-25.996s-19.527-42.254,25.367-57.434c0,0-20.488-63.93,0.984-76.93
				c21.465-13,51.73,30.344,51.73,30.344s10.734-35.762,46.867-15.168c0,0,9.754-35.762,32.207-35.762
				C495.098,707.848,508.539,715.434,513.438,750.113z"/>
			<path style="opacity:0.2;fill:#BB4D2C;" d="M830.902,1161.855c9.754-28.188-38.066-60.691-38.066-60.691
				c8.766-1.082,38.066-1.082,48.797-24.918c10.731-23.84-28.305-45.508-28.305-45.508c31.223-17.336,41.961-55.258,33.184-71.516
				c-8.789-16.246-55.644,4.344-55.644,4.344c11.719-52.02-42.949-34.676-42.949-34.676s39.043-22.758,25.371-52.012
				c-13.664-29.25-67.336-9.746-67.336-9.746c5.867-15.172,3.891-45.512-13.672-50.934c-17.563-5.414-33.176,0-33.176,0
				c5.848-9.746,13.652-65.008,0-76.926c-0.191-0.16-0.391-0.277-0.598-0.41c-3.922,44-36.512,120.68-36.512,120.68
				s28.313-10.832,46.867,7.59c18.531,18.414-20.488,58.504-20.488,58.504s30.242,5.422,34.309,40.09
				c4.059,34.676-65.57,44.422-65.57,44.422c-10.738,82.352-81.98,4.336-81.98,4.336c0,69.344-59.543,43.352-59.543,43.352
				c-45.891,82.332-56.629-3.262-56.629-3.262s-25.379,48.762-60.516,58.512c-35.133,9.758-6.816-72.594-6.816-72.594
				c-64.422,55.258-58.582-13.004-58.582-13.004c-65.988,10.051-66.356-36.031-59.133-68.266
				c-38.777,15.281-53.113,43.344-53.113,43.344c-21.492,35.75,66.375,53.09,66.375,53.09c-50.781,52.004,35.137,30.34,35.137,30.34
				c-13.668,30.34-17.578,61.758-17.578,61.758c-4.891,42.266,79.055,21.672,79.055,21.672s-29.273,55.254,0,72.598
				c29.293,17.34,72.258-43.352,72.258-43.352c37.082,15.176,36.098-45.496,36.098-45.496c26.359-2.16,30.277-36.84,30.277-36.84
				c6.824,92.102,68.328,39,68.328,39c7.797,72.609,73.199,35.762,73.199,35.762c4.883,7.574,52.719,37.93,82.004,31.418
				c29.281-6.504,20.5-53.09,20.5-53.09C744.984,1183.527,821.129,1190.02,830.902,1161.855z"/>
			<path style="fill:#38122B;" d="M574.34,1371.633c-0.016-9.969,0.133-18.18,0.484-24.16l-19.133,8.266
				c-0.012,7.648-0.344,18.031-0.926,30.441L574.34,1371.633z"/>
			<g>
				<path style="fill:#38122B;" d="M576.832,1470.895l-27.672,5.566c-0.426,5.859-0.855,11.789-1.293,17.777l29.422-11.23
					C577.129,1478.934,576.973,1474.891,576.832,1470.895z"/>
				<path style="fill:#38122B;" d="M551.07,1448.863c-0.481,7.125-0.992,14.453-1.516,21.934l26.934-9.586
					c-0.203-5.594-0.391-11.113-0.578-16.512L551.07,1448.863z"/>
			</g>
			<g>
				<path style="fill:#38122B;" d="M542.066,1569.672l38.273-13.457c-0.207-4.477-0.398-8.969-0.609-13.469l-36.238,8.773
					C543.019,1557.602,542.543,1563.672,542.066,1569.672z"/>
				<path style="fill:#38122B;" d="M585.305,1667.691l-52.176,9.793c-1.184,13.824-2.168,25.078-2.84,32.828l55.84-22.609
					C585.887,1681.652,585.598,1674.945,585.305,1667.691z"/>
				<path style="fill:#38122B;" d="M581.375,1579.652l-40.766,8.063c-0.766,9.379-1.52,18.551-2.25,27.426l43.699-20.133
					C581.836,1589.957,581.617,1584.836,581.375,1579.652z"/>
			</g>
		</g>
		<g>
			<g>
				<path style="fill:#525321;" d="M765.074,1257.07c0,0,26.914,107.258,54.508,49.637c0,0,32.141,48.086,53.109,3.102
					c0,0,41.871,32.699,54.508-10.082c0,0,23.055,32.578,32.824,15.512c9.781-17.066,4.203-48.859,4.203-48.859
					s51.703,11.633,33.555-43.438l-2.797-31.031l-76.18-31.016c0,0-90.332,15.512-95.473,19.387
					C818.195,1184.148,765.074,1257.07,765.074,1257.07z"/>
				<path style="fill:#2E2018;" d="M958.633,1233.02c0,0,2.789,34.125-11.883,44.211c-14.672,10.086-52.383,40-57.996,51.797
					c0,0,0.691-17.664,7.691-28.531c7-10.848,34.457-47.305,27.348-92.293h-6.387c0,0,9.09,37.828-6.289,60.422
					c-15.371,22.57-27.758,40.41-27.758,40.41s2.973-100.059,0-114.797h-7.184c0,0,6.293,79.113,3.496,95.41
					c-2.793,16.293-7.684,36.449-9.773,47.313c0,0-15.375-27.926-30.762-38.004c-15.352-10.094-48.211-42.844-48.906-53.996
					l-6.285,4.348c0,0,21.934,43.629,44.871,53.52c22.938,9.898,28.492,38.008,27.797,58.949
					c-0.699,20.945-7.691,40.336-7.691,48.098c0,0-88.043-71.367-83.848-107.82c4.199-36.453,2.797-39.563,2.797-39.563
					l-2.934,3.887l-8.242,40.328l21.656,46.531c0,0-5.59,9.316-13.277,5.438c-7.684-3.883-45.426-59.719-46.113-66.703l-6.992,5.43
					c0,0,34.004,67.477,69.871,76.012c0,0,60.801,29.477,65.691,65.152c4.891,35.684-9.09,272.25-9.09,272.25
					s23.055,14.734,37.734,0c0,0-4.883-273.805-5.59-284.66c-0.688-10.855,5.977-66.703,12.773-74.461
					c6.809-7.758,18.672-33.344,71.09-68.262c16.781-11.176,13.281-48.863,13.281-48.863L958.633,1233.02z"/>
				<path style="fill:#84822E;" d="M748.102,993.352c-0.473,2.394,1.402-36.457-32.84-34.129
					c-34.238,2.324-55.199,55.066-41.227,72.91c0,0,2.094,12.406,11.188,12.406c0,0-47.527-0.773-37.738,18.617
					c9.773,19.391,33.539,20.945,33.539,20.945s-39.688,1.555-34.887,35.684c0,0-58.746,8.523-29.406,31.797
					c0,0,21.66,10.082,43.332,10.082c0,0-39.828,31.031-40.539,43.43c-0.684,12.414,13.281,30.262,49.625,30.262
					c0,0-23.746,24.824-19.563,38.008s27.25,22.488,39.824,20.934c0,0-9.785,12.41,4.887,17.844c14.68,5.43,50.648,0,55.031-25.594
					c0,0,2.965,39.551,18.344,40.332c15.367,0.777,22.375-51.199,20.961-65.93c0,0,29.356,13.184,34.246-27.148
					c0,0,36.32,45.762,36.32-20.172c0,0,23.777,7.762,30.063-24.039c0,0,10.469,36.449,41.223,22.492c0,0-17.473,32.582-8.395,41.5
					c9.102,8.91,49.613,1.93,57.305-25.988c0,0,27.949,10.086,41.227,3.109c13.277-6.992,27.957-49.637,6.996-62.063
					c0,0,13.277-15.59,1.391-32.223c0,0-18.867-29.816-39.117-28.277c0,0,34.93-31.016,21.656-41.102
					c-13.289-10.09-39.844,2.324-39.844,2.324s18.871-13.191,13.984-30.246c-4.894-17.066-29.348-55.852-49.617-38.008
					c0,0-2.094-63.602-43.328-11.633c0,0,11.188-22.504-14.664-31.027c0,0,9.777-38.004,1.395-48.867
					c-8.391-10.859-62.891-11.633-74.074,25.594c0,0-39.105-1.547-29.336,43.438C776.063,978.613,753.695,964.652,748.102,993.352z"
					/>
				<g>
					<g>
						<path style="fill:#75782E;" d="M979.394,1227.594c0,0,27.949,10.086,41.227,3.109c13.277-6.992,27.957-49.637,6.996-62.063
							c0,0,13.277-15.59,1.391-32.223c0,0-18.867-29.816-39.117-28.277c0,0,34.93-31.016,21.656-41.102
							c-13.289-10.09-39.844,2.324-39.844,2.324s18.871-13.191,13.984-30.246c-4.894-17.066-29.348-55.852-49.617-38.008
							c0,0-0.637-19.746-8.367-28.242c3.375,24.481-1.207,49.961-1.207,49.961s24.453-6.984,32.84,3.098
							c8.395,10.086-17.48,48.094-17.48,48.094s27.254,2.324,32.145,12.406c4.891,10.086-11.176,28.555-11.176,28.555
							s27.953,1.691,32.848,31.168c4.891,29.484-38.426,20.953-38.426,20.953c-11.883,38.777-40.535-3.879-40.535-3.879
							c-28.644,30.246-55.894-9.32-55.894-9.32c-10.481,50.422-53.125,20.176-53.125,20.176
							c6.305,57.395-22.348,51.188-22.348,51.188c-25.148,47.32-53.812-2.316-53.812-2.316c-4.887,6.969-22.363,19.379-40.52,3.09
							c-11.504-10.32-1.707-27.797,7.023-39.23c-14.227,11.742-39.824,24.277-53.836,21.395
							c-11.582-2.379-8.949-17.297-5.199-28.484c-9.684,9.078-19.129,19.398-19.477,25.375
							c-0.684,12.414,13.281,30.262,49.625,30.262c0,0-23.746,24.824-19.563,38.008s27.25,22.488,39.824,20.934
							c0,0-9.785,12.41,4.887,17.844c14.68,5.43,50.648,0,55.031-25.594c0,0,2.965,39.551,18.344,40.332
							c15.367,0.777,22.375-51.199,20.961-65.93c0,0,29.356,13.184,34.246-27.148c0,0,36.32,45.762,36.32-20.172
							c0,0,23.777,7.762,30.063-24.039c0,0,10.469,36.449,41.223,22.492c0,0-17.473,32.582-8.395,41.5
							C931.191,1262.492,971.703,1255.512,979.394,1227.594z"/>
						<path style="fill:#75782E;" d="M707.769,1175.633c0,0-4.68,4.574-9.734,11.176
							C702.953,1182.77,706.523,1178.813,707.769,1175.633z"/>
					</g>
				</g>
			</g>
			<g>
				<g>
					<path style="fill:#1A0E0A;" d="M873.832,1582.035l-28.609-2.824c-0.473,10.535-0.949,21.004-1.438,31.191l30.355-11.363
						C874.039,1593.41,873.934,1587.742,873.832,1582.035z"/>
					<path style="fill:#1A0E0A;" d="M847.531,1438.566c0.348,2.605,0.613,6.297,0.781,10.867l22.781-4.867
						c-0.141-6.5-0.27-11.531-0.355-14.73l-24.965,1.48C846.594,1433.699,847.184,1436.125,847.531,1438.566z"/>
					<path style="fill:#1A0E0A;" d="M848.059,1501.117l24.059-8.168c-0.133-6.863-0.258-13.387-0.387-19.484l-23.191,0.895
						C848.457,1482.453,848.301,1491.465,848.059,1501.117z"/>
					<path style="fill:#1A0E0A;" d="M875.418,1668.328l-34.688,1.793c-0.367,6.941-0.723,13.215-1.023,18.637l35.906-9.758
						C875.555,1675.641,875.469,1672.074,875.418,1668.328z"/>
					<path style="fill:#1A0E0A;" d="M843.332,1619.672c-0.543,11.137-1.086,21.824-1.609,31.707l33.105-14.828
						c-0.121-7.707-0.281-15.75-0.445-24.023L843.332,1619.672z"/>
				</g>
			</g>
		</g>
		<g>
			<g>
				<path style="fill:#59833A;" d="M2121.324,1047.5c-5.602,1.191-9.629,4.59-10.273,11.645
					c-1.203,13.078,4.254,23.391,10.273,30.629V1047.5z"/>
				<path style="fill:#59833A;" d="M2121.324,1104.68c-17.578,5.371-41.66,20.789-6.273,63.957c0,0-52.832,73.445,6.273,68.676
					V1104.68z"/>
				<g>
					<path style="fill:#476B32;" d="M2121.324,1188.578c-7.141,2.152-14.277,4.082-21.098,5.59
						c-9.574,20.723-14.449,46.078,21.098,43.184V1188.578z"/>
				</g>
			</g>
			<g>
				<path style="fill:#BB4D2C;" d="M2053.086,1106.211c0,0-8.793,186.629-51.746,118.367c0,0-44.898,24.91-50.758-43.348
					c0,0-13.668,70.422-68.316,13.004c0,0-21.488,72.598-53.688,4.336c0,0-41.016,41.168-29.293-40.094
					c11.703-81.262,92.73-102.93,92.73-102.93L2053.086,1106.211z"/>
				<path style="fill:#582B43;" d="M1814.895,1164.98c0,0-6.828,63.93,18.555,80.184c25.367,16.25,62.461,42.254,70.273,63.93
					c7.816,21.66-12.691,369.48-10.727,384.641h57.586c0,0-32.359-365.141-25.469-380.313
					c6.926-15.168,103.512-49.965,105.508-68.258c1.988-18.301,27.324-114.855,26.359-118.109c-0.977-3.25-6.832-6.496-6.832-6.496
					s-13.656,98.328-21.469,96.297c-7.809-2.035-12.688-125.563-12.688-125.563l-13.684-11.914c0,0,25.391,161.445,16.602,164.703
					c-8.773,3.242-38.066,28.164-43.926,24.918c-5.859-3.254,20.504-48.758,15.613-82.344
					c-4.867-33.602-12.672-88.859-12.672-88.859l-11.512-1.082c0,0,19.316,89.941,13.457,105.094
					c-5.852,15.184-19.535,69.359-19.535,69.359s-32.355,18.414-35.223,9.754c-2.836-8.676,19.605-92.094,17.664-106.195
					c-1.949-14.074-7.242-52-7.242-52l-10.422-9.766c0,0,9.84,56.363,5.953,66.105c-3.906,9.762-13.672,110.52-19.527,106.184
					c-5.863-4.328-31.246-25.996-34.172-35.75c-2.93-9.754-1.945-101.93-1.945-101.93l-10.738-8.586c0,0,8.789,117.008,0.98,110.516
					c-7.813-6.5-41.004-14.359-39.055-32.645c1.969-18.285-2.914-64.875-2.914-64.875L1814.895,1164.98z"/>
				<path style="fill:#582B43;" d="M1814.895,1164.98c0,0-6.828,63.93,18.555,80.184c25.367,16.25,62.461,42.254,70.273,63.93
					c7.816,21.66-12.691,369.48-10.727,384.641h57.586c0,0-32.359-365.141-25.469-380.313
					c6.926-15.168,103.512-49.965,105.508-68.258c1.988-18.301,27.324-114.855,26.359-118.109c-0.977-3.25-6.832-6.496-6.832-6.496
					s-13.656,98.328-21.469,96.297c-7.809-2.035-12.688-125.563-12.688-125.563l-13.684-11.914c0,0,25.391,161.445,16.602,164.703
					c-8.773,3.242-38.066,28.164-43.926,24.918c-5.859-3.254,20.504-48.758,15.613-82.344
					c-4.867-33.602-12.672-88.859-12.672-88.859l-11.512-1.082c0,0,19.316,89.941,13.457,105.094
					c-5.852,15.184-19.535,69.359-19.535,69.359s-32.355,18.414-35.223,9.754c-2.836-8.676,19.605-92.094,17.664-106.195
					c-1.949-14.074-7.242-52-7.242-52l-10.422-9.766c0,0,9.84,56.363,5.953,66.105c-3.906,9.762-13.672,110.52-19.527,106.184
					c-5.863-4.328-31.246-25.996-34.172-35.75c-2.93-9.754-1.945-101.93-1.945-101.93l-10.738-8.586c0,0,8.789,117.008,0.98,110.516
					c-7.813-6.5-41.004-14.359-39.055-32.645c1.969-18.285-2.914-64.875-2.914-64.875L1814.895,1164.98z"/>
				<path style="fill:#F7954A;" d="M2121.324,699.246c-17.734,6.449-35.059,31.246-35.059,31.246s-10.734-35.762-46.863-15.168
					c0,0-9.754-35.762-32.211-35.762c-22.441,0-35.887,7.586-40.777,42.266c-0.469,3.383-13.891-93.188-54.906-88.633
					c-30.129,3.352-42.918,90.797-41.961,108.133c0,0-35.133-42.258-48.805-30.34c-13.652,11.918-5.848,67.18,0,76.93
					c0,0-15.609-5.418-33.18,0c-17.563,5.418-19.535,35.758-13.664,50.93c0,0-53.676-19.504-67.34,9.746
					c-13.672,29.254,25.375,52.012,25.375,52.012s-54.672-17.344-42.953,34.676c0,0-46.855-20.59-55.645-4.344
					c-8.773,16.258,1.961,54.18,33.184,71.516c0,0-39.039,21.668-28.301,45.508c10.727,23.832,40.027,23.832,48.793,24.914
					c0,0-47.82,32.508-38.066,60.691c9.773,28.168,85.922,21.676,104.445,7.578c0,0-8.773,46.586,20.508,53.09
					c29.285,6.504,77.117-23.844,81.996-31.422c0,0,65.406,36.844,73.203-35.758c0,0,61.5,53.094,68.332-39.004
					c0,0,3.91,34.676,30.27,36.844c0,0-0.98,60.672,36.102,45.496c0,0,30.426,42.961,57.523,46.254V699.246z"/>
				<path style="opacity:0.2;fill:#BB4D2C;" d="M2121.324,1084.773c-35.098-9.805-60.438-58.484-60.438-58.484
					s-10.738,85.598-56.633,3.262c0,0-59.535,25.996-59.535-43.352c0,0-71.246,78.012-81.988-4.336c0,0-69.625-9.746-65.566-44.422
					c4.07-34.668,34.305-40.09,34.305-40.09s-39.02-40.09-20.48-58.504c18.551-18.422,46.863-7.59,46.863-7.59
					s-32.59-76.68-36.516-120.68c-0.199,0.133-0.398,0.25-0.594,0.41c-13.652,11.918-5.848,67.18,0,76.93c0,0-15.609-5.418-33.18,0
					c-17.563,5.418-19.535,35.758-13.664,50.93c0,0-53.676-19.504-67.34,9.746c-13.672,29.254,25.375,52.012,25.375,52.012
					s-54.672-17.344-42.953,34.676c0,0-46.855-20.59-55.645-4.344c-8.773,16.258,1.961,54.18,33.184,71.516
					c0,0-39.039,21.668-28.301,45.508c10.727,23.832,40.027,23.832,48.793,24.914c0,0-47.82,32.508-38.066,60.691
					c9.773,28.168,85.922,21.676,104.445,7.578c0,0-8.773,46.586,20.508,53.09c29.285,6.504,77.117-23.844,81.996-31.422
					c0,0,65.406,36.844,73.203-35.758c0,0,61.5,53.094,68.332-39.004c0,0,3.91,34.676,30.27,36.844c0,0-0.98,60.672,36.102,45.496
					c0,0,30.426,42.961,57.523,46.254V1084.773z"/>
				<path style="fill:#38122B;" d="M1905.512,1343.344c0.008-9.969-0.137-18.176-0.488-24.16l19.133,8.273
					c0.016,7.648,0.348,18.031,0.926,30.438L1905.512,1343.344z"/>
				<g>
					<path style="fill:#38122B;" d="M1903.016,1442.609l27.672,5.563c0.426,5.863,0.855,11.797,1.293,17.785l-29.418-11.23
						C1902.719,1450.648,1902.871,1446.609,1903.016,1442.609z"/>
					<path style="fill:#38122B;" d="M1928.781,1420.578c0.477,7.129,0.988,14.453,1.508,21.938l-26.93-9.594
						c0.203-5.594,0.395-11.113,0.578-16.512L1928.781,1420.578z"/>
				</g>
				<g>
					<path style="fill:#38122B;" d="M1937.785,1541.387l-38.277-13.457c0.207-4.473,0.395-8.965,0.609-13.469l36.238,8.77
						C1936.828,1529.316,1937.309,1535.387,1937.785,1541.387z"/>
					<path style="fill:#38122B;" d="M1894.543,1639.402l52.176,9.797c1.184,13.828,2.168,25.082,2.84,32.824l-55.836-22.605
						C1893.965,1653.367,1894.254,1646.66,1894.543,1639.402z"/>
					<path style="fill:#38122B;" d="M1898.477,1551.363l40.766,8.063c0.766,9.379,1.52,18.559,2.25,27.426l-43.703-20.125
						C1898.012,1561.668,1898.234,1556.547,1898.477,1551.363z"/>
				</g>
			</g>
			<g>
				<g>
					<path style="fill:#525321;" d="M1714.773,1228.781c0,0-26.914,107.262-54.508,49.637c0,0-32.141,48.094-53.105,3.109
						c0,0-41.871,32.691-54.512-10.086c0,0-23.055,32.574-32.828,15.516c-9.777-17.07-4.199-48.863-4.199-48.863
						s-51.703,11.629-33.559-43.438l2.801-31.035l76.18-31.016c0,0,90.336,15.516,95.477,19.395
						C1661.652,1155.867,1714.773,1228.781,1714.773,1228.781z"/>
					<path style="fill:#2E2018;" d="M1521.215,1204.734c0,0-2.785,34.125,11.883,44.207c14.672,10.086,52.387,40.008,58.004,51.801
						c0,0-0.699-17.66-7.703-28.531c-6.992-10.844-34.453-47.309-27.344-92.289h6.387c0,0-9.09,37.82,6.285,60.418
						c15.379,22.566,27.762,40.41,27.762,40.41s-2.973-100.055,0-114.797h7.188c0,0-6.297,79.113-3.5,95.414
						c2.793,16.285,7.684,36.441,9.773,47.309c0,0,15.379-27.926,30.766-38.008c15.352-10.086,48.207-42.836,48.906-53.988
						l6.281,4.34c0,0-21.934,43.633-44.875,53.523c-22.934,9.902-28.488,38.004-27.789,58.949
						c0.695,20.945,7.688,40.332,7.688,48.094c0,0,88.043-71.363,83.848-107.82c-4.199-36.449-2.797-39.563-2.797-39.563
						l2.934,3.891l8.242,40.324l-21.656,46.539c0,0,5.59,9.316,13.277,5.434c7.684-3.879,45.43-59.723,46.113-66.699l6.992,5.422
						c0,0-34,67.48-69.863,76.016c0,0-60.805,29.477-65.695,65.152c-4.895,35.68,9.09,272.25,9.09,272.25s-23.055,14.73-37.734,0
						c0,0,4.887-273.805,5.59-284.656c0.684-10.863-5.98-66.711-12.777-74.469c-6.809-7.754-18.668-33.344-71.09-68.258
						c-16.777-11.176-13.281-48.859-13.281-48.859L1521.215,1204.734z"/>
					<path style="fill:#84822E;" d="M1731.75,965.066c0.473,2.394-1.406-36.457,32.836-34.129
						c34.242,2.324,55.199,55.066,41.227,72.91c0,0-2.094,12.406-11.184,12.406c0,0,47.527-0.773,37.738,18.617
						c-9.773,19.391-33.539,20.945-33.539,20.945s39.688,1.555,34.883,35.68c0,0,58.75,8.527,29.41,31.805
						c0,0-21.664,10.082-43.336,10.082c0,0,39.832,31.031,40.539,43.43c0.688,12.41-13.277,30.258-49.629,30.258
						c0,0,23.75,24.82,19.566,38.004c-4.18,13.184-27.25,22.496-39.828,20.941c0,0,9.785,12.402-4.883,17.84
						c-14.68,5.43-50.648,0-55.031-25.598c0,0-2.961,39.559-18.344,40.332c-15.367,0.781-22.371-51.191-20.965-65.93
						c0,0-29.348,13.183-34.238-27.149c0,0-36.324,45.77-36.324-20.168c0,0-23.773,7.762-30.063-24.039
						c0,0-10.469,36.453-41.219,22.492c0,0,17.469,32.582,8.395,41.5c-9.102,8.906-49.617,1.93-57.305-25.992
						c0,0-27.953,10.086-41.23,3.109c-13.277-6.984-27.961-49.637-6.996-62.055c0,0-13.277-15.59-1.387-32.23
						c0,0,18.863-29.816,39.117-28.277c0,0-34.934-31.016-21.656-41.098c13.281-10.09,39.84,2.324,39.84,2.324
						s-18.875-13.188-13.984-30.246c4.898-17.066,29.352-55.851,49.617-38.008c0,0,2.094-63.602,43.328-11.633
						c0,0-11.188-22.504,14.66-31.027c0,0-9.773-38.004-1.395-48.867c8.395-10.855,62.895-11.633,74.082,25.594
						c0,0,39.102-1.543,29.336,43.438C1703.789,950.328,1726.156,936.367,1731.75,965.066z"/>
					<g>
						<g>
							<path style="fill:#75782E;" d="M1500.457,1199.305c0,0-27.953,10.086-41.23,3.109c-13.277-6.984-27.961-49.637-6.996-62.055
								c0,0-13.277-15.59-1.387-32.23c0,0,18.863-29.816,39.117-28.277c0,0-34.934-31.016-21.656-41.098
								c13.281-10.09,39.84,2.324,39.84,2.324s-18.875-13.188-13.984-30.246c4.898-17.066,29.352-55.851,49.617-38.008
								c0,0,0.641-19.746,8.371-28.242c-3.375,24.481,1.203,49.961,1.203,49.961s-24.453-6.984-32.84,3.101
								c-8.395,10.082,17.477,48.09,17.477,48.09s-27.25,2.324-32.141,12.406c-4.891,10.086,11.176,28.551,11.176,28.551
								s-27.953,1.695-32.848,31.172c-4.891,29.488,38.43,20.949,38.43,20.949c11.883,38.785,40.535-3.875,40.535-3.875
								c28.641,30.246,55.891-9.316,55.891-9.316c10.48,50.414,53.125,20.172,53.125,20.172
								c-6.309,57.391,22.352,51.188,22.352,51.188c25.148,47.324,53.805-2.316,53.805-2.316
								c4.887,6.973,22.367,19.379,40.527,3.094c11.504-10.324,1.703-27.801-7.027-39.23c14.227,11.734,39.82,24.273,53.84,21.395
								c11.578-2.383,8.949-17.301,5.195-28.488c9.684,9.074,19.129,19.398,19.477,25.379c0.688,12.41-13.277,30.258-49.629,30.258
								c0,0,23.75,24.82,19.566,38.004c-4.18,13.184-27.25,22.496-39.828,20.941c0,0,9.785,12.402-4.883,17.84
								c-14.68,5.43-50.648,0-55.031-25.598c0,0-2.961,39.559-18.344,40.332c-15.367,0.781-22.371-51.191-20.965-65.93
								c0,0-29.348,13.183-34.238-27.149c0,0-36.324,45.77-36.324-20.168c0,0-23.773,7.762-30.063-24.039
								c0,0-10.469,36.453-41.219,22.492c0,0,17.469,32.582,8.395,41.5C1548.66,1234.203,1508.145,1227.227,1500.457,1199.305z"/>
							<path style="fill:#75782E;" d="M1772.074,1147.352c0,0,4.688,4.574,9.738,11.176
								C1776.898,1154.484,1773.328,1150.527,1772.074,1147.352z"/>
						</g>
					</g>
				</g>
				<g>
					<g>
						<path style="fill:#1A0E0A;" d="M1606.02,1553.75l28.609-2.824c0.473,10.531,0.949,21.008,1.43,31.191l-30.352-11.363
							C1605.809,1565.121,1605.918,1559.461,1606.02,1553.75z"/>
						<path style="fill:#1A0E0A;" d="M1632.32,1410.281c-0.348,2.609-0.617,6.297-0.781,10.871l-22.781-4.871
							c0.137-6.5,0.266-11.535,0.355-14.734l24.961,1.48C1633.254,1405.41,1632.664,1407.836,1632.32,1410.281z"/>
						<path style="fill:#1A0E0A;" d="M1631.789,1472.836l-24.055-8.176c0.133-6.855,0.258-13.379,0.383-19.484l23.191,0.898
							C1631.395,1454.172,1631.543,1463.18,1631.789,1472.836z"/>
						<path style="fill:#1A0E0A;" d="M1604.43,1640.039l34.684,1.801c0.367,6.941,0.727,13.207,1.031,18.629l-35.91-9.754
							C1604.293,1647.359,1604.383,1643.793,1604.43,1640.039z"/>
						<path style="fill:#1A0E0A;" d="M1636.52,1591.383c0.539,11.145,1.086,21.828,1.605,31.707l-33.105-14.82
							c0.121-7.707,0.281-15.758,0.445-24.023L1636.52,1591.383z"/>
					</g>
				</g>
			</g>
		</g>
		<rect x="0.004" y="1778.805" style="fill:#FFE1BD;" width="2121.32" height="73.539"/>
		<rect x="0.004" y="1669.457" style="fill:#BCB030;" width="2121.32" height="109.488"/>
		<path style="fill:#A6972D;" d="M2121.324,1728.992c-644.762-10.32-1786.371-33.887-2121.32-40.867v90.82h2121.32V1728.992z"/>
		<g>
			<path style="fill:#F7954A;" d="M2121.324,1326.984c-1.836,2.426-2.672,4.047-2.672,4.047c-3.32,5.527-1.48,10.18,2.672,13.988
				V1326.984z"/>
			<path style="opacity:0.2;fill:#BB4D2C;" d="M2121.324,1327c-1.832,2.414-2.672,4.031-2.672,4.031
				c-3.32,5.527-1.48,10.18,2.672,13.988V1327z"/>
		</g>
		<polygon style="fill:#8F812A;" points="2121.324,1750.777 0.004,1724.598 0.004,1778.945 2121.324,1778.945 		"/>
		<rect x="0.004" y="1813.633" style="fill:#AE7244;" width="2121.32" height="73.547"/>
		<rect x="0.004" y="1843.816" style="fill:#5F5F73;" width="2121.32" height="277.516"/>
		<rect x="0.012" y="2024.27" style="fill:#BCB030;" width="2121.313" height="97.063"/>
		<rect x="0.012" y="1986.684" style="fill:#FFE1BD;" width="2121.313" height="89.504"/>
		<rect x="0.004" y="1843.816" style="fill:#47495D;" width="2121.32" height="22.488"/>
		<g>
			<path style="fill:#1E1E3A;" d="M708.551,1279.746c0,2.742-2,4.953-4.469,4.953l0,0c-2.465,0-4.469-2.211-4.469-4.953v-10.383
				c0-2.738,2.004-4.957,4.469-4.957l0,0c2.469,0,4.469,2.219,4.469,4.957V1279.746z"/>
			<path style="fill:#FEF6D3;" d="M703.684,1308.777h-55.606c0,0,0.02,5.242,2.922,10.793c3.504,6.684,42.961,36.031,46.277,36.25
				l6.406,2.52l6.414-2.52c3.313-0.219,42.777-29.566,46.277-36.25c2.898-5.551,2.914-10.793,2.914-10.793H703.684z"/>
			<rect x="699.203" y="1358.059" style="fill:#393755;" width="6.711" height="270.324"/>
			<polygon style="fill:#534E6E;" points="709.277,1707.664 695.848,1707.664 692.969,1601.246 712.156,1601.246 			"/>
			<polygon style="fill:#393755;" points="710.703,1800.258 694.402,1800.258 691.055,1672.551 714.066,1672.551 			"/>
			<path style="fill:#1E1E3A;" d="M693.363,1354.707c0,0-0.102,3.07,4.613,5.152c4.73,2.082,12.867-0.891,14.75-2.949
				c0,0,3.262-3.406-0.57-4.203C709.891,1352.23,692.969,1352.063,693.363,1354.707z"/>
			<path style="fill:#393755;" d="M648.563,1312.664c0,0,78.961-5.074,110.727,0c0,0,5.82-4.836,4.543-11.438
				c-1.269-6.613-33.594-26.91-61.227-25.969c0,0-48.059,7.082-59.965,26.441C638.945,1307.707,648.563,1312.664,648.563,1312.664z"
				/>
		</g>
		<path style="fill:#FFFFFF;" d="M147.461,538.555h550.77l-131.77-19.957c0,0,10.566-52.832-36.894-61.43
			c-54.328-9.84-60.055,41.09-61.242,47.203c0,0,1.258-100.918-84.367-100.918c-92.527,0-86.285,88.816-86.285,88.816
			s-58.621-62.492-102.094,37.332L147.461,538.555z"/>
		<path style="fill:#FFFFFF;" d="M2036.871,622.805h-550.77l131.766-19.957c0,0-10.563-52.832,36.898-61.43
			c54.328-9.836,60.059,41.09,61.242,47.203c0,0-1.258-100.918,84.367-100.918c92.527,0,86.285,88.816,86.285,88.816
			s58.621-62.492,102.098,37.332L2036.871,622.805z"/>
		<path style="fill:#FFFFFF;" d="M655.605,372.965h1009.988c0,0-57.973-50.645-174.836-25.324c0,0-39.902-155.027-151.07-50.621
			c0,0,2.25-110.738-107.191-107.574c-109.434,3.168-103.734,123.395-103.734,123.395s-76.969-142.379-185.273-9.492
			c0,0-71.262-31.641-94.059,47.457L655.605,372.965z"/>
	</g>
	<g>
		<polygon style="fill:#90872D;" points="2107.047,2121.32 2102.008,2098.793 2098.301,2121.32 		"/>
	</g>
</g>
<g>
	<g>
		<polygon style="fill:#701935;" points="2047.602,1357.512 1699.625,1357.512 1699.625,1204.566 1985.395,1204.566 		"/>
		<polygon style="fill:#8C2B43;" points="1740.203,1232.52 2016.898,1282.023 1985.395,1204.566 1732.434,1204.566 		"/>
		<polygon style="fill:#A5455E;" points="1985.395,1204.566 1732.434,1204.566 1733.891,1209.816 1995.246,1228.773 		"/>
		<polygon style="opacity:0.5;fill:#5F0525;" points="1940.258,1204.566 1921.125,1204.566 1969.348,1357.512 1992.629,1357.512 		
			"/>
		<polygon style="opacity:0.5;fill:#5F0525;" points="1852.254,1204.566 1833.121,1204.566 1874.715,1357.512 1898.004,1357.512 		
			"/>
		<polygon style="fill:#BD5539;" points="2058.68,1674.637 1740.203,1674.637 1740.203,1359.414 2029.633,1359.414 		"/>
		<polygon style="fill:#963420;" points="2030.68,1370.75 1779.086,1370.75 1779.086,1394.832 2032.898,1394.832 		"/>
		<polygon style="fill:#963420;" points="1833.891,1674.637 1900.863,1674.637 1806.414,1359.414 1769.648,1359.414 		"/>
		<rect x="1764.27" y="1357.512" style="fill:#F9EDC9;" width="283.332" height="20.668"/>
		<g>
			<polygon style="fill:#FFFFFF;" points="1874.68,1579.531 2003.793,1579.531 1989.301,1448.035 1873.789,1448.035 			"/>
			<polygon style="fill:#5FCAE9;" points="1883.742,1570.172 1993.633,1570.172 1982.047,1457.406 1882.137,1457.406 			"/>
			<polygon style="fill:#44ACD3;" points="1882.641,1492.738 1985.672,1492.738 1982.047,1457.406 1882.137,1457.406 			"/>
			<polygon style="fill:#227C9A;" points="1882.379,1473.836 1882.137,1457.406 1982.047,1457.406 1983.734,1473.836 			"/>
			<polygon style="fill:#FFFFFF;" points="1932.609,1570.172 1944.762,1570.172 1937.617,1457.336 1926.57,1457.336 			"/>
			<polygon style="fill:#FFFFFF;" points="1883.016,1519.84 1988.465,1519.84 1987.566,1511.129 1882.906,1511.129 			"/>
			<polygon style="fill:#E67258;" points="1866.273,1593.535 2013.832,1593.535 2012.18,1579.531 1866.273,1579.531 			"/>
			<polygon style="fill:#7A1F16;" points="1871.723,1602.449 2009.41,1602.449 2008.406,1593.535 1871.695,1593.535 			"/>
		</g>
	</g>
	<g>
		<polygon style="fill:#701935;" points="959.195,1357.512 1307.168,1357.512 1307.168,1204.566 1021.398,1204.566 		"/>
		<polygon style="fill:#8C2B43;" points="1266.578,1232.52 989.883,1282.023 1021.398,1204.566 1274.352,1204.566 		"/>
		<polygon style="fill:#A5455E;" points="1021.398,1204.566 1274.352,1204.566 1272.898,1209.816 1011.551,1228.773 		"/>
		<polygon style="opacity:0.5;fill:#5F0525;" points="1066.535,1204.566 1085.656,1204.566 1037.449,1357.512 1014.172,1357.512 		
			"/>
		<polygon style="opacity:0.5;fill:#5F0525;" points="1154.535,1204.566 1173.664,1204.566 1132.066,1357.512 1108.797,1357.512 		
			"/>
		<polygon style="fill:#BD5539;" points="948.117,1674.637 1266.578,1674.637 1266.578,1359.414 977.156,1359.414 		"/>
		<polygon style="fill:#963420;" points="976.109,1370.75 1227.695,1370.75 1227.695,1394.832 973.891,1394.832 		"/>
		<polygon style="fill:#963420;" points="1172.898,1674.637 1105.934,1674.637 1200.383,1359.414 1237.148,1359.414 		"/>
		<rect x="959.195" y="1357.512" style="fill:#F9EDC9;" width="283.34" height="20.668"/>
		<g>
			<polygon style="fill:#FFFFFF;" points="1132.125,1579.531 1002.996,1579.531 1017.481,1448.035 1133.008,1448.035 			"/>
			<polygon style="fill:#5FCAE9;" points="1123.055,1570.172 1013.156,1570.172 1024.734,1457.406 1124.641,1457.406 			"/>
			<polygon style="fill:#44ACD3;" points="1124.145,1492.738 1021.109,1492.738 1024.734,1457.406 1124.641,1457.406 			"/>
			<polygon style="fill:#227C9A;" points="1124.418,1473.836 1124.641,1457.406 1024.734,1457.406 1023.047,1473.836 			"/>
			<polygon style="fill:#FFFFFF;" points="1074.176,1570.172 1062.02,1570.172 1069.176,1457.336 1080.227,1457.336 			"/>
			<polygon style="fill:#FFFFFF;" points="1123.766,1519.84 1018.324,1519.84 1019.223,1511.129 1123.887,1511.129 			"/>
			<polygon style="fill:#E67258;" points="1140.516,1593.535 992.969,1593.535 994.605,1579.531 1140.516,1579.531 			"/>
			<polygon style="fill:#7A1F16;" points="1135.059,1602.449 997.383,1602.449 998.391,1593.535 1135.102,1593.535 			"/>
		</g>
	</g>
	<polygon style="opacity:0.5;fill:#5F0525;" points="1767.012,1204.566 1747.891,1204.566 1789.477,1357.512 1812.762,1357.512 	"/>
	<g>
		<g>
			<g>
				<polygon style="fill:#E57E5D;" points="1639.75,1258.695 1787.371,1273.035 1836.785,1674.637 1651.359,1674.637 				"/>
				<polygon style="fill:#CB6546;" points="1683.246,1674.637 1659.977,1279 1790.609,1292.125 1787.371,1273.035 1639.75,1258.695 
					1648.371,1571.211 1652.914,1674.637 				"/>
				<polygon style="fill:#75162E;" points="1745.496,1116.816 1264.297,1116.816 1217.367,1259.402 1792.422,1259.402 				"/>
				<polygon style="fill:#8C2B43;" points="1745.496,1116.816 1264.297,1116.816 1261.094,1126.547 1774.379,1204.566 				"/>
				<polygon style="fill:#A5455E;" points="1745.496,1116.816 1264.297,1116.816 1262.656,1121.805 1755.641,1147.656 				"/>
				<g style="opacity:0.4;">
					<polygon style="fill:#5F0525;" points="1301.75,1116.816 1262.121,1259.402 1279.555,1259.402 1316.332,1116.816 					"/>
					<polygon style="fill:#5F0525;" points="1708.047,1116.816 1693.469,1116.816 1730.246,1259.402 1747.664,1259.402 					"/>
				</g>
				<g style="opacity:0.4;">
					<polygon style="fill:#5F0525;" points="1358.328,1116.816 1329.738,1259.402 1342.316,1259.402 1368.859,1116.816 					"/>
					<polygon style="fill:#5F0525;" points="1651.473,1116.816 1640.945,1116.816 1667.469,1259.402 1680.051,1259.402 					"/>
				</g>
				<g style="opacity:0.4;">
					<polygon style="fill:#5F0525;" points="1413.691,1116.816 1395.91,1259.402 1403.727,1259.402 1420.25,1116.816 					"/>
					<polygon style="fill:#5F0525;" points="1596.109,1116.816 1589.555,1116.816 1606.066,1259.402 1613.898,1259.402 					"/>
				</g>
				<g style="opacity:0.4;">
					<polygon style="fill:#5F0525;" points="1469,1116.816 1461.996,1259.402 1465.074,1259.402 1471.574,1116.816 					"/>
					<polygon style="fill:#5F0525;" points="1540.797,1116.816 1538.223,1116.816 1544.719,1259.402 1547.809,1259.402 					"/>
				</g>
				<polygon style="fill:#F9EDC9;" points="1640.266,1239.523 1802.48,1255.996 1802.48,1279 1640.266,1260.82 				"/>
				<polygon style="fill:#FFCF84;" points="1656.926,1674.637 1352.613,1674.637 1369.523,1259.402 1504.762,1149.488 
					1640.016,1259.402 				"/>
				<polygon style="fill:#D7A052;" points="1368.426,1301.996 1506.488,1194.648 1641.93,1307.137 1640.266,1260.82 
					1504.762,1149.488 1369.523,1261.109 				"/>
				<polygon style="fill:#F9EDC9;" points="1504.762,1128.188 1369.258,1239.809 1369.523,1261.109 1504.762,1149.488 
					1640.266,1260.82 1640.266,1239.523 				"/>
				<polygon style="fill:#E57E5D;" points="1369.523,1259.402 1222.754,1273.035 1171.262,1674.637 1358.766,1674.637 				"/>
				<polygon style="fill:#F9EDC9;" points="1369.523,1239.809 1207.633,1255.996 1207.633,1279 1369.523,1261.109 				"/>
				<polygon style="fill:#CB6546;" points="1218.566,1305.73 1368.723,1286.418 1369.465,1261.113 1222.055,1278.453 				"/>
				<polygon style="fill:#CB6546;" points="1171.262,1674.637 1186.34,1674.637 1233.504,1283.465 1221.434,1282.035 				"/>
				<polygon style="fill:#CB6546;" points="1789.215,1286.16 1779.086,1283.465 1816.602,1674.637 1836.785,1674.637 				"/>
				<path style="fill:#A57535;" d="M1595.906,1674.637v-246.098c0-56.707-41.473-102.676-92.605-102.676
					c-51.137,0-92.59,45.969-92.59,102.676v246.098H1595.906z"/>
				<polygon style="fill:#774A1A;" points="1410.711,1523.387 1595.906,1595.262 1595.906,1492.551 1410.711,1481.207 				"/>
				<path style="fill:#774A1A;" d="M1437.547,1356.25l158.359,107.551v-35.262c0-56.707-41.473-102.676-92.605-102.676
					C1477.602,1325.863,1454.328,1337.488,1437.547,1356.25z"/>
				<path style="fill:#FFFFFF;" d="M1583.191,1463.043v-28.137c0-48.926-35.773-88.594-79.891-88.594
					c-44.125,0-79.902,39.668-79.902,88.594v28.137H1583.191z"/>
				<path style="fill:#5FCAE9;" d="M1574.754,1455.184v-24.352c0-42.336-31.996-76.66-71.453-76.66
					c-39.453,0-71.445,34.324-71.445,76.66v24.352H1574.754z"/>
				<path style="fill:#44ACD3;" d="M1503.301,1354.172c-32.945,0-60.668,23.941-68.93,56.484c6.109,1.141,17.754,0.789,40.039-4.48
					c46.566-11.039,86.492,21.664,81.461,49.008h18.883v-24.352C1574.754,1388.496,1542.758,1354.172,1503.301,1354.172z"/>
				<path style="fill:#227C9A;" d="M1501.863,1373.957c31.246,0,58.273,17.07,71.516,41.973
					c-6.469-35.207-35.375-61.758-70.078-61.758c-32.172,0-59.371,22.816-68.316,54.191
					C1449.324,1387.637,1473.926,1373.957,1501.863,1373.957z"/>
				<path style="fill:#B9E4EE;" d="M1467.699,1364.383c-1.695,1.043-3.34,2.152-4.934,3.332l54.75,87.469h6.996L1467.699,1364.383z"
					/>
				<path style="fill:#B9E4EE;" d="M1472.168,1361.816l58.445,93.367h15.531l-61.547-98.34
					C1480.285,1358.098,1476.125,1359.758,1472.168,1361.816z"/>
				<rect x="1501.113" y="1350.145" style="fill:#FFFFFF;" width="6.152" height="110.344"/>
				<rect x="1427.918" y="1411.582" style="fill:#FFFFFF;" width="148.309" height="8.699"/>
				<g>
					<rect x="1402.391" y="1485.484" style="fill:#EDE3C6;" width="201.832" height="15.332"/>
				</g>
				<g>
					<rect x="1402.391" y="1485.484" style="fill:#CDBC94;" width="201.832" height="8.66"/>
				</g>
				<rect x="1395.203" y="1469.012" style="fill:#FFF9E9;" width="216.199" height="21.012"/>
				<rect x="1380.496" y="1658.734" style="fill:#FFF9E9;" width="248.535" height="15.902"/>
				<rect x="1387.668" y="1642.832" style="fill:#FFF9E9;" width="234.191" height="15.902"/>
				<rect x="1387.668" y="1651.914" style="fill:#D8CFB9;" width="234.191" height="6.82"/>
				<g>
					<rect x="1403.039" y="1626.926" style="fill:#FFF9E9;" width="203.453" height="15.906"/>
					<rect x="1403.039" y="1636.008" style="fill:#D8CFB9;" width="203.453" height="6.824"/>
				</g>
				<rect x="1453.023" y="1517.848" style="fill:#FFF6E5;" width="94.785" height="109.078"/>
				<rect x="1453.023" y="1517.848" style="fill:#E3D7BD;" width="94.785" height="12.226"/>
				<rect x="1449.434" y="1517.848" style="fill:#FFFFFF;" width="101.813" height="7.391"/>
				<g>
					<rect x="1460.563" y="1537.172" style="fill:#EDE3C6;" width="36.113" height="35.785"/>
					<rect x="1460.563" y="1537.172" style="fill:#DACFB2;" width="36.113" height="4.262"/>
					<rect x="1504.152" y="1537.172" style="fill:#EDE3C6;" width="36.117" height="35.785"/>
					<rect x="1504.152" y="1537.172" style="fill:#DACFB2;" width="36.117" height="4.262"/>
				</g>
				<g>
					<rect x="1460.563" y="1578.637" style="fill:#EDE3C6;" width="36.113" height="35.793"/>
					<rect x="1460.563" y="1578.637" style="fill:#DACFB2;" width="36.113" height="4.258"/>
					<rect x="1504.152" y="1578.637" style="fill:#EDE3C6;" width="36.117" height="35.793"/>
					<rect x="1504.152" y="1578.637" style="fill:#DACFB2;" width="36.117" height="4.258"/>
				</g>
			</g>
			<path style="fill:#BA833D;" d="M1547.023,1263.637c0,23.289-18.891,42.172-42.172,42.172c-23.309,0-42.184-18.883-42.184-42.172
				c0-23.293,18.875-42.172,42.184-42.172C1528.133,1221.465,1547.023,1240.344,1547.023,1263.637z"/>
			<path style="fill:#FFFFFF;" d="M1547.023,1257.273c0,23.301-18.891,42.172-42.172,42.172c-23.309,0-42.184-18.871-42.184-42.172
				c0-23.293,18.875-42.172,42.184-42.172C1528.133,1215.102,1547.023,1233.98,1547.023,1257.273z"/>
			<path style="fill:none;stroke:#A46731;stroke-width:1.3368;stroke-miterlimit:10;" d="M1543.605,1257.273
				c0,21.414-17.348,38.77-38.754,38.77c-21.43,0-38.766-17.355-38.766-38.77c0-21.406,17.336-38.762,38.766-38.762
				C1526.258,1218.512,1543.605,1235.867,1543.605,1257.273z"/>
			<polygon style="fill:#0D0000;" points="1504.625,1230.129 1500.797,1242.789 1504.625,1260.504 1508.477,1242.789 			"/>
			<polygon style="fill:#0D0000;" points="1539.457,1259.836 1517.527,1257.859 1504.625,1260.504 1517.633,1262.371 			"/>
			<path style="fill:#0D0000;" d="M1507.602,1260.895c0,1.648-1.328,2.977-2.977,2.977c-1.637,0-2.98-1.328-2.98-2.977
				c0-1.641,1.344-2.977,2.98-2.977C1506.273,1257.918,1507.602,1259.254,1507.602,1260.895z"/>
		</g>
		<g>
			<g>
				<path style="fill:#FFFFFF;" d="M1335.637,1440.266l1.016-83.785c0.277-23.027-14.992-41.695-34.113-41.695
					c-19.105,0-36.645,18.668-39.16,41.695l-9.156,83.785H1335.637z"/>
			</g>
			<g>
				<path style="fill:#5FCAE9;" d="M1331.297,1433.789l1.297-74.609c0.355-20.504-13.293-37.125-30.492-37.125
					c-17.188,0-32.852,16.621-34.992,37.125l-7.75,74.609H1331.297z"/>
			</g>
			<path style="fill:#227C9A;" d="M1302.102,1322.055c-17.188,0-32.852,16.621-34.992,37.125l-2.77,26.695
				c2.129-20.504,18.313-37.121,36.148-37.121c17.82,0,32,16.617,31.641,37.121l0.465-26.695
				C1332.949,1338.676,1319.301,1322.055,1302.102,1322.055z"/>
			<g>
				<path style="fill:#44ACD3;" d="M1301.445,1332.941c-17.457,0-33.34,16.629-35.469,37.125l-1.637,15.809
					c2.129-20.504,18.313-37.121,36.148-37.121c17.82,0,32,16.617,31.641,37.121l0.262-15.809
					C1332.758,1349.57,1318.902,1332.941,1301.445,1332.941z"/>
			</g>
			<g>
				<polygon style="fill:#F8A491;" points="1345.727,1450.371 1242.926,1450.371 1244.145,1440.266 1345.727,1440.266 				"/>
			</g>
			<g>
				<polygon style="fill:#FFFFFF;" points="1334.043,1373.664 1263.898,1373.664 1264.52,1367.848 1334.133,1367.848 				"/>
			</g>
			<polygon style="fill:#FFFFFF;" points="1298.352,1436.605 1293.031,1436.605 1300.582,1316.996 1305.145,1316.996 			"/>
			<polygon style="fill:#BD5539;" points="1341.707,1460.488 1244.566,1460.488 1245.762,1450.371 1341.758,1450.371 			"/>
		</g>
		<g>
			<g>
				<path style="fill:#FFFFFF;" d="M1317.074,1615.789l1.02-83.785c0.262-23.027-15.008-41.695-34.117-41.695
					c-19.113,0-36.645,18.668-39.172,41.695l-9.148,83.785H1317.074z"/>
			</g>
			<g>
				<path style="fill:#5FCAE9;" d="M1312.734,1609.313l1.289-74.609c0.363-20.504-13.289-37.129-30.492-37.129
					c-17.184,0-32.855,16.625-34.984,37.129l-7.754,74.609H1312.734z"/>
			</g>
			<path style="fill:#227C9A;" d="M1283.531,1497.574c-17.184,0-32.855,16.625-34.984,37.129l-2.781,26.695
				c2.141-20.504,18.324-37.125,36.156-37.125s32.012,16.621,31.641,37.125l0.461-26.695
				C1314.387,1514.199,1300.734,1497.574,1283.531,1497.574z"/>
			<g>
				<path style="fill:#44ACD3;" d="M1282.879,1508.469c-17.465,0-33.328,16.629-35.469,37.125l-1.645,15.805
					c2.141-20.504,18.324-37.125,36.156-37.125s32.012,16.621,31.641,37.125l0.273-15.805
					C1314.195,1525.098,1300.328,1508.469,1282.879,1508.469z"/>
			</g>
			<g>
				<polygon style="fill:#F8A491;" points="1327.156,1625.898 1224.359,1625.898 1225.566,1615.789 1327.156,1615.789 				"/>
			</g>
			<g>
				<polygon style="fill:#FFFFFF;" points="1315.48,1549.188 1245.332,1549.188 1245.957,1543.367 1315.57,1543.367 				"/>
			</g>
			<polygon style="fill:#FFFFFF;" points="1279.766,1612.129 1274.457,1612.129 1282.016,1492.52 1286.57,1492.52 			"/>
			<polygon style="fill:#BD5539;" points="1323.129,1636.008 1226,1636.008 1227.195,1625.898 1323.203,1625.898 			"/>
		</g>
		<g>
			<g>
				<path style="fill:#FFFFFF;" d="M1691.133,1440.266l-1.012-83.785c-0.277-23.027,14.992-41.695,34.113-41.695
					c19.109,0,36.641,18.668,39.168,41.695l9.148,83.785H1691.133z"/>
			</g>
			<g>
				<path style="fill:#5FCAE9;" d="M1695.477,1433.789l-1.293-74.609c-0.355-20.504,13.297-37.125,30.496-37.125
					c17.191,0,32.863,16.621,34.98,37.125l7.758,74.609H1695.477z"/>
			</g>
			<path style="fill:#227C9A;" d="M1724.68,1322.055c17.191,0,32.863,16.621,34.98,37.125l2.777,26.695
				c-2.129-20.504-18.32-37.121-36.141-37.121c-17.836,0-32,16.617-31.645,37.121l-0.469-26.695
				C1693.828,1338.676,1707.48,1322.055,1724.68,1322.055z"/>
			<g>
				<path style="fill:#44ACD3;" d="M1725.332,1332.941c17.453,0,33.324,16.629,35.469,37.125l1.637,15.809
					c-2.129-20.504-18.32-37.121-36.141-37.121c-17.836,0-32,16.617-31.645,37.121l-0.281-15.809
					C1694.016,1349.57,1707.883,1332.941,1725.332,1332.941z"/>
			</g>
			<g>
				<polygon style="fill:#F8A491;" points="1681.059,1450.371 1783.855,1450.371 1782.637,1440.266 1681.059,1440.266 				"/>
			</g>
			<g>
				<polygon style="fill:#FFFFFF;" points="1692.727,1373.664 1762.883,1373.664 1762.262,1367.848 1692.641,1367.848 				"/>
			</g>
			<polygon style="fill:#FFFFFF;" points="1728.441,1436.605 1733.742,1436.605 1726.188,1316.996 1721.637,1316.996 			"/>
			<polygon style="fill:#BD5539;" points="1685.055,1460.488 1782.207,1460.488 1781.02,1450.371 1685.02,1450.371 			"/>
		</g>
		<g>
			<g>
				<path style="fill:#FFFFFF;" d="M1709.703,1615.789l-1.016-83.785c-0.273-23.027,14.988-41.695,34.105-41.695
					s36.648,18.668,39.176,41.695l9.145,83.785H1709.703z"/>
			</g>
			<g>
				<path style="fill:#5FCAE9;" d="M1714.047,1609.313l-1.289-74.609c-0.363-20.504,13.281-37.129,30.484-37.129
					c17.188,0,32.852,16.625,34.992,37.129l7.754,74.609H1714.047z"/>
			</g>
			<path style="fill:#227C9A;" d="M1743.242,1497.574c17.188,0,32.852,16.625,34.992,37.129l2.77,26.695
				c-2.129-20.504-18.313-37.125-36.145-37.125s-32,16.621-31.645,37.125l-0.457-26.695
				C1712.395,1514.199,1726.039,1497.574,1743.242,1497.574z"/>
			<g>
				<path style="fill:#44ACD3;" d="M1743.895,1508.469c17.461,0,33.344,16.629,35.469,37.125l1.641,15.805
					c-2.129-20.504-18.313-37.125-36.145-37.125s-32,16.621-31.645,37.125l-0.27-15.805
					C1712.586,1525.098,1726.438,1508.469,1743.895,1508.469z"/>
			</g>
			<g>
				<polygon style="fill:#F8A491;" points="1699.625,1625.898 1802.41,1625.898 1801.191,1615.789 1699.625,1615.789 				"/>
			</g>
			<g>
				<polygon style="fill:#FFFFFF;" points="1711.297,1549.188 1781.445,1549.188 1780.824,1543.367 1711.203,1543.367 				"/>
			</g>
			<polygon style="fill:#FFFFFF;" points="1746.996,1612.129 1752.309,1612.129 1744.75,1492.52 1740.203,1492.52 			"/>
			<polygon style="fill:#BD5539;" points="1703.633,1636.008 1800.777,1636.008 1799.582,1625.898 1703.582,1625.898 			"/>
		</g>
	</g>
</g>
<g>
	<g>
		<path style="fill:#1E1E3A;" d="M1910.859,1185.777c0,4.371-3.18,7.906-7.125,7.906l0,0c-3.922,0-7.133-3.535-7.133-7.906v-16.582
			c0-4.363,3.211-7.91,7.133-7.91l0,0c3.945,0,7.125,3.547,7.125,7.91V1185.777z"/>
		<path style="fill:#FEF6D3;" d="M1903.102,1232.109h-88.738c0,0,0.016,8.355,4.652,17.219
			c5.574,10.668,68.563,57.512,73.844,57.855l10.242,4.023l10.238-4.023c5.281-0.344,68.266-47.188,73.848-57.855
			c4.629-8.863,4.652-17.219,4.652-17.219H1903.102z"/>
		<rect x="1895.953" y="1310.762" style="fill:#393755;" width="10.703" height="431.422"/>
		<polygon style="fill:#534E6E;" points="1912.016,1868.719 1890.598,1868.719 1885.988,1698.863 1916.613,1698.863 		"/>
		<polygon style="fill:#393755;" points="1914.305,2016.492 1888.289,2016.492 1882.949,1812.672 1919.66,1812.672 		"/>
		<path style="fill:#1E1E3A;" d="M1886.633,1305.402c0,0-0.176,4.898,7.371,8.227c7.531,3.32,20.52-1.418,23.516-4.711
			c0,0,5.215-5.434-0.906-6.703C1913,1301.453,1885.988,1301.188,1886.633,1305.402z"/>
		<path style="fill:#393755;" d="M1815.125,1238.313c0,0,126.012-8.109,176.715,0c0,0,9.281-7.719,7.254-18.258
			c-2.027-10.551-53.625-42.945-97.723-41.441c0,0-76.691,11.301-95.703,42.188
			C1799.766,1230.395,1815.125,1238.313,1815.125,1238.313z"/>
	</g>
</g>
<g>
	<g>
		<rect x="342.762" y="1717.477" style="fill:#8E8783;" width="6.578" height="57.519"/>
		<polygon style="fill:#6B6561;" points="342.762,1734.934 347.094,1736.863 347.094,1774.996 349.34,1774.996 349.34,1724.52 
			342.762,1724.52 		"/>
		<rect x="358.637" y="1702.195" style="fill:#8E8783;" width="4.746" height="57.516"/>
		<polygon style="fill:#6B6561;" points="358.637,1732.152 361.969,1733.809 361.969,1759.711 363.383,1759.711 363.383,1724.809 
			358.637,1725.375 		"/>
	</g>
	<g>
		<rect x="532.754" y="1717.477" style="fill:#8E8783;" width="6.582" height="57.519"/>
		<polygon style="fill:#6B6561;" points="539.336,1721.605 532.754,1721.32 532.754,1774.996 534.543,1774.996 534.543,1735.336 
			539.336,1733.723 		"/>
		<rect x="518.723" y="1702.195" style="fill:#8E8783;" width="4.742" height="57.516"/>
		<polygon style="fill:#6B6561;" points="523.465,1723.953 518.723,1724.531 518.723,1759.711 519.926,1759.711 519.926,1733.527 
			523.465,1732.039 		"/>
	</g>
	<path style="fill:#6E2F15;" d="M542.313,1699.414H337.531v3.828h205.973v-1.516
		C543.063,1700.992,542.684,1700.215,542.313,1699.414z"/>
	<path style="fill:#6E2F15;" d="M553.613,1715.148c-0.926-1.168-1.871-2.324-2.813-3.477H328.086v3.832h225.551v-0.336
		C553.625,1715.164,553.613,1715.152,553.613,1715.148z"/>
	<path style="fill:#6E2F15;" d="M559.203,1723.934H318.625v3.828h242.496v-2.047C560.383,1725.316,559.73,1724.699,559.203,1723.934
		z"/>
	<rect x="358.637" y="1611.367" style="fill:#8E8783;" width="4.746" height="84.156"/>
	<rect x="358.637" y="1664.035" style="fill:#6B6561;" width="4.746" height="11.512"/>
	<rect x="358.637" y="1641.426" style="fill:#6B6561;" width="4.746" height="10.266"/>
	<rect x="358.637" y="1611.367" style="fill:#6B6561;" width="4.746" height="18.543"/>
	<g>
		<rect x="518.59" y="1611.367" style="fill:#8E8783;" width="4.754" height="84.156"/>
		<rect x="518.59" y="1664.035" style="fill:#6B6561;" width="4.754" height="11.512"/>
		<rect x="518.59" y="1641.426" style="fill:#6B6561;" width="4.754" height="10.266"/>
		<rect x="518.59" y="1611.367" style="fill:#6B6561;" width="4.754" height="18.543"/>
	</g>
	<g>
		<path style="fill:#BD693C;" d="M419.422,1626.535h120.871v-2.793C524.246,1621.082,463.133,1623.98,419.422,1626.535z"/>
		<g>
			<rect x="341.68" y="1609.523" style="fill:#D57D49;" width="198.613" height="17.012"/>
			<path style="fill:#BD693C;" d="M341.68,1619.316c100.813-7.84,182.266-4.625,198.613-3.844v-3.695
				c-26.375-3.688-168.016,2.25-198.613,3.586V1619.316z"/>
			<rect x="341.68" y="1609.523" style="fill:#F9A781;" width="198.613" height="1.844"/>
			<path style="fill:#BD693C;" d="M341.68,1625.273c38.438-3.938,174.996-4.859,198.613-4.988v-1.488
				c-28.149-2.828-169.902,2.453-198.613,3.563V1625.273z"/>
			<rect x="341.68" y="1625.273" style="fill:#9B502A;" width="198.613" height="1.262"/>
		</g>
		<g>
			<rect x="341.68" y="1631.535" style="fill:#D57D49;" width="198.613" height="17.008"/>
			<path style="fill:#BD693C;" d="M341.68,1641.328c100.813-7.844,182.266-4.629,198.613-3.852v-3.688
				c-26.375-3.691-168.016,2.242-198.613,3.586V1641.328z"/>
			<rect x="341.68" y="1631.535" style="fill:#F9A781;" width="198.613" height="1.844"/>
			<path style="fill:#BD693C;" d="M341.68,1647.285c38.438-3.941,174.996-4.863,198.613-4.988v-1.492
				c-28.149-2.824-169.902,2.457-198.613,3.563V1647.285z"/>
			<rect x="341.68" y="1647.285" style="fill:#9B502A;" width="198.613" height="1.258"/>
		</g>
		<g>
			<rect x="341.68" y="1653.543" style="fill:#D57D49;" width="198.613" height="17.012"/>
			<path style="fill:#BD693C;" d="M341.68,1663.34c100.813-7.844,182.266-4.633,198.613-3.844v-3.699
				c-26.375-3.684-168.016,2.246-198.613,3.59V1663.34z"/>
			<rect x="341.68" y="1653.543" style="fill:#F9A781;" width="198.613" height="1.844"/>
			<path style="fill:#BD693C;" d="M341.68,1669.297c38.438-3.945,174.996-4.863,198.613-4.992v-1.488
				c-28.149-2.824-169.902,2.453-198.613,3.563V1669.297z"/>
			<rect x="341.68" y="1669.297" style="fill:#9B502A;" width="198.613" height="1.258"/>
		</g>
		<g>
			<path style="fill:#8E8783;" d="M343.352,1672.031c0,0.309-0.223,0.559-0.512,0.559h-2.328c-0.277,0-0.504-0.25-0.504-0.559
				v-63.801c0-0.316,0.227-0.559,0.504-0.559h2.328c0.289,0,0.512,0.242,0.512,0.559V1672.031z"/>
			<path style="fill:#C1B8B3;" d="M341.496,1607.672h-0.984c-0.277,0-0.504,0.242-0.504,0.559v63.801
				c0,0.309,0.227,0.559,0.504,0.559h0.984V1607.672z"/>
			<path style="fill:#68625D;" d="M342.84,1607.672h-0.656v64.918h0.656c0.289,0,0.512-0.25,0.512-0.559v-63.801
				C343.352,1607.914,343.129,1607.672,342.84,1607.672z"/>
		</g>
		<g>
			<path style="fill:#8E8783;" d="M539.469,1672.031c0,0.309,0.219,0.559,0.496,0.559h2.336c0.266,0,0.496-0.25,0.496-0.559v-63.801
				c0-0.316-0.23-0.559-0.496-0.559h-2.336c-0.277,0-0.496,0.242-0.496,0.559V1672.031z"/>
			<path style="fill:#C1B8B3;" d="M541.297,1607.672h1.004c0.266,0,0.496,0.242,0.496,0.559v63.801c0,0.309-0.23,0.559-0.496,0.559
				h-1.004V1607.672z"/>
			<path style="fill:#68625D;" d="M539.965,1607.672h0.668v64.918h-0.668c-0.277,0-0.496-0.25-0.496-0.559v-63.801
				C539.469,1607.914,539.688,1607.672,539.965,1607.672z"/>
		</g>
		<g>
			<g>
				<g>
					<path style="fill:#8C4223;" d="M363.383,1618.766c0,1.457-1.059,2.629-2.379,2.629c-1.313,0-2.367-1.172-2.367-2.629
						s1.055-2.637,2.367-2.637C362.324,1616.129,363.383,1617.309,363.383,1618.766z"/>
					<g>
						<path style="fill:#B3CBD1;" d="M363.383,1617.84c0,1.461-1.059,2.641-2.379,2.641c-1.313,0-2.367-1.18-2.367-2.641
							c0-1.457,1.055-2.633,2.367-2.633C362.324,1615.207,363.383,1616.383,363.383,1617.84z"/>
						<path style="fill:#819CA3;" d="M361.004,1619.023c-1.082,0-1.984-0.816-2.266-1.91c-0.07,0.234-0.102,0.473-0.102,0.727
							c0,1.461,1.055,2.641,2.367,2.641c1.32,0,2.379-1.18,2.379-2.641c0-0.254-0.047-0.492-0.105-0.727
							C362.996,1618.207,362.086,1619.023,361.004,1619.023z"/>
						<path style="fill:#516A6F;" d="M361.004,1620.086c-1.25,0-2.266-1.086-2.359-2.457c-0.008,0.074-0.008,0.141-0.008,0.211
							c0,1.461,1.055,2.641,2.367,2.641c1.32,0,2.379-1.18,2.379-2.641c0-0.07-0.012-0.137-0.012-0.211
							C363.277,1619,362.266,1620.086,361.004,1620.086z"/>
						<path style="fill:#FFFFFF;" d="M363.188,1617.84c0,1.332-0.984-0.137-2.184-0.137c-1.199,0-2.176,1.469-2.176,0.137
							c0-1.328,0.977-2.406,2.176-2.406C362.203,1615.434,363.188,1616.512,363.188,1617.84z"/>
					</g>
				</g>
				<g>
					<path style="fill:#8C4223;" d="M363.383,1640.957c0,1.457-1.059,2.641-2.379,2.641c-1.313,0-2.367-1.184-2.367-2.641
						c0-1.453,1.055-2.637,2.367-2.637C362.324,1638.32,363.383,1639.504,363.383,1640.957z"/>
					<g>
						<path style="fill:#B3CBD1;" d="M363.383,1640.035c0,1.457-1.059,2.637-2.379,2.637c-1.313,0-2.367-1.18-2.367-2.637
							s1.055-2.637,2.367-2.637C362.324,1637.398,363.383,1638.578,363.383,1640.035z"/>
						<path style="fill:#819CA3;" d="M361.004,1641.215c-1.082,0-1.984-0.809-2.266-1.91c-0.07,0.238-0.102,0.477-0.102,0.73
							c0,1.457,1.055,2.637,2.367,2.637c1.32,0,2.379-1.18,2.379-2.637c0-0.254-0.047-0.492-0.105-0.73
							C362.996,1640.406,362.086,1641.215,361.004,1641.215z"/>
						<path style="fill:#516A6F;" d="M361.004,1642.277c-1.25,0-2.266-1.086-2.359-2.449c-0.008,0.066-0.008,0.141-0.008,0.207
							c0,1.457,1.055,2.637,2.367,2.637c1.32,0,2.379-1.18,2.379-2.637c0-0.066-0.012-0.141-0.012-0.207
							C363.277,1641.191,362.266,1642.277,361.004,1642.277z"/>
						<path style="fill:#FFFFFF;" d="M363.188,1640.035c0,1.332-0.984-0.141-2.184-0.141c-1.199,0-2.176,1.473-2.176,0.141
							c0-1.328,0.977-2.406,2.176-2.406C362.203,1637.629,363.188,1638.707,363.188,1640.035z"/>
					</g>
				</g>
				<g>
					<path style="fill:#8C4223;" d="M363.383,1663.711c0,1.449-1.059,2.633-2.379,2.633c-1.313,0-2.367-1.184-2.367-2.633
						c0-1.457,1.055-2.637,2.367-2.637C362.324,1661.074,363.383,1662.254,363.383,1663.711z"/>
					<g>
						<path style="fill:#B3CBD1;" d="M363.383,1662.785c0,1.457-1.059,2.633-2.379,2.633c-1.313,0-2.367-1.176-2.367-2.633
							c0-1.453,1.055-2.637,2.367-2.637C362.324,1660.148,363.383,1661.332,363.383,1662.785z"/>
						<path style="fill:#819CA3;" d="M361.004,1663.969c-1.082,0-1.984-0.816-2.266-1.91c-0.07,0.234-0.102,0.473-0.102,0.727
							c0,1.457,1.055,2.633,2.367,2.633c1.32,0,2.379-1.176,2.379-2.633c0-0.254-0.047-0.492-0.105-0.727
							C362.996,1663.152,362.086,1663.969,361.004,1663.969z"/>
						<path style="fill:#516A6F;" d="M361.004,1665.023c-1.25,0-2.266-1.086-2.359-2.449c-0.008,0.066-0.008,0.141-0.008,0.211
							c0,1.457,1.055,2.633,2.367,2.633c1.32,0,2.379-1.176,2.379-2.633c0-0.07-0.012-0.145-0.012-0.211
							C363.277,1663.938,362.266,1665.023,361.004,1665.023z"/>
						<path style="fill:#FFFFFF;" d="M363.188,1662.785c0,1.332-0.984-0.145-2.184-0.145c-1.199,0-2.176,1.477-2.176,0.145
							s0.977-2.41,2.176-2.41C362.203,1660.375,363.188,1661.453,363.188,1662.785z"/>
					</g>
				</g>
			</g>
			<g>
				<g>
					<path style="fill:#8C4223;" d="M523.344,1618.766c0,1.457-1.063,2.629-2.375,2.629c-1.317,0-2.379-1.172-2.379-2.629
						s1.063-2.637,2.379-2.637C522.281,1616.129,523.344,1617.309,523.344,1618.766z"/>
					<g>
						<path style="fill:#B3CBD1;" d="M523.344,1617.84c0,1.461-1.063,2.641-2.375,2.641c-1.317,0-2.379-1.18-2.379-2.641
							c0-1.457,1.063-2.633,2.379-2.633C522.281,1615.207,523.344,1616.383,523.344,1617.84z"/>
						<path style="fill:#819CA3;" d="M520.969,1619.023c-1.082,0-1.984-0.816-2.273-1.91c-0.055,0.234-0.106,0.473-0.106,0.727
							c0,1.461,1.063,2.641,2.379,2.641c1.313,0,2.375-1.18,2.375-2.641c0-0.254-0.039-0.492-0.098-0.727
							C522.957,1618.207,522.055,1619.023,520.969,1619.023z"/>
						<path style="fill:#516A6F;" d="M520.969,1620.086c-1.262,0-2.273-1.086-2.352-2.457c-0.016,0.074-0.027,0.141-0.027,0.211
							c0,1.461,1.063,2.641,2.379,2.641c1.313,0,2.375-1.18,2.375-2.641c0-0.07-0.012-0.137-0.012-0.211
							C523.246,1619,522.215,1620.086,520.969,1620.086z"/>
						<path style="fill:#FFFFFF;" d="M523.141,1617.84c0,1.332-0.969-0.137-2.172-0.137c-1.199,0-2.168,1.469-2.168,0.137
							c0-1.328,0.969-2.406,2.168-2.406C522.172,1615.434,523.141,1616.512,523.141,1617.84z"/>
					</g>
				</g>
				<g>
					<path style="fill:#8C4223;" d="M523.344,1640.957c0,1.457-1.063,2.641-2.375,2.641c-1.317,0-2.379-1.184-2.379-2.641
						c0-1.453,1.063-2.637,2.379-2.637C522.281,1638.32,523.344,1639.504,523.344,1640.957z"/>
					<g>
						<path style="fill:#B3CBD1;" d="M523.344,1640.035c0,1.457-1.063,2.637-2.375,2.637c-1.317,0-2.379-1.18-2.379-2.637
							s1.063-2.637,2.379-2.637C522.281,1637.398,523.344,1638.578,523.344,1640.035z"/>
						<path style="fill:#819CA3;" d="M520.969,1641.215c-1.082,0-1.984-0.809-2.273-1.91c-0.055,0.238-0.106,0.477-0.106,0.73
							c0,1.457,1.063,2.637,2.379,2.637c1.313,0,2.375-1.18,2.375-2.637c0-0.254-0.039-0.492-0.098-0.73
							C522.957,1640.406,522.055,1641.215,520.969,1641.215z"/>
						<path style="fill:#516A6F;" d="M520.969,1642.277c-1.262,0-2.273-1.086-2.352-2.449c-0.016,0.066-0.027,0.141-0.027,0.207
							c0,1.457,1.063,2.637,2.379,2.637c1.313,0,2.375-1.18,2.375-2.637c0-0.066-0.012-0.141-0.012-0.207
							C523.246,1641.191,522.215,1642.277,520.969,1642.277z"/>
						<path style="fill:#FFFFFF;" d="M523.141,1640.035c0,1.332-0.969-0.141-2.172-0.141c-1.199,0-2.168,1.473-2.168,0.141
							c0-1.328,0.969-2.406,2.168-2.406C522.172,1637.629,523.141,1638.707,523.141,1640.035z"/>
					</g>
				</g>
				<g>
					<path style="fill:#8C4223;" d="M523.344,1663.711c0,1.449-1.063,2.633-2.375,2.633c-1.317,0-2.379-1.184-2.379-2.633
						c0-1.457,1.063-2.637,2.379-2.637C522.281,1661.074,523.344,1662.254,523.344,1663.711z"/>
					<g>
						<path style="fill:#B3CBD1;" d="M523.344,1662.785c0,1.457-1.063,2.633-2.375,2.633c-1.317,0-2.379-1.176-2.379-2.633
							c0-1.453,1.063-2.637,2.379-2.637C522.281,1660.148,523.344,1661.332,523.344,1662.785z"/>
						<path style="fill:#819CA3;" d="M520.969,1663.969c-1.082,0-1.984-0.816-2.273-1.91c-0.055,0.234-0.106,0.473-0.106,0.727
							c0,1.457,1.063,2.633,2.379,2.633c1.313,0,2.375-1.176,2.375-2.633c0-0.254-0.039-0.492-0.098-0.727
							C522.957,1663.152,522.055,1663.969,520.969,1663.969z"/>
						<path style="fill:#516A6F;" d="M520.969,1665.023c-1.262,0-2.273-1.086-2.352-2.449c-0.016,0.066-0.027,0.141-0.027,0.211
							c0,1.457,1.063,2.633,2.379,2.633c1.313,0,2.375-1.176,2.375-2.633c0-0.07-0.012-0.145-0.012-0.211
							C523.246,1663.938,522.215,1665.023,520.969,1665.023z"/>
						<path style="fill:#FFFFFF;" d="M523.141,1662.785c0,1.332-0.969-0.145-2.172-0.145c-1.199,0-2.168,1.477-2.168,0.145
							s0.969-2.41,2.168-2.41C522.172,1660.375,523.141,1661.453,523.141,1662.785z"/>
					</g>
				</g>
			</g>
		</g>
	</g>
	<g>
		<path style="fill:#BD693C;" d="M541.625,1697.828c-18.129-1.434-78.883,0.172-123.473,1.586h124.16
			C542.09,1698.887,541.852,1698.355,541.625,1697.828z"/>
		<g>
			<g>
				<path style="fill:#D57D49;" d="M541.305,1697.113l-6.832-7.176H344.844l-7.313,9.477h204.781
					C541.984,1698.656,541.644,1697.883,541.305,1697.113z"/>
			</g>
			<path style="fill:#BD693C;" d="M340.629,1695.395c100.57-4.367,180.559-2.586,196.992-2.152l-1.941-2.051
				c-26.98-2.055-162.887,1.254-193.348,2L340.629,1695.395z"/>
			<g>
				<polygon style="fill:#F9A781;" points="344.043,1690.965 535.453,1690.965 534.473,1689.938 344.844,1689.938 				"/>
			</g>
			<path style="fill:#BD693C;" d="M338.082,1698.715c40.574-2.207,178.375-2.715,202.098-2.785l-0.789-0.828
				c-29.254-1.574-170.547,1.363-200.062,1.98L338.082,1698.715z"/>
			<path style="fill:#9B502A;" d="M542.008,1698.715H338.082l-0.551,0.699h204.781
				C542.215,1699.18,542.113,1698.949,542.008,1698.715z"/>
		</g>
		<g>
			<g>
				<path style="fill:#D57D49;" d="M543.785,1702.195H335.383l-7.297,9.477h222.715
					C548.316,1708.645,545.82,1705.594,543.785,1702.195z"/>
			</g>
			<path style="fill:#BD693C;" d="M544.457,1703.285c-35.527-1.699-178.836,1.438-211.578,2.164l-1.699,2.203
				c105.527-4.148,190.688-2.746,214.727-2.223C545.402,1704.727,544.922,1704.016,544.457,1703.285z"/>
			<g>
				<path style="fill:#F9A781;" d="M543.785,1702.195H335.383l-0.781,1.027h209.812
					C544.199,1702.883,543.988,1702.539,543.785,1702.195z"/>
			</g>
			<path style="fill:#BD693C;" d="M547.215,1707.211c-39.211-1.223-185.906,1.535-217.336,2.137l-1.262,1.621
				c42.844-2.105,184.652-2.664,219.371-2.773C547.73,1707.871,547.477,1707.543,547.215,1707.211z"/>
			<path style="fill:#9B502A;" d="M550.215,1710.969H328.617l-0.531,0.703h222.715
				C550.605,1711.441,550.418,1711.207,550.215,1710.969z"/>
		</g>
		<g>
			<g>
				<path style="fill:#D57D49;" d="M558.012,1722.207c-0.644-0.93-1.313-1.859-1.926-2.82c-0.734-1.168-1.352-2.352-1.894-3.609
					c-0.035-0.027-0.066-0.059-0.102-0.094h-0.453v-0.516c-0.012-0.004-0.023-0.016-0.023-0.02
					c-0.195-0.234-0.371-0.461-0.563-0.695H325.938l-7.313,9.48h240.578c-0.051-0.059-0.09-0.117-0.133-0.18
					C558.508,1722.891,558.637,1723.086,558.012,1722.207z"/>
			</g>
			<path style="fill:#BD693C;" d="M554.09,1715.684h-0.453v-0.227c-42.383-1.5-194.969,1.539-230.203,2.25l-1.707,2.203
				c112.707-4.035,204.344-2.816,233.363-2.262c-0.324-0.613-0.637-1.234-0.898-1.871
				C554.156,1715.75,554.125,1715.719,554.09,1715.684z"/>
			<g>
				<path style="fill:#F9A781;" d="M553.613,1715.148c-0.195-0.234-0.371-0.461-0.563-0.695H325.938l-0.793,1.023h228.492v-0.309
					C553.625,1715.164,553.613,1715.152,553.613,1715.148z"/>
			</g>
			<path style="fill:#BD693C;" d="M556.105,1719.406c-46.238-1.063-201.926,1.613-235.687,2.199l-1.246,1.625
				c45.797-2.063,195.762-2.645,237.637-2.766C556.57,1720.113,556.324,1719.77,556.105,1719.406z"/>
			<path style="fill:#9B502A;" d="M559.07,1723.754c-0.164-0.238-0.254-0.406-0.344-0.523H319.172l-0.547,0.703h240.578
				C559.152,1723.875,559.113,1723.816,559.07,1723.754z"/>
		</g>
	</g>
	<g>
		<rect x="317.414" y="1723.934" style="fill:#675E57;" width="3.438" height="3.828"/>
		<polygon style="fill:#C1B8B3;" points="320.852,1723.934 317.414,1723.934 342.82,1689.938 346.281,1689.938 		"/>
	</g>
	<g>
		<rect x="558.777" y="1723.934" style="fill:#675E57;" width="3.445" height="3.828"/>
		<polygon style="fill:#C1B8B3;" points="558.777,1723.934 562.223,1723.934 536.809,1689.938 533.355,1689.938 		"/>
	</g>
</g>
<g>
	<g>
		<g>
			<g>
				<path style="fill:#E37C29;" d="M763.164,1331.438c0,0,1.887-98.254-42.406-106.152c-44.301-7.899-130.633,18.785-174.394,11.183
					c-43.742-7.594-196.063-44.535-197,114.766c0,0-4.063,80.227-17.637,129.5c-13.586,49.25-13.203,119.953,36.152,140.039
					c49.363,20.07,435.738,9.621,437.719-53.527C807.566,1504.125,754.469,1359.156,763.164,1331.438z"/>
				<g>
					<g>
						<g>
							<path style="fill:#C07457;" d="M685.754,1286.465c0,0,7.801-2.887,21.441-7.918c13.875-5.18,33.754-12.73,57.316-22.18
								c23.469-9.543,50.762-20.973,78.27-34.598c13.734-6.746,27.395-14.34,39.957-22.227c6.219-3.961,12.121-8.102,17.066-12.16
								c2.504-2.02,4.699-4.02,6.519-5.824c0.957-0.918,1.715-1.762,2.398-2.519c0.305-0.363,0.734-0.77,0.938-1.055l0.387-0.457
								l0.211-0.227c-1.074,2.023-0.238,0.461-0.453,0.867l0.109-0.184l0.207-0.348l6.719-11.328l5.113-9.586
								c0.852-1.5,1.731-3.281,2.598-5.16l2.602-5.469c1.762-3.617,3.469-7.289,5.066-11.086
								c6.645-14.875,12.746-30.234,18.465-45.141c5.504-15.043,10.922-29.66,15.668-43.707
								c4.746-14.035,9.219-27.379,13.117-39.766c2.008-6.184,3.805-12.137,5.543-17.797c1.785-5.656,3.422-11.031,4.891-16.094
								c3.008-10.129,5.52-18.961,7.539-26.242c1.941-7.281,3.59-12.992,4.492-16.863c0.996-3.894,1.523-5.969,1.523-5.969
								l26.867,3.055c0,0-0.035,2.27-0.098,6.531c-0.035,4.293-0.184,10.504-0.617,18.379c-0.457,7.856-1.004,17.406-2.074,28.254
								c-0.965,10.887-2.223,23.125-4.004,36.418c-1.668,13.32-3.734,27.715-6.356,42.898c-2.531,15.195-5.543,31.227-9.148,47.77
								c-3.852,16.547-7.621,33.719-13.023,51.199c-1.227,4.363-2.629,8.773-4.137,13.211l-2.191,6.664
								c-0.711,2.195-1.477,4.453-2.457,6.914l-5.574,14.387l-5.254,12.086l-0.156,0.375l-0.082,0.184
								c-0.273,0.531,0.504-0.91-0.645,1.234l-0.633,1.188l-1.285,2.367c-0.875,1.629-1.754,2.977-2.656,4.449
								c-1.797,2.852-3.641,5.543-5.496,7.981c-3.719,4.98-7.508,9.387-11.305,13.414c-7.598,8.098-15.25,14.926-22.871,21.254
								c-15.219,12.641-30.574,22.844-45.414,32.324c-14.848,9.457-29.422,17.68-43.289,25.188
								c-13.848,7.547-27.09,14.172-39.359,20.098c-24.535,11.883-45.313,20.734-60.012,26.742
								c-7.34,3.039-13.203,5.238-17.242,6.793c-4.168,1.566-6.394,2.402-6.394,2.402L685.754,1286.465z"/>
						</g>
					</g>
					<g>
						<path style="fill:#C07457;" d="M471.219,2121.32c1.406-7.535,2.777-14.809,4.109-21.691
							c4.344-22.352,7.961-40.973,10.492-54.016c2.621-13.086,4.125-20.586,4.125-20.586l-139.762-14.691
							c0,0-0.07,7.734-0.188,21.262c-0.023,13.602-0.078,33.043-0.117,56.379c-0.027,10.387,0.016,21.582,0.105,33.344H471.219z"/>
						<path style="fill:#9F5540;" d="M471.219,2121.32c0.113-0.613,0.234-1.266,0.348-1.875l-121.707-23.422
							c0.008,8.02,0.059,16.547,0.125,25.297H471.219z"/>
					</g>
					<g>
						<path style="fill:#C07457;" d="M650.617,2099.629c1.34,6.883,2.711,14.156,4.117,21.691h121.234
							c0.09-11.762,0.137-22.957,0.113-33.344c-0.059-23.336-0.098-42.777-0.137-56.379c-0.117-13.527-0.164-21.262-0.164-21.262
							l-139.758,14.691c0,0,1.5,7.5,4.117,20.586C642.664,2058.656,646.289,2077.277,650.617,2099.629z"/>
						<path style="fill:#9F5540;" d="M775.969,2121.32c0.012-1.527,0.023-3.102,0.035-4.617l-34.637,4.617H775.969z"/>
					</g>
					<path style="fill:#B1654D;" d="M395.227,1292.324c7.086-11.313,134.152-41.004,134.152-41.004c26.152-5.543,36.578,0,36.578,0
						s10.418-5.543,36.543,0c0,0,127.059,29.691,134.156,41.004c7.086,11.313,75.031,446.336,57.656,519.863
						c-17.383,73.52-90.066,100.598-229.934,98.973c-139.867,1.625-212.551-25.453-229.922-98.973
						C317.082,1738.66,388.141,1303.637,395.227,1292.324z"/>
					<path style="fill:#B1654D;" d="M512.133,1149.512l-17.707,147.793c0,0,64.371,59.645,142.703-1.293l-26.492-146.5H512.133z"/>
					<path style="fill:#9F5540;" d="M626.344,1236.383c-29.184,11.078-79.047,25.223-126.567,16.23l12.16-101.367l102.691,20.356
						L626.344,1236.383z"/>
					<path style="fill:#30316F;" d="M821.394,2121.32c-25.976-112.805-32.969-312.105-32.969-312.105
						s-448.328-233.793-449.137-4.746c-0.609,172.746-16.301,269.535-27.508,316.852H821.394z"/>
					<path style="fill:#1B1C49;" d="M677.348,2121.32c-13.32-76.648-28.906-190.547-41.324-183.559
						c-11.977,6.75,7.84,110.359,18.34,183.559H677.348z"/>
					<path style="fill:#1B1C49;" d="M563.23,2121.32c-1.73-77.68,2.195-185.754-5.965-178.844
						c-7.941,6.734-6.766,106.152-10.617,178.844H563.23z"/>
					<path style="fill:#1B1C49;" d="M778.816,2121.32c-19.957-56.809-46.52-158.133-57.527-150.566
						c-10.137,6.98,15.508,94.313,30.543,150.566H778.816z"/>
					<path style="fill:#1B1C49;" d="M379.652,2121.32c10.633-66.406,39.953-187.086,31.051-189.219
						c-8.813-2.109-28.391,125.043-44.41,189.219H379.652z"/>
					<path style="fill:#1B1C49;" d="M460.633,2121.32c5.09-75.898,17.688-189.164,5.816-183.871
						c-11.785,5.27-18.586,113.441-25.074,183.871H460.633z"/>
					<path style="fill:#1B1C49;" d="M788.426,1809.215c0,0,0.582,16.477,2.016,42.59c-50.688,17.688-279.273,89.883-452.242,20.414
						c0.613-21.191,1-43.695,1.09-67.75c0.086-23.949,5.117-42.777,13.953-57.395l255.254-12.949
						C704.09,1765.258,788.426,1809.215,788.426,1809.215z"/>
					<path style="fill:#DB2739;" d="M635.629,1259.418c0,0-55.453,82.309-139.387,0c0,0-74.945,16.535-97.563,27.844
						c0,0-107.469,503.059-59.723,539.723c0,0,196.852,110.414,448.914,4.84c0,0,60.441-0.023-55.805-547.512L635.629,1259.418z"/>
					<path style="fill:#DB2739;" d="M695.867,1289.098l142.48-88.629c0,0,83.789,45.582,85.398,101.504l-166.676,72.082
						C757.07,1374.055,674.234,1358.984,695.867,1289.098z"/>
					<path style="fill:#C07457;" d="M171.867,1506.238l0.09,0.785l0.063,0.383c0.262,1.551-0.547-2.883,0.613,3.563l0.188,0.625
						l0.164,0.621c0.371,1.391,0.938,3.063,1.531,4.547c0.621,1.52,1.324,3.012,2.098,4.426c0.738,1.281,1.066,1.703,1.645,2.574
						c1.008,1.469,2.297,3.172,3.223,4.117c4.371,4.824,7.707,6.813,10.934,8.875c3.031,1.762,5.809,3.086,8.281,4.105
						c4.992,2.043,9.309,3.328,13.469,4.43c16.32,4.098,30.332,5.547,44.082,6.914c13.66,1.254,26.621,1.934,38.84,2.66
						c12.23,0.633,23.719,1.027,34.309,1.301c21.184,0.426,38.746,0.859,51.07,0.891c12.406,0.094,19.492,0.137,19.492,0.137
						l0.355-46.695c-1.109-0.438-2.191-0.902-3.273-1.402c-0.484-0.012-0.945-0.023-1.508-0.039
						c-3.207-0.098-7.902-0.254-13.879-0.438c-11.965-0.586-29.09-1.219-49.5-3.035c-20.34-1.828-44.207-3.922-68.578-8.371
						c-7.816-1.41-15.844-3.055-23.297-4.988c3.609-3.438,7.754-6.988,12.238-10.453c9.266-7.152,19.539-13.941,29.836-20.246
						c4.707-2.816,9.395-5.488,14.059-8.098c-0.426-1.535-0.789-3.113-1.004-4.746c-3.727-26.898-7.773-53.769-11.547-80.672
						c-13.855,9.777-28.781,20.832-44.266,33.438c-10.883,8.824-22.004,18.391-33.059,29.547
						c-5.52,5.59-11.035,11.652-16.422,18.555c-5.371,7-10.773,14.738-15.344,25.375c-2.215,5.391-4.234,11.652-5.012,19.234
						C171.375,1497.891,171.355,1502.02,171.867,1506.238z M224.199,1485.668c0.23,0.117,0.563,0.215,1.414,0.957
						c-0.168-0.105-0.379-0.207-0.527-0.289C224.387,1485.965,224.113,1485.672,224.199,1485.668z"/>
					<path style="fill:#DB2739;" d="M408.094,1284.313l-150.82,73.531c0,0-5.965,95.191,40.535,126.309l83.508-48.246
						C381.316,1435.906,478.793,1303.168,408.094,1284.313z"/>
					<path style="fill:#EFA63F;" d="M458.117,1269.145c0,0,56.984,414.008-127.031,433.508c0,0-17.16-22.547,2.289-50.477
						c0,0,83.859-40.289,86.672-136.441c0,0,2.945-156.02-11.953-231.422c0,0,1.363-7.539,7.727-9.309
						c6.363-1.77,19.789-6.367,27.918-9.906C451.871,1261.57,457.543,1264.344,458.117,1269.145z"/>
					<path style="fill:#C07457;" d="M399.555,1513.254c0,0-5.301-32.867,12.016-32.52c17.32,0.348,33.637,0.711,40.664,0.711
						c0,0,20.488-0.363,22.977,8.129c2.473,8.48-1.023,19.375-1.023,19.375s9.852,19.5,0.301,27.988c0,0,11.324,13.434,0.723,20.859
						c-10.621,7.422-62.699,14.074-73.063,5.234C391.77,1554.191,390.367,1532.344,399.555,1513.254z"/>
					<path style="fill:#EFA63F;" d="M737.008,1276.773c0,0,78.461,202.66,77.363,334.152c-0.219,26-6.418,31.113-16.805,51.57
						l-9.207-65.008c0,0-85.359-288.891-97.801-323.902c0,0,3.039-12.363,15.785-8.121
						C719.117,1269.707,730.539,1263.668,737.008,1276.773z"/>
				</g>
			</g>
		</g>
		<g>
			<path style="fill:#290006;" d="M369.719,1083.027c0,0-46.633,37.215-65.734-12.77c0,0-54.453,10.828-58.699-47.148
				c0,0-63.617-10.859-50.895-92.391c0,0-39.59-36.285-16.973-80.117c0,0-49.492-36.758-22.617-84.836
				c0,0-49.488-56.559,14.129-91.914c0,0-37.125-94.727,39.23-86.246c0,0,0.324-93.324,72.273-77.77c0,0-8.566-65.039,55.523-46.656
				c0,0,22.449-74.938,90.316-46.664c0,0,40.305-45.246,92.973-12.723c0,0,56.211-60.801,107.176,3.324
				c0,0,64.77-21.043,74.102,46.16c0,0,74.125-41.004,104.246,25.453c0,0,62.578,6.406,59.754,51.98
				c0,0,82.102,18.715,48.035,85.176c0,0,96.273,36.762,43.957,125.324c0,0,32.973,56.484,4.481,91.43
				c0,0,54.898,73.023-7.309,116.332c0,0,14.129,56.23-41.016,64.477c0,0-2.82,64.809-62.207,36.523
				c0,0-45.324,63.633-97.594,25.445L369.719,1083.027z"/>
			<g>
				<g>
					<g>
						<path style="fill:#C07457;" d="M795.328,912.535c0,0,25.227-44.277,64.516-44.891c23.336-0.375,16.43,95.434-7.609,120.188
							c-24.031,24.746-59.031,16.492-66.809-5.426L795.328,912.535z"/>
						<path style="fill:#A9614A;" d="M800.727,979.289c0,0,29.328,10.297,41.965-14.152c12.66-24.445,24.957-53.832,15.152-75.395
							c0,0-27.059,6.309-52.063,56.789C805.781,946.531,824.105,969.293,800.727,979.289z"/>
						<g>
							<g>
								<path style="fill:#91554A;" d="M861.832,920.453c-0.262-4.629-0.519-9.242-1.031-13.813
									c-0.574-4.52-1.137-9.195-2.641-13.172c-0.367-0.965-0.906-1.855-1.383-2.273c-0.563-0.238-0.156-0.336-1.129,0.148
									l-3.07,1.606l-2.664,1.894c-1.758,1.192-3.523,2.535-5.277,4.031c-1.73,1.461-3.57,2.773-5.176,4.398l-4.977,4.648
									c-1.672,1.535-3.137,3.281-4.711,4.91c-1.508,1.691-3.203,3.227-4.555,5.047l-4.262,5.289l-2.121,2.644l-1.852,2.836
									l-3.734,5.652c-1.363,1.82-2.117,3.957-3.215,5.926l-3.059,6.027l-0.367-2.242c1.27,1.629,2.238,3.211,3.203,4.902
									c0.934,1.688,1.801,3.414,2.473,5.242c0.723,1.801,1.25,3.703,1.535,5.656c0.082,0.992,0.348,1.941,0.266,2.957
									c-0.066,1.004,0.051,2-0.184,2.988c-0.238,0.98-0.328,1.988-0.711,2.922l-1.27,2.711l-1.816,2.332
									c-0.59,0.785-1.449,1.289-2.156,1.933c-0.719,0.641-1.469,1.211-2.34,1.609l-2.484,1.34
									c-0.832,0.414-1.762,0.617-2.629,0.934l-2.637,0.855c1.637-0.867,3.301-1.656,4.859-2.563l2.207-1.57
									c0.769-0.469,1.406-1.09,1.992-1.758c0.566-0.672,1.301-1.203,1.723-1.965l1.328-2.203l0.777-2.402
									c0.219-0.801,0.227-1.66,0.359-2.477c0.137-0.816-0.066-1.684-0.074-2.512c0.016-0.836-0.309-1.672-0.445-2.5
									c-0.133-0.836-0.492-1.641-0.754-2.453c-0.246-0.82-0.629-1.605-0.98-2.398c-1.438-3.121-3.43-6.188-5.613-8.727
									l-0.91-1.055l0.543-1.184l2.961-6.465c1.066-2.106,1.805-4.418,3.152-6.367l3.789-5.992l1.906-2.988l2.18-2.785l4.402-5.539
									c1.43-1.879,3.199-3.445,4.785-5.184c1.66-1.668,3.199-3.453,4.949-5.023l5.297-4.668c1.707-1.602,3.695-2.918,5.547-4.367
									c1.832-1.441,3.781-2.84,5.953-4.082l3.137-1.895l3.168-1.41c0.336-0.184,1.609-0.719,2.582-0.531
									c1.113,0.066,2,0.715,2.621,1.301c1.133,1.262,1.586,2.531,1.969,3.738c1.363,4.84,1.422,9.496,1.414,14.172
									C862.633,911.207,862.402,915.844,861.832,920.453z"/>
							</g>
						</g>
						<g>
							<g>
								<path style="fill:#91554A;" d="M853.379,924.852c0,0-1.734-1.754-4.473-3.383c-0.723-0.355-1.445-0.793-2.262-1.125
									c-0.789-0.398-1.699-0.613-2.574-0.957c-1.832-0.461-3.769-0.957-5.836-0.992c-1.012-0.129-2.039-0.188-3.078-0.117
									c-1.027,0.02-2.066-0.051-3.066,0.086c-0.996,0.129-2,0.031-2.938,0.191c-0.938,0.133-1.844,0.191-2.688,0.246
									c-1.695,0.137-3.117,0.352-4.16,0.383c-1.039,0.059-1.664,0.047-1.664,0.047s0.453-0.395,1.297-1.02
									c0.859-0.586,2.063-1.535,3.68-2.297c1.617-0.77,3.547-1.648,5.797-2.106c1.102-0.289,2.273-0.547,3.508-0.578
									c1.207-0.137,2.453-0.149,3.723-0.051c1.258,0.055,2.516,0.371,3.742,0.637c1.227,0.266,2.367,0.852,3.457,1.328
									c2.164,1.102,3.879,2.629,5.059,4.098C853.281,922.273,853.379,924.852,853.379,924.852z"/>
							</g>
						</g>
					</g>
					<path style="fill:#C07457;" d="M587.813,1229.59c0,0,124.356-38.066,166.867-102.156
						c34.957-44.961,54.125-251.047,57.992-286.648c0.117-1.172,0.254-2.352,0.371-3.535c0.125-1.129,0.176-1.742,0.176-1.742
						l-0.051,0.031c0.664-7.363,1.062-14.793,1.062-22.332c0-137.273-111.297-248.559-248.574-248.559
						c-137.258,0-248.547,111.285-248.547,248.559c0,8.941,0.488,17.738,1.414,26.43l-0.02-0.004c0,0,19.848,238.555,58.133,287.801
						c45,73.469,166.879,102.156,166.879,102.156S564.535,1237.277,587.813,1229.59z"/>
					<path style="fill:#A9614A;" d="M565.656,564.648c137.277,0,248.574,111.285,248.574,248.559c0,7.539-0.398,14.969-1.062,22.332
						l0.051-0.031c0,0-0.051,0.613-0.176,1.742c-0.117,1.184-0.254,2.363-0.371,3.535c-0.098,0.922-0.227,2.035-0.34,3.188
						c-23.48-70.918-85.137-181.262-241.715-182.262c-169.043,1.074-229.156,135.934-249.238,208.094
						c-1.918-18.586-2.875-30.172-2.875-30.172l0.02,0.004c-0.926-8.691-1.414-17.488-1.414-26.43
						C317.109,675.934,428.398,564.648,565.656,564.648z"/>
					<path style="fill:#A9614A;" d="M338.957,1000.934c12.734-9.371,22.461,24.219,55.453,105.293
						c26.281,64.574,133.594,110.574,176.187,126.629c-15.496,0.953-27.082-3.266-27.082-3.266s-121.879-28.688-166.879-102.156
						C360.945,1107.254,348.359,1055.266,338.957,1000.934L338.957,1000.934z"/>
					<g>
						<path style="fill:#C07457;" d="M333.609,923.008c0,0-25.238-44.281-64.527-44.895c-23.316-0.379-16.418,95.426,7.609,120.172
							c24.051,24.75,59.039,16.492,66.813-5.422L333.609,923.008z"/>
						<path style="fill:#A9614A;" d="M328.23,989.746c0,0-29.34,10.297-41.98-14.148c-12.656-24.449-24.965-53.828-15.152-75.391
							c0,0,27.063,6.297,52.063,56.789C323.16,956.996,304.844,979.75,328.23,989.746z"/>
						<g>
							<g>
								<path style="fill:#91554A;" d="M267.105,930.918c-0.574-4.606-0.805-9.242-0.855-13.906
									c-0.008-4.676,0.051-9.336,1.414-14.172c0.379-1.207,0.828-2.477,1.957-3.738c0.629-0.59,1.516-1.238,2.633-1.301
									c0.973-0.184,2.234,0.348,2.574,0.531l3.164,1.406l3.145,1.895c2.176,1.242,4.125,2.637,5.953,4.082
									c1.855,1.445,3.832,2.762,5.547,4.363l5.293,4.668c1.754,1.57,3.297,3.356,4.953,5.023c1.586,1.734,3.359,3.305,4.789,5.18
									l4.395,5.539l2.184,2.785l1.91,2.992l3.793,5.988c1.34,1.949,2.082,4.262,3.152,6.367l2.957,6.465l0.543,1.18l-0.914,1.059
									c-2.18,2.539-4.172,5.605-5.605,8.73c-0.348,0.793-0.734,1.578-0.977,2.398c-0.266,0.813-0.629,1.617-0.758,2.453
									c-0.133,0.828-0.461,1.664-0.445,2.496c0,0.832-0.207,1.695-0.07,2.516c0.129,0.816,0.137,1.672,0.355,2.476l0.785,2.402
									l1.324,2.199c0.422,0.762,1.152,1.293,1.727,1.969c0.586,0.664,1.219,1.285,1.988,1.754l2.211,1.567
									c1.559,0.91,3.215,1.695,4.859,2.566l-2.637-0.859c-0.867-0.313-1.797-0.516-2.633-0.93l-2.484-1.34
									c-0.867-0.398-1.621-0.965-2.344-1.606c-0.707-0.648-1.566-1.148-2.148-1.934l-1.82-2.332l-1.273-2.715
									c-0.375-0.93-0.473-1.941-0.707-2.918c-0.234-0.988-0.117-1.988-0.188-2.988c-0.086-1.016,0.176-1.965,0.266-2.957
									c0.285-1.953,0.816-3.855,1.531-5.656c0.676-1.828,1.535-3.555,2.473-5.242c0.965-1.691,1.93-3.277,3.203-4.902
									l-0.367,2.238l-3.059-6.027c-1.098-1.965-1.852-4.102-3.215-5.926l-3.73-5.652l-1.852-2.832l-2.125-2.648l-4.258-5.289
									c-1.355-1.82-3.051-3.352-4.559-5.043c-1.578-1.629-3.039-3.379-4.711-4.91l-4.977-4.648
									c-1.605-1.621-3.449-2.934-5.176-4.398c-1.754-1.492-3.516-2.836-5.281-4.027l-2.664-1.891l-3.074-1.606
									c-0.988-0.488-0.563-0.391-1.133-0.152c-0.473,0.418-1.008,1.308-1.371,2.273c-1.5,3.981-2.066,8.656-2.641,13.176
									C267.621,921.676,267.363,926.289,267.105,930.918z"/>
							</g>
						</g>
						<g>
							<g>
								<path style="fill:#91554A;" d="M275.57,935.313c0,0,0.102-2.574,2.477-5.606c1.184-1.469,2.898-2.996,5.063-4.098
									c1.086-0.477,2.227-1.063,3.457-1.324c1.23-0.273,2.477-0.582,3.734-0.637c1.262-0.102,2.52-0.09,3.73,0.047
									c1.227,0.031,2.398,0.293,3.5,0.578c2.25,0.457,4.18,1.336,5.797,2.109c1.617,0.758,2.82,1.703,3.672,2.289
									c0.848,0.625,1.301,1.023,1.301,1.023s-0.621,0.008-1.66-0.047c-1.043-0.031-2.477-0.246-4.16-0.383
									c-0.848-0.055-1.758-0.113-2.691-0.242c-0.934-0.164-1.938-0.066-2.93-0.191c-1.004-0.137-2.039-0.07-3.066-0.09
									c-1.039-0.07-2.07-0.012-3.086,0.117c-2.063,0.035-4.004,0.531-5.836,0.992c-0.867,0.344-1.785,0.555-2.559,0.957
									c-0.832,0.328-1.547,0.766-2.273,1.121C277.313,933.559,275.57,935.313,275.57,935.313z"/>
							</g>
						</g>
					</g>
					<path style="fill:#5F221B;" d="M588.195,1008.184c0,0,0,43.848-8.957,48.555
						C570.273,1061.449,579.707,1031.285,588.195,1008.184z"/>
					<g>
						<path style="fill:#FFFFFF;" d="M523.109,948.973c0,0-10.102-41.344-36.801-65.898
							c-38.156-35.078-111.863-26.945-111.852,34.375c0,0-0.73,56.477,49.762,67.019
							C465.066,993.008,505.992,977.223,523.109,948.973z"/>
						<path style="fill:#3E0B0D;" d="M436.313,946.555c5.457-34.449,27.613-59.578,49.508-56.113
							c4.145,0.66,7.98,2.309,11.449,4.769c7.66,9.934,13.434,20.82,17.527,30.215c2.227,10.102,2.656,21.598,0.773,33.59
							c-17.164,18.828-46.227,29.676-76.844,27.469C435.082,975.016,434.004,961.133,436.313,946.555z"/>
						<g>
							<path style="fill:#5F221B;" d="M523.109,948.973c0,0-1.27-3.336-3.84-8.926c-1.238-2.816-2.859-6.176-4.805-9.973
								c-1.797-3.859-4.355-7.938-6.824-12.496c-1.223-2.289-2.883-4.445-4.383-6.789c-1.586-2.277-2.934-4.84-4.871-7.051
								c-1.816-2.289-3.684-4.645-5.594-7.047c-1.988-2.313-4.285-4.383-6.453-6.652c-1.098-1.113-2.207-2.238-3.324-3.371
								c-1.262-1.02-2.531-2.039-3.805-3.07c-2.453-1.758-5.086-3.535-7.902-5.203c-5.594-3.262-11.723-5.84-18.07-7.605
								c-6.32-1.875-12.879-2.996-19.359-3.215c-6.465-0.137-12.855,0.273-18.816,1.719c-5.941,1.445-11.508,3.574-16.289,6.473
								c-4.777,2.906-8.82,6.438-11.969,10.262c-3.125,3.844-5.418,7.871-7.176,11.625c-1.555,3.828-2.734,7.32-3.418,10.289
								c-0.336,1.492-0.641,2.828-0.902,3.988c-0.188,1.18-0.344,2.188-0.469,3c-0.254,1.645-0.383,2.52-0.383,2.52
								s-0.07-0.883-0.203-2.539c-0.164-1.668-0.34-4.121-0.168-7.27c0.121-3.148,0.574-6.984,1.641-11.336
								c1.207-4.301,3-9.144,6.055-13.906c2.988-4.781,7.18-9.48,12.484-13.313c5.266-3.875,11.523-7.019,18.344-8.969
								c6.813-1.965,14.113-3.113,21.523-2.957c7.398,0.125,14.871,1.238,22.09,3.266c7.191,2.145,14.109,5.195,20.434,9.039
								c3.152,1.891,6.141,4.094,9.055,6.508c1.305,1.183,2.609,2.355,3.902,3.523c1.172,1.316,2.344,2.621,3.504,3.922
								c2.246,2.641,4.723,5.035,6.605,7.754c1.813,2.758,3.586,5.453,5.309,8.078c1.832,2.555,3.082,5.328,4.434,7.918
								c1.262,2.641,2.692,5.082,3.664,7.601c2.035,5.004,3.953,9.543,5.137,13.75c1.406,4.121,2.328,7.809,3.023,10.848
								c0.805,3,1.098,5.469,1.43,7.086C522.977,948.098,523.109,948.973,523.109,948.973z"/>
						</g>
						<path style="fill:#FFFFFF;" d="M432.258,910.836c0,5.148,7.395,9.313,16.527,9.313c9.129,0,16.523-4.164,16.523-9.313
							c0-5.141-7.395-9.316-16.523-9.316C439.652,901.519,432.258,905.695,432.258,910.836z"/>
					</g>
					<g>
						<path style="fill:#FFFFFF;" d="M612,948.973c0,0,10.105-41.344,36.805-65.898c38.156-35.078,111.855-26.945,111.855,34.375
							c0,0,0.727,56.477-49.766,67.019C670.047,993.008,629.113,977.223,612,948.973z"/>
						<g>
							<path style="fill:#5F221B;" d="M612,948.973c0,0,0.137-0.875,0.394-2.52c0.332-1.617,0.625-4.086,1.422-7.086
								c0.703-3.043,1.621-6.727,3.027-10.848c1.188-4.211,3.102-8.746,5.137-13.75c0.977-2.519,2.402-4.961,3.664-7.601
								c1.356-2.594,2.609-5.363,4.434-7.922c1.727-2.625,3.496-5.316,5.309-8.074c1.891-2.719,4.367-5.117,6.609-7.758
								c1.16-1.297,2.328-2.606,3.508-3.922c1.285-1.164,2.594-2.34,3.898-3.519c2.914-2.418,5.906-4.621,9.059-6.508
								c6.316-3.844,13.234-6.894,20.426-9.039c7.223-2.031,14.695-3.145,22.102-3.266c7.406-0.152,14.707,0.996,21.516,2.957
								c6.832,1.949,13.082,5.098,18.348,8.969c5.305,3.832,9.492,8.531,12.48,13.313c3.059,4.762,4.844,9.606,6.059,13.906
								c1.066,4.348,1.523,8.188,1.645,11.336c0.172,3.148-0.004,5.602-0.172,7.27c-0.129,1.656-0.203,2.539-0.203,2.539
								s-0.129-0.875-0.383-2.52c-0.129-0.813-0.285-1.82-0.465-3c-0.262-1.16-0.563-2.496-0.906-3.988
								c-0.68-2.969-1.863-6.461-3.418-10.289c-1.758-3.754-4.055-7.781-7.172-11.625c-3.152-3.82-7.203-7.352-11.965-10.262
								c-4.797-2.895-10.359-5.027-16.301-6.473c-5.957-1.445-12.348-1.856-18.82-1.719c-6.473,0.219-13.039,1.34-19.352,3.215
								c-6.352,1.766-12.481,4.344-18.074,7.605c-2.816,1.664-5.453,3.445-7.902,5.203c-1.277,1.031-2.543,2.051-3.801,3.07
								c-1.121,1.133-2.234,2.254-3.328,3.371c-2.164,2.269-4.469,4.34-6.453,6.652c-1.91,2.402-3.773,4.754-5.594,7.043
								c-1.945,2.211-3.285,4.777-4.875,7.055c-1.5,2.344-3.156,4.5-4.379,6.789c-2.469,4.559-5.031,8.633-6.824,12.496
								c-1.945,3.797-3.566,7.152-4.805,9.973C613.269,945.637,612,948.973,612,948.973z"/>
						</g>
					</g>
					<path style="fill:#290006;" d="M477.355,814.996c0,0-58.164-6.688-102.539,17.645c0,0,10.387-32.445,69.691-45.52
						c0,0,12.801-1.91,22.02,1.91C476.629,793.211,483.035,803.637,477.355,814.996z"/>
					<path style="fill:#290006;" d="M645.461,818.777c0,0,58.152-6.703,102.539,17.629c0,0-10.398-32.441-69.691-45.512
						c0,0-12.805-1.914-22.012,1.902C646.184,796.992,639.789,807.406,645.461,818.777z"/>
					<path style="fill:#3E0B0D;" d="M672.027,938.305c6.008-37.953,30.422-65.633,54.523-61.809
						c18.144,2.871,30.938,22.781,33.59,48.645c-1.852,15.809-10.328,51.203-49.246,59.328c-11.82,2.477-23.633,2.852-34.906,1.531
						C670.945,972.715,669.227,955.981,672.027,938.305z"/>
					<path style="fill:#FFFFFF;" d="M671.785,894.051c-1.895,5.398,4.691,12.637,14.738,16.199
						c10.031,3.551,19.711,2.051,21.633-3.348c1.898-5.394-4.707-12.637-14.734-16.188
						C683.375,887.168,673.684,888.652,671.785,894.051z"/>
				</g>
			</g>
			<path style="fill:#5F221B;" d="M376.594,908.934c0,0-17.895-3.93-21.645-46.594c0,0,9.773,13.781,35.02,13.797
				C389.969,876.137,379.863,890.66,376.594,908.934z"/>
			<path style="fill:#5F221B;" d="M761.359,912.082c0,0,17.898-3.941,21.652-46.594c0,0-9.773,13.781-35.012,13.801
				C748,879.289,758.094,893.813,761.359,912.082z"/>
			<path style="fill:#EFA63F;" d="M566.883,539.531c3.461-0.019,275.41-10.66,270.113,333.492l-14.723,9.023
				c0,0-24.527-239.242-255.391-240.707c-230.867,1.465-258.582,252.504-258.582,252.504l-11.609-8.207
				C291.863,534.894,563.418,539.512,566.883,539.531z"/>
			<g>
				<path style="fill:#7F1324;" d="M486.504,1065.152c0,0,5.719-5.004,14.121-1.336c5.25,2.289,14.535,10.551,40.398,18.035
					c27.176,5.629,38.508,1.664,44.227,1.512c10.418-0.27,12.086,7.391,12.086,7.391c3.586,11.906-27.582,47.113-67.18,37.977
					C488.93,1118.012,478.086,1074.266,486.504,1065.152z"/>
				<path style="fill:#FFFFFF;" d="M492.887,1062.602c2.152-0.266,4.773-0.078,7.738,1.215c5.25,2.289,14.535,10.551,40.398,18.035
					c27.176,5.629,38.508,1.664,44.227,1.512c1.063-0.031,1.98,0.086,2.855,0.191c-1.07,4.063-3.32,8.617-10.027,12.535
					c-3.973,2.336-14.496,4.691-32.348,1.535C522.859,1093.563,493.07,1082.387,492.887,1062.602z"/>
				<path style="fill:#F1647B;" d="M542.133,1130.113c-3.879-0.059-7.871-0.438-11.977-1.383
					c-19.856-5.164-32.613-18.004-39.609-30.918C527.922,1082.563,540.059,1121.973,542.133,1130.113z"/>
			</g>
		</g>
		<path style="fill:#DB2739;" d="M821.402,2121.32c-1.156-5.055-2.297-10.262-3.383-15.633c-9.457,4.73-21.051,10.109-34.488,15.633
			H821.402z"/>
		<path style="fill:#DB2739;" d="M347.48,2121.32c-10.77-4.277-21.625-8.887-32.586-13.949c-1.074,5.094-2.105,9.684-3.117,13.949
			H347.48z"/>
		<path style="fill:#DB2739;" d="M719.434,2121.32c39.492-10.602,71.688-23.543,95.019-34.504c-1.023-5.734-2-11.574-2.941-17.539
			c-29.047,13.992-74.141,32.191-130.855,43.789c-16.254,3.332-34.07,6.207-53.258,8.254H719.434z"/>
		<path style="fill:#DB2739;" d="M506.23,2121.32c-56.527-5.973-118.895-20.961-184.648-50.445
			c-0.984,6.109-1.961,11.781-2.93,17.18c32.477,14.32,64.129,25.164,94.707,33.266H506.23z"/>
	</g>
	<path style="fill:#C07457;" d="M976.344,905.012c-0.875-5.336-1.477-9.801-1.422-12.637c0,0,0-20.496,8.527-22.828
		c8.523-2.328,19.352,1.348,19.352,1.348s14.09-9.793,28.004,0.18c0,0,13.406-5.856,20.645,4.871
		c7.23,10.738,5.117,57.301-3.895,67.519c-9.004,10.223-22.797,11.641-41.723,2.129c0,0-3.277,0.594-7.426,0.301l0,0
		c0,0-7.379,1.813-23.484-12.328c0,0-12.211-10.254-12.211-19.082C962.711,908.953,970.543,906.203,976.344,905.012z"/>
</g>
</svg>
